<?xml version="1.0" encoding="UTF-8" standalone="no"?>
<!DOCTYPE svg PUBLIC "-//W3C//DTD SVG 1.1//EN"
 "http://www.w3.org/Graphics/SVG/1.1/DTD/svg11.dtd">
<!-- Generated by graphviz version 2.30.1 (20140121.0832)
 -->
<!-- Title: controllers_diagram Pages: 1 -->
<svg width="1489pt" height="1157pt"
 viewBox="0.00 0.00 1489.38 1157.12" xmlns="http://www.w3.org/2000/svg" xmlns:xlink="http://www.w3.org/1999/xlink">
<g id="graph0" class="graph" transform="scale(1 1) rotate(0) translate(4 1153.12)">
<title>controllers_diagram</title>
<polygon fill="white" stroke="white" points="-4,5 -4,-1153.12 1486.38,-1153.12 1486.38,5 -4,5"/>
<!-- _diagram_info -->
<g id="node1" class="node"><title>_diagram_info</title>
<text text-anchor="start" x="1282" y="-433" font-family="Times,serif" font-size="13.00">Controllers diagram</text>
<text text-anchor="start" x="1282" y="-417.4" font-family="Times,serif" font-size="13.00">Date: Jan 28 2014 &#45; 12:55</text>
<text text-anchor="start" x="1282" y="-401.8" font-family="Times,serif" font-size="13.00">Migration version: 20140127082636</text>
<text text-anchor="start" x="1282" y="-386.2" font-family="Times,serif" font-size="13.00">Generated by RailRoady 1.1.1</text>
<text text-anchor="start" x="1282" y="-370.6" font-family="Times,serif" font-size="13.00">http://railroady.prestonlee.com</text>
</g>
<!-- ApplicationController -->
<g id="node2" class="node"><title>ApplicationController</title>
<path fill="none" stroke="black" d="M529.693,-525.358C529.693,-525.358 653.859,-525.358 653.859,-525.358 659.859,-525.358 665.859,-531.358 665.859,-537.358 665.859,-537.358 665.859,-611.758 665.859,-611.758 665.859,-617.758 659.859,-623.758 653.859,-623.758 653.859,-623.758 529.693,-623.758 529.693,-623.758 523.693,-623.758 517.693,-617.758 517.693,-611.758 517.693,-611.758 517.693,-537.358 517.693,-537.358 517.693,-531.358 523.693,-525.358 529.693,-525.358"/>
<text text-anchor="middle" x="591.776" y="-605.758" font-family="Times,serif" font-size="14.00">ApplicationController</text>
<polyline fill="none" stroke="black" points="517.693,-598.958 665.859,-598.958 "/>
<text text-anchor="start" x="525.693" y="-580.958" font-family="Times,serif" font-size="14.00">save_element_structure</text>
<polyline fill="none" stroke="black" points="517.693,-574.158 665.859,-574.158 "/>
<polyline fill="none" stroke="black" points="517.693,-550.158 665.859,-550.158 "/>
<text text-anchor="start" x="525.693" y="-532.158" font-family="Times,serif" font-size="14.00">_layout</text>
</g>
<!-- EstimationsController -->
<g id="node3" class="node"><title>EstimationsController</title>
<path fill="none" stroke="black" d="M1007.62,-931.48C1007.62,-931.48 1123.28,-931.48 1123.28,-931.48 1129.28,-931.48 1135.28,-937.48 1135.28,-943.48 1135.28,-943.48 1135.28,-1118.68 1135.28,-1118.68 1135.28,-1124.68 1129.28,-1130.68 1123.28,-1130.68 1123.28,-1130.68 1007.62,-1130.68 1007.62,-1130.68 1001.62,-1130.68 995.621,-1124.68 995.621,-1118.68 995.621,-1118.68 995.621,-943.48 995.621,-943.48 995.621,-937.48 1001.62,-931.48 1007.62,-931.48"/>
<text text-anchor="middle" x="1065.45" y="-1112.68" font-family="Times,serif" font-size="14.00">EstimationsController</text>
<polyline fill="none" stroke="black" points="995.621,-1105.88 1135.28,-1105.88 "/>
<text text-anchor="start" x="1003.62" y="-1087.88" font-family="Times,serif" font-size="14.00">_callback_before_11</text>
<text text-anchor="start" x="1003.62" y="-1071.08" font-family="Times,serif" font-size="14.00">create</text>
<text text-anchor="start" x="1003.62" y="-1054.28" font-family="Times,serif" font-size="14.00">index</text>
<text text-anchor="start" x="1003.62" y="-1037.48" font-family="Times,serif" font-size="14.00">show</text>
<text text-anchor="start" x="1003.62" y="-1020.68" font-family="Times,serif" font-size="14.00">update</text>
<polyline fill="none" stroke="black" points="995.621,-1013.88 1135.28,-1013.88 "/>
<polyline fill="none" stroke="black" points="995.621,-989.88 1135.28,-989.88 "/>
<text text-anchor="start" x="1003.62" y="-971.88" font-family="Times,serif" font-size="14.00">_layout</text>
<text text-anchor="start" x="1003.62" y="-955.08" font-family="Times,serif" font-size="14.00">estimation_params</text>
<text text-anchor="start" x="1003.62" y="-938.28" font-family="Times,serif" font-size="14.00">set_estimation</text>
</g>
<!-- ApplicationController&#45;&gt;EstimationsController -->
<g id="edge1" class="edge"><title>ApplicationController&#45;&gt;EstimationsController</title>
<path fill="none" stroke="black" d="M642.918,-623.848C728.08,-705.927 899.09,-870.745 995.394,-963.561"/>
</g>
<!-- HomeController -->
<g id="node4" class="node"><title>HomeController</title>
<path fill="none" stroke="black" d="M415.378,-109.717C415.378,-109.717 499.137,-109.717 499.137,-109.717 505.137,-109.717 511.137,-115.717 511.137,-121.717 511.137,-121.717 511.137,-196.117 511.137,-196.117 511.137,-202.117 505.137,-208.117 499.137,-208.117 499.137,-208.117 415.378,-208.117 415.378,-208.117 409.378,-208.117 403.378,-202.117 403.378,-196.117 403.378,-196.117 403.378,-121.717 403.378,-121.717 403.378,-115.717 409.378,-109.717 415.378,-109.717"/>
<text text-anchor="middle" x="457.257" y="-190.117" font-family="Times,serif" font-size="14.00">HomeController</text>
<polyline fill="none" stroke="black" points="403.378,-183.317 511.137,-183.317 "/>
<text text-anchor="start" x="411.378" y="-165.317" font-family="Times,serif" font-size="14.00">index</text>
<polyline fill="none" stroke="black" points="403.378,-158.517 511.137,-158.517 "/>
<polyline fill="none" stroke="black" points="403.378,-134.517 511.137,-134.517 "/>
<text text-anchor="start" x="411.378" y="-116.517" font-family="Times,serif" font-size="14.00">_layout</text>
</g>
<!-- ApplicationController&#45;&gt;HomeController -->
<g id="edge2" class="edge"><title>ApplicationController&#45;&gt;HomeController</title>
<path fill="none" stroke="black" d="M575.817,-525.247C549.928,-445.253 499.072,-288.117 473.196,-208.165"/>
</g>
<!-- IterationsController -->
<g id="node5" class="node"><title>IterationsController</title>
<path fill="none" stroke="black" d="M402.592,-888.029C402.592,-888.029 511.979,-888.029 511.979,-888.029 517.979,-888.029 523.979,-894.029 523.979,-900.029 523.979,-900.029 523.979,-1075.23 523.979,-1075.23 523.979,-1081.23 517.979,-1087.23 511.979,-1087.23 511.979,-1087.23 402.592,-1087.23 402.592,-1087.23 396.592,-1087.23 390.592,-1081.23 390.592,-1075.23 390.592,-1075.23 390.592,-900.029 390.592,-900.029 390.592,-894.029 396.592,-888.029 402.592,-888.029"/>
<text text-anchor="middle" x="457.285" y="-1069.23" font-family="Times,serif" font-size="14.00">IterationsController</text>
<polyline fill="none" stroke="black" points="390.592,-1062.43 523.979,-1062.43 "/>
<text text-anchor="start" x="398.592" y="-1044.43" font-family="Times,serif" font-size="14.00">_callback_before_12</text>
<text text-anchor="start" x="398.592" y="-1027.63" font-family="Times,serif" font-size="14.00">comment_html</text>
<text text-anchor="start" x="398.592" y="-1010.83" font-family="Times,serif" font-size="14.00">create</text>
<text text-anchor="start" x="398.592" y="-994.029" font-family="Times,serif" font-size="14.00">index</text>
<text text-anchor="start" x="398.592" y="-977.229" font-family="Times,serif" font-size="14.00">show</text>
<polyline fill="none" stroke="black" points="390.592,-970.429 523.979,-970.429 "/>
<polyline fill="none" stroke="black" points="390.592,-946.429 523.979,-946.429 "/>
<text text-anchor="start" x="398.592" y="-928.429" font-family="Times,serif" font-size="14.00">_layout</text>
<text text-anchor="start" x="398.592" y="-911.629" font-family="Times,serif" font-size="14.00">iteration_params</text>
<text text-anchor="start" x="398.592" y="-894.829" font-family="Times,serif" font-size="14.00">set_iteration</text>
</g>
<!-- ApplicationController&#45;&gt;IterationsController -->
<g id="edge3" class="edge"><title>ApplicationController&#45;&gt;IterationsController</title>
<path fill="none" stroke="black" d="M575.687,-623.974C554.561,-688.86 516.973,-804.308 489.805,-887.749"/>
</g>
<!-- MilestonesController -->
<g id="node6" class="node"><title>MilestonesController</title>
<path fill="none" stroke="black" d="M670.883,-898.837C670.883,-898.837 781.869,-898.837 781.869,-898.837 787.869,-898.837 793.869,-904.837 793.869,-910.837 793.869,-910.837 793.869,-1069.24 793.869,-1069.24 793.869,-1075.24 787.869,-1081.24 781.869,-1081.24 781.869,-1081.24 670.883,-1081.24 670.883,-1081.24 664.883,-1081.24 658.883,-1075.24 658.883,-1069.24 658.883,-1069.24 658.883,-910.837 658.883,-910.837 658.883,-904.837 664.883,-898.837 670.883,-898.837"/>
<text text-anchor="middle" x="726.376" y="-1063.24" font-family="Times,serif" font-size="14.00">MilestonesController</text>
<polyline fill="none" stroke="black" points="658.883,-1056.44 793.869,-1056.44 "/>
<text text-anchor="start" x="666.883" y="-1038.44" font-family="Times,serif" font-size="14.00">_callback_before_13</text>
<text text-anchor="start" x="666.883" y="-1021.64" font-family="Times,serif" font-size="14.00">create</text>
<text text-anchor="start" x="666.883" y="-1004.84" font-family="Times,serif" font-size="14.00">edit</text>
<text text-anchor="start" x="666.883" y="-988.037" font-family="Times,serif" font-size="14.00">index</text>
<polyline fill="none" stroke="black" points="658.883,-981.237 793.869,-981.237 "/>
<polyline fill="none" stroke="black" points="658.883,-957.237 793.869,-957.237 "/>
<text text-anchor="start" x="666.883" y="-939.237" font-family="Times,serif" font-size="14.00">_layout</text>
<text text-anchor="start" x="666.883" y="-922.437" font-family="Times,serif" font-size="14.00">milestone_params</text>
<text text-anchor="start" x="666.883" y="-905.637" font-family="Times,serif" font-size="14.00">set_milestone</text>
</g>
<!-- ApplicationController&#45;&gt;MilestonesController -->
<g id="edge4" class="edge"><title>ApplicationController&#45;&gt;MilestonesController</title>
<path fill="none" stroke="black" d="M607.745,-623.851C629.646,-691.454 669.402,-814.172 696.815,-898.788"/>
</g>
<!-- ProductBreakdownStructuresController -->
<g id="node7" class="node"><title>ProductBreakdownStructuresController</title>
<path fill="none" stroke="black" d="M12,-915.824C12,-915.824 226.4,-915.824 226.4,-915.824 232.4,-915.824 238.4,-921.824 238.4,-927.824 238.4,-927.824 238.4,-1136.62 238.4,-1136.62 238.4,-1142.62 232.4,-1148.62 226.4,-1148.62 226.4,-1148.62 12,-1148.62 12,-1148.62 6,-1148.62 -1.13687e-13,-1142.62 -1.13687e-13,-1136.62 -1.13687e-13,-1136.62 -1.13687e-13,-927.824 -1.13687e-13,-927.824 -1.13687e-13,-921.824 6,-915.824 12,-915.824"/>
<text text-anchor="middle" x="119.2" y="-1130.62" font-family="Times,serif" font-size="14.00">ProductBreakdownStructuresController</text>
<polyline fill="none" stroke="black" points="-1.13687e-13,-1123.82 238.4,-1123.82 "/>
<text text-anchor="start" x="8" y="-1105.82" font-family="Times,serif" font-size="14.00">create</text>
<text text-anchor="start" x="8" y="-1089.02" font-family="Times,serif" font-size="14.00">destroy</text>
<text text-anchor="start" x="8" y="-1072.22" font-family="Times,serif" font-size="14.00">edit</text>
<text text-anchor="start" x="8" y="-1055.42" font-family="Times,serif" font-size="14.00">index</text>
<text text-anchor="start" x="8" y="-1038.62" font-family="Times,serif" font-size="14.00">save_structure</text>
<text text-anchor="start" x="8" y="-1021.82" font-family="Times,serif" font-size="14.00">show</text>
<polyline fill="none" stroke="black" points="-1.13687e-13,-1015.02 238.4,-1015.02 "/>
<polyline fill="none" stroke="black" points="-1.13687e-13,-991.024 238.4,-991.024 "/>
<text text-anchor="start" x="8" y="-973.024" font-family="Times,serif" font-size="14.00">_layout</text>
<text text-anchor="start" x="8" y="-956.224" font-family="Times,serif" font-size="14.00">find_childs</text>
<text text-anchor="start" x="8" y="-939.424" font-family="Times,serif" font-size="14.00">product_breakdown_structure_params</text>
<text text-anchor="start" x="8" y="-922.624" font-family="Times,serif" font-size="14.00">set_product_breakdown_structure</text>
</g>
<!-- ApplicationController&#45;&gt;ProductBreakdownStructuresController -->
<g id="edge5" class="edge"><title>ApplicationController&#45;&gt;ProductBreakdownStructuresController</title>
<path fill="none" stroke="black" d="M540.753,-623.971C469.034,-693.428 336.289,-821.984 238.857,-916.342"/>
</g>
<!-- ProjectsController -->
<g id="node8" class="node"><title>ProjectsController</title>
<path fill="none" stroke="black" d="M118.713,-328.959C118.713,-328.959 213.361,-328.959 213.361,-328.959 219.361,-328.959 225.361,-334.959 225.361,-340.959 225.361,-340.959 225.361,-549.759 225.361,-549.759 225.361,-555.759 219.361,-561.759 213.361,-561.759 213.361,-561.759 118.713,-561.759 118.713,-561.759 112.713,-561.759 106.713,-555.759 106.713,-549.759 106.713,-549.759 106.713,-340.959 106.713,-340.959 106.713,-334.959 112.713,-328.959 118.713,-328.959"/>
<text text-anchor="middle" x="166.037" y="-543.759" font-family="Times,serif" font-size="14.00">ProjectsController</text>
<polyline fill="none" stroke="black" points="106.713,-536.959 225.361,-536.959 "/>
<text text-anchor="start" x="114.713" y="-518.959" font-family="Times,serif" font-size="14.00">create</text>
<text text-anchor="start" x="114.713" y="-502.159" font-family="Times,serif" font-size="14.00">destroy</text>
<text text-anchor="start" x="114.713" y="-485.359" font-family="Times,serif" font-size="14.00">edit</text>
<text text-anchor="start" x="114.713" y="-468.559" font-family="Times,serif" font-size="14.00">index</text>
<text text-anchor="start" x="114.713" y="-451.759" font-family="Times,serif" font-size="14.00">new</text>
<text text-anchor="start" x="114.713" y="-434.959" font-family="Times,serif" font-size="14.00">show</text>
<text text-anchor="start" x="114.713" y="-418.159" font-family="Times,serif" font-size="14.00">update</text>
<polyline fill="none" stroke="black" points="106.713,-411.359 225.361,-411.359 "/>
<polyline fill="none" stroke="black" points="106.713,-387.359 225.361,-387.359 "/>
<text text-anchor="start" x="114.713" y="-369.359" font-family="Times,serif" font-size="14.00">_layout</text>
<text text-anchor="start" x="114.713" y="-352.559" font-family="Times,serif" font-size="14.00">project_params</text>
<text text-anchor="start" x="114.713" y="-335.759" font-family="Times,serif" font-size="14.00">set_project</text>
</g>
<!-- ApplicationController&#45;&gt;ProjectsController -->
<g id="edge6" class="edge"><title>ApplicationController&#45;&gt;ProjectsController</title>
<path fill="none" stroke="black" d="M517.618,-552.053C434.712,-526.894 302.084,-486.645 225.626,-463.442"/>
</g>
<!-- QualificationsController -->
<g id="node9" class="node"><title>QualificationsController</title>
<path fill="none" stroke="black" d="M956.791,-370.956C956.791,-370.956 1084.88,-370.956 1084.88,-370.956 1090.88,-370.956 1096.88,-376.956 1096.88,-382.956 1096.88,-382.956 1096.88,-507.756 1096.88,-507.756 1096.88,-513.756 1090.88,-519.756 1084.88,-519.756 1084.88,-519.756 956.791,-519.756 956.791,-519.756 950.791,-519.756 944.791,-513.756 944.791,-507.756 944.791,-507.756 944.791,-382.956 944.791,-382.956 944.791,-376.956 950.791,-370.956 956.791,-370.956"/>
<text text-anchor="middle" x="1020.84" y="-501.756" font-family="Times,serif" font-size="14.00">QualificationsController</text>
<polyline fill="none" stroke="black" points="944.791,-494.956 1096.88,-494.956 "/>
<text text-anchor="start" x="952.791" y="-476.956" font-family="Times,serif" font-size="14.00">_callback_before_14</text>
<text text-anchor="start" x="952.791" y="-460.156" font-family="Times,serif" font-size="14.00">create</text>
<polyline fill="none" stroke="black" points="944.791,-453.356 1096.88,-453.356 "/>
<polyline fill="none" stroke="black" points="944.791,-429.356 1096.88,-429.356 "/>
<text text-anchor="start" x="952.791" y="-411.356" font-family="Times,serif" font-size="14.00">_layout</text>
<text text-anchor="start" x="952.791" y="-394.556" font-family="Times,serif" font-size="14.00">qualification_params</text>
<text text-anchor="start" x="952.791" y="-377.756" font-family="Times,serif" font-size="14.00">set_qualification</text>
</g>
<!-- ApplicationController&#45;&gt;QualificationsController -->
<g id="edge7" class="edge"><title>ApplicationController&#45;&gt;QualificationsController</title>
<path fill="none" stroke="black" d="M666.023,-552.2C743.974,-528.727 865.928,-492.003 944.613,-468.309"/>
</g>
<!-- ResourceAllocationMatricesController -->
<g id="node10" class="node"><title>ResourceAllocationMatricesController</title>
<path fill="none" stroke="black" d="M13.1865,-26.8718C13.1865,-26.8718 222.897,-26.8718 222.897,-26.8718 228.897,-26.8718 234.897,-32.8718 234.897,-38.8718 234.897,-38.8718 234.897,-197.272 234.897,-197.272 234.897,-203.272 228.897,-209.272 222.897,-209.272 222.897,-209.272 13.1865,-209.272 13.1865,-209.272 7.1865,-209.272 1.1865,-203.272 1.1865,-197.272 1.1865,-197.272 1.1865,-38.8718 1.1865,-38.8718 1.1865,-32.8718 7.1865,-26.8718 13.1865,-26.8718"/>
<text text-anchor="middle" x="118.042" y="-191.272" font-family="Times,serif" font-size="14.00">ResourceAllocationMatricesController</text>
<polyline fill="none" stroke="black" points="1.1865,-184.472 234.897,-184.472 "/>
<text text-anchor="start" x="9.1865" y="-166.472" font-family="Times,serif" font-size="14.00">_callback_before_15</text>
<text text-anchor="start" x="9.1865" y="-149.672" font-family="Times,serif" font-size="14.00">create</text>
<text text-anchor="start" x="9.1865" y="-132.872" font-family="Times,serif" font-size="14.00">edit</text>
<text text-anchor="start" x="9.1865" y="-116.072" font-family="Times,serif" font-size="14.00">index</text>
<polyline fill="none" stroke="black" points="1.1865,-109.272 234.897,-109.272 "/>
<polyline fill="none" stroke="black" points="1.1865,-85.2718 234.897,-85.2718 "/>
<text text-anchor="start" x="9.1865" y="-67.2718" font-family="Times,serif" font-size="14.00">_layout</text>
<text text-anchor="start" x="9.1865" y="-50.4718" font-family="Times,serif" font-size="14.00">resource_allocation_matrix_params</text>
<text text-anchor="start" x="9.1865" y="-33.6718" font-family="Times,serif" font-size="14.00">set_resource_allocation_matrix</text>
</g>
<!-- ApplicationController&#45;&gt;ResourceAllocationMatricesController -->
<g id="edge8" class="edge"><title>ApplicationController&#45;&gt;ResourceAllocationMatricesController</title>
<path fill="none" stroke="black" d="M540.628,-525.273C462.393,-449.885 311.717,-304.696 213.045,-209.616"/>
</g>
<!-- ResourceBreakdownStructuresController -->
<g id="node11" class="node"><title>ResourceBreakdownStructuresController</title>
<path fill="none" stroke="black" d="M952.929,-0.5C952.929,-0.5 1175.87,-0.5 1175.87,-0.5 1181.87,-0.5 1187.87,-6.5 1187.87,-12.5 1187.87,-12.5 1187.87,-221.3 1187.87,-221.3 1187.87,-227.3 1181.87,-233.3 1175.87,-233.3 1175.87,-233.3 952.929,-233.3 952.929,-233.3 946.929,-233.3 940.929,-227.3 940.929,-221.3 940.929,-221.3 940.929,-12.5 940.929,-12.5 940.929,-6.5 946.929,-0.5 952.929,-0.5"/>
<text text-anchor="middle" x="1064.4" y="-215.3" font-family="Times,serif" font-size="14.00">ResourceBreakdownStructuresController</text>
<polyline fill="none" stroke="black" points="940.929,-208.5 1187.87,-208.5 "/>
<text text-anchor="start" x="948.929" y="-190.5" font-family="Times,serif" font-size="14.00">_callback_before_16</text>
<text text-anchor="start" x="948.929" y="-173.7" font-family="Times,serif" font-size="14.00">create</text>
<text text-anchor="start" x="948.929" y="-156.9" font-family="Times,serif" font-size="14.00">destroy</text>
<text text-anchor="start" x="948.929" y="-140.1" font-family="Times,serif" font-size="14.00">edit</text>
<text text-anchor="start" x="948.929" y="-123.3" font-family="Times,serif" font-size="14.00">index</text>
<text text-anchor="start" x="948.929" y="-106.5" font-family="Times,serif" font-size="14.00">save_structure</text>
<text text-anchor="start" x="948.929" y="-89.7" font-family="Times,serif" font-size="14.00">show</text>
<polyline fill="none" stroke="black" points="940.929,-82.9 1187.87,-82.9 "/>
<polyline fill="none" stroke="black" points="940.929,-58.9 1187.87,-58.9 "/>
<text text-anchor="start" x="948.929" y="-40.9" font-family="Times,serif" font-size="14.00">_layout</text>
<text text-anchor="start" x="948.929" y="-24.1" font-family="Times,serif" font-size="14.00">resource_breakdown_structure_params</text>
<text text-anchor="start" x="948.929" y="-7.3" font-family="Times,serif" font-size="14.00">set_resource_breakdown_structure</text>
</g>
<!-- ApplicationController&#45;&gt;ResourceBreakdownStructuresController -->
<g id="edge9" class="edge"><title>ApplicationController&#45;&gt;ResourceBreakdownStructuresController</title>
<path fill="none" stroke="black" d="M642.804,-525.146C714.292,-455.922 846.405,-327.991 943.756,-233.723"/>
</g>
<!-- ResourcesController -->
<g id="node12" class="node"><title>ResourcesController</title>
<path fill="none" stroke="black" d="M671.656,-61.8513C671.656,-61.8513 781.043,-61.8513 781.043,-61.8513 787.043,-61.8513 793.043,-67.8513 793.043,-73.8513 793.043,-73.8513 793.043,-249.051 793.043,-249.051 793.043,-255.051 787.043,-261.051 781.043,-261.051 781.043,-261.051 671.656,-261.051 671.656,-261.051 665.656,-261.051 659.656,-255.051 659.656,-249.051 659.656,-249.051 659.656,-73.8513 659.656,-73.8513 659.656,-67.8513 665.656,-61.8513 671.656,-61.8513"/>
<text text-anchor="middle" x="726.349" y="-243.051" font-family="Times,serif" font-size="14.00">ResourcesController</text>
<polyline fill="none" stroke="black" points="659.656,-236.251 793.043,-236.251 "/>
<text text-anchor="start" x="667.656" y="-218.251" font-family="Times,serif" font-size="14.00">_callback_before_17</text>
<text text-anchor="start" x="667.656" y="-201.451" font-family="Times,serif" font-size="14.00">create</text>
<text text-anchor="start" x="667.656" y="-184.651" font-family="Times,serif" font-size="14.00">destroy</text>
<text text-anchor="start" x="667.656" y="-167.851" font-family="Times,serif" font-size="14.00">edit</text>
<text text-anchor="start" x="667.656" y="-151.051" font-family="Times,serif" font-size="14.00">show</text>
<polyline fill="none" stroke="black" points="659.656,-144.251 793.043,-144.251 "/>
<polyline fill="none" stroke="black" points="659.656,-120.251 793.043,-120.251 "/>
<text text-anchor="start" x="667.656" y="-102.251" font-family="Times,serif" font-size="14.00">_layout</text>
<text text-anchor="start" x="667.656" y="-85.4513" font-family="Times,serif" font-size="14.00">resource_params</text>
<text text-anchor="start" x="667.656" y="-68.6513" font-family="Times,serif" font-size="14.00">set_resource</text>
</g>
<!-- ApplicationController&#45;&gt;ResourcesController -->
<g id="edge10" class="edge"><title>ApplicationController&#45;&gt;ResourcesController</title>
<path fill="none" stroke="black" d="M607.875,-525.138C629.014,-460.247 666.626,-344.789 693.809,-261.341"/>
</g>
<!-- WorkBreakdownStructuresController -->
<g id="node13" class="node"><title>WorkBreakdownStructuresController</title>
<path fill="none" stroke="black" d="M61.6696,-578.886C61.6696,-578.886 263.28,-578.886 263.28,-578.886 269.28,-578.886 275.28,-584.886 275.28,-590.886 275.28,-590.886 275.28,-816.486 275.28,-816.486 275.28,-822.486 269.28,-828.486 263.28,-828.486 263.28,-828.486 61.6696,-828.486 61.6696,-828.486 55.6696,-828.486 49.6696,-822.486 49.6696,-816.486 49.6696,-816.486 49.6696,-590.886 49.6696,-590.886 49.6696,-584.886 55.6696,-578.886 61.6696,-578.886"/>
<text text-anchor="middle" x="162.475" y="-810.486" font-family="Times,serif" font-size="14.00">WorkBreakdownStructuresController</text>
<polyline fill="none" stroke="black" points="49.6696,-803.686 275.28,-803.686 "/>
<text text-anchor="start" x="57.6696" y="-785.686" font-family="Times,serif" font-size="14.00">_callback_before_18</text>
<text text-anchor="start" x="57.6696" y="-768.886" font-family="Times,serif" font-size="14.00">create</text>
<text text-anchor="start" x="57.6696" y="-752.086" font-family="Times,serif" font-size="14.00">destroy</text>
<text text-anchor="start" x="57.6696" y="-735.286" font-family="Times,serif" font-size="14.00">edit</text>
<text text-anchor="start" x="57.6696" y="-718.486" font-family="Times,serif" font-size="14.00">index</text>
<text text-anchor="start" x="57.6696" y="-701.686" font-family="Times,serif" font-size="14.00">save_structure</text>
<text text-anchor="start" x="57.6696" y="-684.886" font-family="Times,serif" font-size="14.00">show</text>
<polyline fill="none" stroke="black" points="49.6696,-678.086 275.28,-678.086 "/>
<polyline fill="none" stroke="black" points="49.6696,-654.086 275.28,-654.086 "/>
<text text-anchor="start" x="57.6696" y="-636.086" font-family="Times,serif" font-size="14.00">_layout</text>
<text text-anchor="start" x="57.6696" y="-619.286" font-family="Times,serif" font-size="14.00">find_childs</text>
<text text-anchor="start" x="57.6696" y="-602.486" font-family="Times,serif" font-size="14.00">set_work_breakdown_structure</text>
<text text-anchor="start" x="57.6696" y="-585.686" font-family="Times,serif" font-size="14.00">work_breakdown_structure_params</text>
</g>
<!-- ApplicationController&#45;&gt;WorkBreakdownStructuresController -->
<g id="edge11" class="edge"><title>ApplicationController&#45;&gt;WorkBreakdownStructuresController</title>
<path fill="none" stroke="black" d="M517.488,-596.903C450.772,-616.97 351.842,-646.727 275.35,-669.735"/>
</g>
<!-- WorkPackagesController -->
<g id="node14" class="node"><title>WorkPackagesController</title>
<path fill="none" stroke="black" d="M951.582,-604.079C951.582,-604.079 1083.98,-604.079 1083.98,-604.079 1089.98,-604.079 1095.98,-610.079 1095.98,-616.079 1095.98,-616.079 1095.98,-791.279 1095.98,-791.279 1095.98,-797.279 1089.98,-803.279 1083.98,-803.279 1083.98,-803.279 951.582,-803.279 951.582,-803.279 945.582,-803.279 939.582,-797.279 939.582,-791.279 939.582,-791.279 939.582,-616.079 939.582,-616.079 939.582,-610.079 945.582,-604.079 951.582,-604.079"/>
<text text-anchor="middle" x="1017.78" y="-785.279" font-family="Times,serif" font-size="14.00">WorkPackagesController</text>
<polyline fill="none" stroke="black" points="939.582,-778.479 1095.98,-778.479 "/>
<text text-anchor="start" x="947.582" y="-760.479" font-family="Times,serif" font-size="14.00">_callback_before_19</text>
<text text-anchor="start" x="947.582" y="-743.679" font-family="Times,serif" font-size="14.00">create</text>
<text text-anchor="start" x="947.582" y="-726.879" font-family="Times,serif" font-size="14.00">destroy</text>
<text text-anchor="start" x="947.582" y="-710.079" font-family="Times,serif" font-size="14.00">edit</text>
<text text-anchor="start" x="947.582" y="-693.279" font-family="Times,serif" font-size="14.00">show</text>
<polyline fill="none" stroke="black" points="939.582,-686.479 1095.98,-686.479 "/>
<polyline fill="none" stroke="black" points="939.582,-662.479 1095.98,-662.479 "/>
<text text-anchor="start" x="947.582" y="-644.479" font-family="Times,serif" font-size="14.00">_layout</text>
<text text-anchor="start" x="947.582" y="-627.679" font-family="Times,serif" font-size="14.00">set_work_package</text>
<text text-anchor="start" x="947.582" y="-610.879" font-family="Times,serif" font-size="14.00">work_package_params</text>
</g>
<!-- ApplicationController&#45;&gt;WorkPackagesController -->
<g id="edge12" class="edge"><title>ApplicationController&#45;&gt;WorkPackagesController</title>
<path fill="none" stroke="black" d="M665.98,-597.049C742.502,-620.243 861.355,-656.267 939.381,-679.916"/>
</g>
</g>
</svg>
