<?xml version="1.0" encoding="UTF-8" standalone="no"?>
<!DOCTYPE svg PUBLIC "-//W3C//DTD SVG 1.1//EN"
 "http://www.w3.org/Graphics/SVG/1.1/DTD/svg11.dtd">
<!-- Generated by graphviz version 2.30.1 (20140121.0832)
 -->
<!-- Title: controllers_diagram Pages: 1 -->
<svg width="995pt" height="814pt"
 viewBox="0.00 0.00 995.38 814.00" xmlns="http://www.w3.org/2000/svg" xmlns:xlink="http://www.w3.org/1999/xlink">
<g id="graph0" class="graph" transform="scale(1 1) rotate(0) translate(4 810)">
<title>controllers_diagram</title>
<polygon fill="white" stroke="white" points="-4,5 -4,-810 992.375,-810 992.375,5 -4,5"/>
<!-- _diagram_info -->
<g id="node1" class="node"><title>_diagram_info</title>
<text text-anchor="start" x="788" y="-789" font-family="Times,serif" font-size="13.00">Controllers diagram</text>
<text text-anchor="start" x="788" y="-773.4" font-family="Times,serif" font-size="13.00">Date: Jan 21 2014 &#45; 09:43</text>
<text text-anchor="start" x="788" y="-757.8" font-family="Times,serif" font-size="13.00">Migration version: 20140120142538</text>
<text text-anchor="start" x="788" y="-742.2" font-family="Times,serif" font-size="13.00">Generated by RailRoady 1.1.1</text>
<text text-anchor="start" x="788" y="-726.6" font-family="Times,serif" font-size="13.00">http://railroady.prestonlee.com</text>
</g>
<!-- ApplicationController -->
<g id="node2" class="node"><title>ApplicationController</title>
<path fill="none" stroke="black" d="M326.498,-309.275C326.498,-309.275 442.14,-309.275 442.14,-309.275 448.14,-309.275 454.14,-315.275 454.14,-321.275 454.14,-321.275 454.14,-394.875 454.14,-394.875 454.14,-400.875 448.14,-406.875 442.14,-406.875 442.14,-406.875 326.498,-406.875 326.498,-406.875 320.498,-406.875 314.498,-400.875 314.498,-394.875 314.498,-394.875 314.498,-321.275 314.498,-321.275 314.498,-315.275 320.498,-309.275 326.498,-309.275"/>
<text text-anchor="middle" x="384.319" y="-388.875" font-family="Times,serif" font-size="14.00">ApplicationController</text>
<polyline fill="none" stroke="black" points="314.498,-382.075 454.14,-382.075 "/>
<polyline fill="none" stroke="black" points="314.498,-358.075 454.14,-358.075 "/>
<polyline fill="none" stroke="black" points="314.498,-334.075 454.14,-334.075 "/>
<text text-anchor="start" x="322.498" y="-316.075" font-family="Times,serif" font-size="14.00">_layout</text>
</g>
<!-- HomeController -->
<g id="node3" class="node"><title>HomeController</title>
<path fill="none" stroke="black" d="M645.437,-549.446C645.437,-549.446 729.196,-549.446 729.196,-549.446 735.196,-549.446 741.196,-555.446 741.196,-561.446 741.196,-561.446 741.196,-635.846 741.196,-635.846 741.196,-641.846 735.196,-647.846 729.196,-647.846 729.196,-647.846 645.437,-647.846 645.437,-647.846 639.437,-647.846 633.437,-641.846 633.437,-635.846 633.437,-635.846 633.437,-561.446 633.437,-561.446 633.437,-555.446 639.437,-549.446 645.437,-549.446"/>
<text text-anchor="middle" x="687.317" y="-629.846" font-family="Times,serif" font-size="14.00">HomeController</text>
<polyline fill="none" stroke="black" points="633.437,-623.046 741.196,-623.046 "/>
<text text-anchor="start" x="641.437" y="-605.046" font-family="Times,serif" font-size="14.00">index</text>
<polyline fill="none" stroke="black" points="633.437,-598.246 741.196,-598.246 "/>
<polyline fill="none" stroke="black" points="633.437,-574.246 741.196,-574.246 "/>
<text text-anchor="start" x="641.437" y="-556.246" font-family="Times,serif" font-size="14.00">_layout</text>
</g>
<!-- ApplicationController&#45;&gt;HomeController -->
<g id="edge1" class="edge"><title>ApplicationController&#45;&gt;HomeController</title>
<path fill="none" stroke="black" d="M451.25,-406.931C474.636,-423.928 501.094,-443.078 525.32,-460.422 534.227,-466.799 536.845,-467.866 545.455,-474.64 575.407,-498.203 607.477,-526.001 633.534,-549.3"/>
</g>
<!-- MilestonesController -->
<g id="node4" class="node"><title>MilestonesController</title>
<path fill="none" stroke="black" d="M230.225,-38.9417C230.225,-38.9417 341.211,-38.9417 341.211,-38.9417 347.211,-38.9417 353.211,-44.9417 353.211,-50.9417 353.211,-50.9417 353.211,-192.542 353.211,-192.542 353.211,-198.542 347.211,-204.542 341.211,-204.542 341.211,-204.542 230.225,-204.542 230.225,-204.542 224.225,-204.542 218.225,-198.542 218.225,-192.542 218.225,-192.542 218.225,-50.9417 218.225,-50.9417 218.225,-44.9417 224.225,-38.9417 230.225,-38.9417"/>
<text text-anchor="middle" x="285.718" y="-186.542" font-family="Times,serif" font-size="14.00">MilestonesController</text>
<polyline fill="none" stroke="black" points="218.225,-179.742 353.211,-179.742 "/>
<text text-anchor="start" x="226.225" y="-161.742" font-family="Times,serif" font-size="14.00">create</text>
<text text-anchor="start" x="226.225" y="-144.942" font-family="Times,serif" font-size="14.00">edit</text>
<text text-anchor="start" x="226.225" y="-128.142" font-family="Times,serif" font-size="14.00">index</text>
<polyline fill="none" stroke="black" points="218.225,-121.342 353.211,-121.342 "/>
<polyline fill="none" stroke="black" points="218.225,-97.3417 353.211,-97.3417 "/>
<text text-anchor="start" x="226.225" y="-79.3417" font-family="Times,serif" font-size="14.00">_layout</text>
<text text-anchor="start" x="226.225" y="-62.5417" font-family="Times,serif" font-size="14.00">milestone_params</text>
<text text-anchor="start" x="226.225" y="-45.7417" font-family="Times,serif" font-size="14.00">set_milestone</text>
</g>
<!-- ApplicationController&#45;&gt;MilestonesController -->
<g id="edge2" class="edge"><title>ApplicationController&#45;&gt;MilestonesController</title>
<path fill="none" stroke="black" d="M363.889,-309.106C351.31,-278.956 334.859,-239.527 320.296,-204.62"/>
</g>
<!-- ProductBreakdownStructuresController -->
<g id="node5" class="node"><title>ProductBreakdownStructuresController</title>
<path fill="none" stroke="black" d="M178.908,-486.391C178.908,-486.391 393.309,-486.391 393.309,-486.391 399.309,-486.391 405.309,-492.391 405.309,-498.391 405.309,-498.391 405.309,-690.391 405.309,-690.391 405.309,-696.391 399.309,-702.391 393.309,-702.391 393.309,-702.391 178.908,-702.391 178.908,-702.391 172.908,-702.391 166.908,-696.391 166.908,-690.391 166.908,-690.391 166.908,-498.391 166.908,-498.391 166.908,-492.391 172.908,-486.391 178.908,-486.391"/>
<text text-anchor="middle" x="286.108" y="-684.391" font-family="Times,serif" font-size="14.00">ProductBreakdownStructuresController</text>
<polyline fill="none" stroke="black" points="166.908,-677.591 405.309,-677.591 "/>
<text text-anchor="start" x="174.908" y="-659.591" font-family="Times,serif" font-size="14.00">create</text>
<text text-anchor="start" x="174.908" y="-642.791" font-family="Times,serif" font-size="14.00">destroy</text>
<text text-anchor="start" x="174.908" y="-625.991" font-family="Times,serif" font-size="14.00">edit</text>
<text text-anchor="start" x="174.908" y="-609.191" font-family="Times,serif" font-size="14.00">index</text>
<text text-anchor="start" x="174.908" y="-592.391" font-family="Times,serif" font-size="14.00">show</text>
<polyline fill="none" stroke="black" points="166.908,-585.591 405.309,-585.591 "/>
<polyline fill="none" stroke="black" points="166.908,-561.591 405.309,-561.591 "/>
<text text-anchor="start" x="174.908" y="-543.591" font-family="Times,serif" font-size="14.00">_layout</text>
<text text-anchor="start" x="174.908" y="-526.791" font-family="Times,serif" font-size="14.00">find_childs</text>
<text text-anchor="start" x="174.908" y="-509.991" font-family="Times,serif" font-size="14.00">product_breakdown_structure_params</text>
<text text-anchor="start" x="174.908" y="-493.191" font-family="Times,serif" font-size="14.00">set_product_breakdown_structure</text>
</g>
<!-- ApplicationController&#45;&gt;ProductBreakdownStructuresController -->
<g id="edge3" class="edge"><title>ApplicationController&#45;&gt;ProductBreakdownStructuresController</title>
<path fill="none" stroke="black" d="M363.97,-407.04C354.418,-430.023 342.626,-458.398 331.133,-486.051"/>
</g>
<!-- ProjectsController -->
<g id="node6" class="node"><title>ProjectsController</title>
<path fill="none" stroke="black" d="M435.607,-477.84C435.607,-477.84 530.255,-477.84 530.255,-477.84 536.255,-477.84 542.255,-483.84 542.255,-489.84 542.255,-489.84 542.255,-698.64 542.255,-698.64 542.255,-704.64 536.255,-710.64 530.255,-710.64 530.255,-710.64 435.607,-710.64 435.607,-710.64 429.607,-710.64 423.607,-704.64 423.607,-698.64 423.607,-698.64 423.607,-489.84 423.607,-489.84 423.607,-483.84 429.607,-477.84 435.607,-477.84"/>
<text text-anchor="middle" x="482.931" y="-692.64" font-family="Times,serif" font-size="14.00">ProjectsController</text>
<polyline fill="none" stroke="black" points="423.607,-685.84 542.255,-685.84 "/>
<text text-anchor="start" x="431.607" y="-667.84" font-family="Times,serif" font-size="14.00">create</text>
<text text-anchor="start" x="431.607" y="-651.04" font-family="Times,serif" font-size="14.00">destroy</text>
<text text-anchor="start" x="431.607" y="-634.24" font-family="Times,serif" font-size="14.00">edit</text>
<text text-anchor="start" x="431.607" y="-617.44" font-family="Times,serif" font-size="14.00">index</text>
<text text-anchor="start" x="431.607" y="-600.64" font-family="Times,serif" font-size="14.00">new</text>
<text text-anchor="start" x="431.607" y="-583.84" font-family="Times,serif" font-size="14.00">show</text>
<text text-anchor="start" x="431.607" y="-567.04" font-family="Times,serif" font-size="14.00">update</text>
<polyline fill="none" stroke="black" points="423.607,-560.24 542.255,-560.24 "/>
<polyline fill="none" stroke="black" points="423.607,-536.24 542.255,-536.24 "/>
<text text-anchor="start" x="431.607" y="-518.24" font-family="Times,serif" font-size="14.00">_layout</text>
<text text-anchor="start" x="431.607" y="-501.44" font-family="Times,serif" font-size="14.00">project_params</text>
<text text-anchor="start" x="431.607" y="-484.64" font-family="Times,serif" font-size="14.00">set_project</text>
</g>
<!-- ApplicationController&#45;&gt;ProjectsController -->
<g id="edge4" class="edge"><title>ApplicationController&#45;&gt;ProjectsController</title>
<path fill="none" stroke="black" d="M404.751,-407.008C413.383,-427.68 423.837,-452.716 434.254,-477.663"/>
</g>
<!-- QualificationsController -->
<g id="node7" class="node"><title>QualificationsController</title>
<path fill="none" stroke="black" d="M17.6589,-532.791C17.6589,-532.791 145.749,-532.791 145.749,-532.791 151.749,-532.791 157.749,-538.791 157.749,-544.791 157.749,-544.791 157.749,-652.791 157.749,-652.791 157.749,-658.791 151.749,-664.791 145.749,-664.791 145.749,-664.791 17.6589,-664.791 17.6589,-664.791 11.6589,-664.791 5.65885,-658.791 5.65885,-652.791 5.65885,-652.791 5.65885,-544.791 5.65885,-544.791 5.65885,-538.791 11.6589,-532.791 17.6589,-532.791"/>
<text text-anchor="middle" x="81.7038" y="-646.791" font-family="Times,serif" font-size="14.00">QualificationsController</text>
<polyline fill="none" stroke="black" points="5.65885,-639.991 157.749,-639.991 "/>
<text text-anchor="start" x="13.6589" y="-621.991" font-family="Times,serif" font-size="14.00">create</text>
<polyline fill="none" stroke="black" points="5.65885,-615.191 157.749,-615.191 "/>
<polyline fill="none" stroke="black" points="5.65885,-591.191 157.749,-591.191 "/>
<text text-anchor="start" x="13.6589" y="-573.191" font-family="Times,serif" font-size="14.00">_layout</text>
<text text-anchor="start" x="13.6589" y="-556.391" font-family="Times,serif" font-size="14.00">qualification_params</text>
<text text-anchor="start" x="13.6589" y="-539.591" font-family="Times,serif" font-size="14.00">set_qualification</text>
</g>
<!-- ApplicationController&#45;&gt;QualificationsController -->
<g id="edge5" class="edge"><title>ApplicationController&#45;&gt;QualificationsController</title>
<path fill="none" stroke="black" d="M314.126,-399.628C289.782,-413.86 262.243,-429.761 236.911,-443.926 204.687,-461.945 191.39,-458.762 163.708,-483.191 147.657,-497.357 133.045,-515.245 120.747,-532.69"/>
</g>
<!-- ResourceAllocationMatricesController -->
<g id="node8" class="node"><title>ResourceAllocationMatricesController</title>
<path fill="none" stroke="black" d="M12,-275.126C12,-275.126 221.711,-275.126 221.711,-275.126 227.711,-275.126 233.711,-281.126 233.711,-287.126 233.711,-287.126 233.711,-428.726 233.711,-428.726 233.711,-434.726 227.711,-440.726 221.711,-440.726 221.711,-440.726 12,-440.726 12,-440.726 6,-440.726 -5.68434e-14,-434.726 -5.68434e-14,-428.726 -5.68434e-14,-428.726 -5.68434e-14,-287.126 -5.68434e-14,-287.126 -5.68434e-14,-281.126 6,-275.126 12,-275.126"/>
<text text-anchor="middle" x="116.855" y="-422.726" font-family="Times,serif" font-size="14.00">ResourceAllocationMatricesController</text>
<polyline fill="none" stroke="black" points="-5.68434e-14,-415.926 233.711,-415.926 "/>
<text text-anchor="start" x="8" y="-397.926" font-family="Times,serif" font-size="14.00">create</text>
<text text-anchor="start" x="8" y="-381.126" font-family="Times,serif" font-size="14.00">edit</text>
<text text-anchor="start" x="8" y="-364.326" font-family="Times,serif" font-size="14.00">index</text>
<polyline fill="none" stroke="black" points="-5.68434e-14,-357.526 233.711,-357.526 "/>
<polyline fill="none" stroke="black" points="-5.68434e-14,-333.526 233.711,-333.526 "/>
<text text-anchor="start" x="8" y="-315.526" font-family="Times,serif" font-size="14.00">_layout</text>
<text text-anchor="start" x="8" y="-298.726" font-family="Times,serif" font-size="14.00">resource_allocation_matrix_params</text>
<text text-anchor="start" x="8" y="-281.926" font-family="Times,serif" font-size="14.00">set_resource_allocation_matrix</text>
</g>
<!-- ApplicationController&#45;&gt;ResourceAllocationMatricesController -->
<g id="edge6" class="edge"><title>ApplicationController&#45;&gt;ResourceAllocationMatricesController</title>
<path fill="none" stroke="black" d="M314.395,-358.036C289.708,-358.022 261.231,-358.006 233.722,-357.991"/>
</g>
<!-- ResourceBreakdownStructuresController -->
<g id="node9" class="node"><title>ResourceBreakdownStructuresController</title>
<path fill="none" stroke="black" d="M540.52,-258.022C540.52,-258.022 763.458,-258.022 763.458,-258.022 769.458,-258.022 775.458,-264.022 775.458,-270.022 775.458,-270.022 775.458,-445.222 775.458,-445.222 775.458,-451.222 769.458,-457.222 763.458,-457.222 763.458,-457.222 540.52,-457.222 540.52,-457.222 534.52,-457.222 528.52,-451.222 528.52,-445.222 528.52,-445.222 528.52,-270.022 528.52,-270.022 528.52,-264.022 534.52,-258.022 540.52,-258.022"/>
<text text-anchor="middle" x="651.989" y="-439.222" font-family="Times,serif" font-size="14.00">ResourceBreakdownStructuresController</text>
<polyline fill="none" stroke="black" points="528.52,-432.422 775.458,-432.422 "/>
<text text-anchor="start" x="536.52" y="-414.422" font-family="Times,serif" font-size="14.00">create</text>
<text text-anchor="start" x="536.52" y="-397.622" font-family="Times,serif" font-size="14.00">destroy</text>
<text text-anchor="start" x="536.52" y="-380.822" font-family="Times,serif" font-size="14.00">edit</text>
<text text-anchor="start" x="536.52" y="-364.022" font-family="Times,serif" font-size="14.00">index</text>
<text text-anchor="start" x="536.52" y="-347.222" font-family="Times,serif" font-size="14.00">show</text>
<polyline fill="none" stroke="black" points="528.52,-340.422 775.458,-340.422 "/>
<polyline fill="none" stroke="black" points="528.52,-316.422 775.458,-316.422 "/>
<text text-anchor="start" x="536.52" y="-298.422" font-family="Times,serif" font-size="14.00">_layout</text>
<text text-anchor="start" x="536.52" y="-281.622" font-family="Times,serif" font-size="14.00">resource_breakdown_structure_params</text>
<text text-anchor="start" x="536.52" y="-264.822" font-family="Times,serif" font-size="14.00">set_resource_breakdown_structure</text>
</g>
<!-- ApplicationController&#45;&gt;ResourceBreakdownStructuresController -->
<g id="edge7" class="edge"><title>ApplicationController&#45;&gt;ResourceBreakdownStructuresController</title>
<path fill="none" stroke="black" d="M454.296,-357.956C476.989,-357.918 502.881,-357.874 528.283,-357.831"/>
</g>
<!-- ResourcesController -->
<g id="node10" class="node"><title>ResourcesController</title>
<path fill="none" stroke="black" d="M28.0298,-25.8623C28.0298,-25.8623 135.113,-25.8623 135.113,-25.8623 141.113,-25.8623 147.113,-31.8623 147.113,-37.8623 147.113,-37.8623 147.113,-196.262 147.113,-196.262 147.113,-202.262 141.113,-208.262 135.113,-208.262 135.113,-208.262 28.0298,-208.262 28.0298,-208.262 22.0298,-208.262 16.0298,-202.262 16.0298,-196.262 16.0298,-196.262 16.0298,-37.8623 16.0298,-37.8623 16.0298,-31.8623 22.0298,-25.8623 28.0298,-25.8623"/>
<text text-anchor="middle" x="81.5714" y="-190.262" font-family="Times,serif" font-size="14.00">ResourcesController</text>
<polyline fill="none" stroke="black" points="16.0298,-183.462 147.113,-183.462 "/>
<text text-anchor="start" x="24.0298" y="-165.462" font-family="Times,serif" font-size="14.00">create</text>
<text text-anchor="start" x="24.0298" y="-148.662" font-family="Times,serif" font-size="14.00">destroy</text>
<text text-anchor="start" x="24.0298" y="-131.862" font-family="Times,serif" font-size="14.00">edit</text>
<text text-anchor="start" x="24.0298" y="-115.062" font-family="Times,serif" font-size="14.00">show</text>
<polyline fill="none" stroke="black" points="16.0298,-108.262 147.113,-108.262 "/>
<polyline fill="none" stroke="black" points="16.0298,-84.2623 147.113,-84.2623 "/>
<text text-anchor="start" x="24.0298" y="-66.2623" font-family="Times,serif" font-size="14.00">_layout</text>
<text text-anchor="start" x="24.0298" y="-49.4623" font-family="Times,serif" font-size="14.00">resource_params</text>
<text text-anchor="start" x="24.0298" y="-32.6623" font-family="Times,serif" font-size="14.00">set_resource</text>
</g>
<!-- ApplicationController&#45;&gt;ResourcesController -->
<g id="edge8" class="edge"><title>ApplicationController&#45;&gt;ResourcesController</title>
<path fill="none" stroke="black" d="M322.688,-309.012C271.686,-268.41 199.412,-210.873 147.309,-169.395"/>
</g>
<!-- WorkBreakdownStructuresController -->
<g id="node11" class="node"><title>WorkBreakdownStructuresController</title>
<path fill="none" stroke="black" d="M586.24,-0.5C586.24,-0.5 787.85,-0.5 787.85,-0.5 793.85,-0.5 799.85,-6.5 799.85,-12.5 799.85,-12.5 799.85,-221.3 799.85,-221.3 799.85,-227.3 793.85,-233.3 787.85,-233.3 787.85,-233.3 586.24,-233.3 586.24,-233.3 580.24,-233.3 574.24,-227.3 574.24,-221.3 574.24,-221.3 574.24,-12.5 574.24,-12.5 574.24,-6.5 580.24,-0.5 586.24,-0.5"/>
<text text-anchor="middle" x="687.045" y="-215.3" font-family="Times,serif" font-size="14.00">WorkBreakdownStructuresController</text>
<polyline fill="none" stroke="black" points="574.24,-208.5 799.85,-208.5 "/>
<text text-anchor="start" x="582.24" y="-190.5" font-family="Times,serif" font-size="14.00">create</text>
<text text-anchor="start" x="582.24" y="-173.7" font-family="Times,serif" font-size="14.00">destroy</text>
<text text-anchor="start" x="582.24" y="-156.9" font-family="Times,serif" font-size="14.00">edit</text>
<text text-anchor="start" x="582.24" y="-140.1" font-family="Times,serif" font-size="14.00">index</text>
<text text-anchor="start" x="582.24" y="-123.3" font-family="Times,serif" font-size="14.00">save_structure</text>
<text text-anchor="start" x="582.24" y="-106.5" font-family="Times,serif" font-size="14.00">show</text>
<polyline fill="none" stroke="black" points="574.24,-99.7 799.85,-99.7 "/>
<polyline fill="none" stroke="black" points="574.24,-75.7 799.85,-75.7 "/>
<text text-anchor="start" x="582.24" y="-57.7" font-family="Times,serif" font-size="14.00">_layout</text>
<text text-anchor="start" x="582.24" y="-40.9" font-family="Times,serif" font-size="14.00">find_childs</text>
<text text-anchor="start" x="582.24" y="-24.1" font-family="Times,serif" font-size="14.00">set_work_breakdown_structure</text>
<text text-anchor="start" x="582.24" y="-7.3" font-family="Times,serif" font-size="14.00">work_breakdown_structure_params</text>
</g>
<!-- ApplicationController&#45;&gt;WorkBreakdownStructuresController -->
<g id="edge9" class="edge"><title>ApplicationController&#45;&gt;WorkBreakdownStructuresController</title>
<path fill="none" stroke="black" d="M446.276,-309.235C480.888,-281.902 524.769,-247.168 563.74,-216.075 567.176,-213.334 570.664,-210.548 574.184,-207.733"/>
</g>
<!-- WorkPackagesController -->
<g id="node12" class="node"><title>WorkPackagesController</title>
<path fill="none" stroke="black" d="M416.144,-30.4753C416.144,-30.4753 548.54,-30.4753 548.54,-30.4753 554.54,-30.4753 560.54,-36.4753 560.54,-42.4753 560.54,-42.4753 560.54,-200.875 560.54,-200.875 560.54,-206.875 554.54,-212.875 548.54,-212.875 548.54,-212.875 416.144,-212.875 416.144,-212.875 410.144,-212.875 404.144,-206.875 404.144,-200.875 404.144,-200.875 404.144,-42.4753 404.144,-42.4753 404.144,-36.4753 410.144,-30.4753 416.144,-30.4753"/>
<text text-anchor="middle" x="482.342" y="-194.875" font-family="Times,serif" font-size="14.00">WorkPackagesController</text>
<polyline fill="none" stroke="black" points="404.144,-188.075 560.54,-188.075 "/>
<text text-anchor="start" x="412.144" y="-170.075" font-family="Times,serif" font-size="14.00">create</text>
<text text-anchor="start" x="412.144" y="-153.275" font-family="Times,serif" font-size="14.00">destroy</text>
<text text-anchor="start" x="412.144" y="-136.475" font-family="Times,serif" font-size="14.00">edit</text>
<text text-anchor="start" x="412.144" y="-119.675" font-family="Times,serif" font-size="14.00">show</text>
<polyline fill="none" stroke="black" points="404.144,-112.875 560.54,-112.875 "/>
<polyline fill="none" stroke="black" points="404.144,-88.8753 560.54,-88.8753 "/>
<text text-anchor="start" x="412.144" y="-70.8753" font-family="Times,serif" font-size="14.00">_layout</text>
<text text-anchor="start" x="412.144" y="-54.0753" font-family="Times,serif" font-size="14.00">set_work_package</text>
<text text-anchor="start" x="412.144" y="-37.2753" font-family="Times,serif" font-size="14.00">work_package_params</text>
</g>
<!-- ApplicationController&#45;&gt;WorkPackagesController -->
<g id="edge10" class="edge"><title>ApplicationController&#45;&gt;WorkPackagesController</title>
<path fill="none" stroke="black" d="M404.629,-309.093C416.125,-281.368 430.874,-245.8 444.427,-213.113"/>
</g>
</g>
</svg>
