<?xml version="1.0" encoding="UTF-8" standalone="no"?>
<!DOCTYPE svg PUBLIC "-//W3C//DTD SVG 1.1//EN"
 "http://www.w3.org/Graphics/SVG/1.1/DTD/svg11.dtd">
<!-- Generated by graphviz version 2.30.1 (20140121.0832)
 -->
<!-- Title: models_diagram Pages: 1 -->
<svg width="1466pt" height="670pt"
 viewBox="0.00 0.00 1466.28 670.00" xmlns="http://www.w3.org/2000/svg" xmlns:xlink="http://www.w3.org/1999/xlink">
<g id="graph0" class="graph" transform="scale(1 1) rotate(0) translate(4 666)">
<title>models_diagram</title>
<polygon fill="white" stroke="white" points="-4,5 -4,-666 1463.28,-666 1463.28,5 -4,5"/>
<!-- _diagram_info -->
<g id="node1" class="node"><title>_diagram_info</title>
<text text-anchor="start" x="7.31226" y="-645" font-family="Times,serif" font-size="13.00">Models diagram</text>
<text text-anchor="start" x="7.31226" y="-629.4" font-family="Times,serif" font-size="13.00">Date: Jan 28 2014 &#45; 12:55</text>
<text text-anchor="start" x="7.31226" y="-613.8" font-family="Times,serif" font-size="13.00">Migration version: 20140127082636</text>
<text text-anchor="start" x="7.31226" y="-598.2" font-family="Times,serif" font-size="13.00">Generated by RailRoady 1.1.1</text>
<text text-anchor="start" x="7.31226" y="-582.6" font-family="Times,serif" font-size="13.00">http://railroady.prestonlee.com</text>
</g>
<!-- Ability -->
<g id="node2" class="node"><title>Ability</title>
<polygon fill="none" stroke="black" points="288.255,-540 233.745,-540 233.745,-504 288.255,-504 288.255,-540"/>
<text text-anchor="middle" x="261" y="-516.4" font-family="Times,serif" font-size="14.00">Ability</text>
</g>
<!-- Attachment -->
<g id="node3" class="node"><title>Attachment</title>
<ellipse fill="none" stroke="black" cx="363" cy="-522" rx="56.1299" ry="18"/>
<text text-anchor="middle" x="363" y="-516.4" font-family="Times,serif" font-size="14.00">Attachment</text>
</g>
<!-- Estimation -->
<g id="node4" class="node"><title>Estimation</title>
<ellipse fill="none" stroke="black" cx="483" cy="-90" rx="52.3215" ry="18"/>
<text text-anchor="middle" x="483" y="-84.4" font-family="Times,serif" font-size="14.00">Estimation</text>
</g>
<!-- Comment -->
<g id="node19" class="node"><title>Comment</title>
<ellipse fill="none" stroke="black" cx="483" cy="-18" rx="49.1903" ry="18"/>
<text text-anchor="middle" x="483" y="-12.4" font-family="Times,serif" font-size="14.00">Comment</text>
</g>
<!-- Estimation&#45;&gt;Comment -->
<g id="edge3" class="edge"><title>Estimation&#45;&gt;Comment</title>
<path fill="none" stroke="#eca3d6" d="M483,-63.6398C483,-58.0629 483,-52.1319 483,-46.4761"/>
<ellipse fill="none" stroke="#eca3d6" cx="483" cy="-67.6966" rx="4" ry="4"/>
<polygon fill="#eca3d6" stroke="#eca3d6" points="483,-46.1043 487.5,-36.1043 483,-41.1043 483,-36.1043 483,-36.1043 483,-36.1043 483,-41.1043 478.5,-36.1044 483,-46.1043 483,-46.1043"/>
</g>
<!-- Iteration -->
<g id="node5" class="node"><title>Iteration</title>
<ellipse fill="none" stroke="black" cx="519" cy="-162" rx="43.6191" ry="18"/>
<text text-anchor="middle" x="519" y="-156.4" font-family="Times,serif" font-size="14.00">Iteration</text>
</g>
<!-- Iteration&#45;&gt;Estimation -->
<g id="edge5" class="edge"><title>Iteration&#45;&gt;Estimation</title>
<path fill="none" stroke="#077cdd" d="M506.51,-136.714C503.212,-130.302 499.641,-123.358 496.302,-116.865"/>
<ellipse fill="none" stroke="#077cdd" cx="508.456" cy="-140.498" rx="4.00002" ry="4.00002"/>
<polygon fill="#077cdd" stroke="#077cdd" points="496.208,-116.682 495.636,-105.731 493.921,-112.235 491.634,-107.789 491.634,-107.789 491.634,-107.789 493.921,-112.235 487.633,-109.847 496.208,-116.682 496.208,-116.682"/>
</g>
<!-- Milestone -->
<g id="node6" class="node"><title>Milestone</title>
<ellipse fill="none" stroke="black" cx="943" cy="-450" rx="49.4888" ry="18"/>
<text text-anchor="middle" x="943" y="-444.4" font-family="Times,serif" font-size="14.00">Milestone</text>
</g>
<!-- ProductBreakdownStructure -->
<g id="node7" class="node"><title>ProductBreakdownStructure</title>
<ellipse fill="none" stroke="black" cx="1028" cy="-306" rx="120.489" ry="18"/>
<text text-anchor="middle" x="1028" y="-300.4" font-family="Times,serif" font-size="14.00">ProductBreakdownStructure</text>
</g>
<!-- Milestone&#45;&gt;ProductBreakdownStructure -->
<g id="edge7" class="edge"><title>Milestone&#45;&gt;ProductBreakdownStructure</title>
<path fill="none" stroke="#6ef687" d="M958.269,-423.492C973.557,-397.952 996.966,-358.846 1012.38,-333.099"/>
<polygon fill="#6ef687" stroke="#6ef687" points="958.221,-423.573 949.223,-429.842 955.652,-427.863 953.084,-432.153 953.084,-432.153 953.084,-432.153 955.652,-427.863 956.946,-434.464 958.221,-423.573 958.221,-423.573"/>
<polygon fill="#6ef687" stroke="#6ef687" points="1012.53,-332.848 1021.52,-326.579 1015.1,-328.558 1017.66,-324.268 1017.66,-324.268 1017.66,-324.268 1015.1,-328.558 1013.8,-321.957 1012.53,-332.848 1012.53,-332.848"/>
</g>
<!-- Project -->
<g id="node8" class="node"><title>Project</title>
<ellipse fill="none" stroke="black" cx="808" cy="-522" rx="38.0859" ry="18"/>
<text text-anchor="middle" x="808" y="-516.4" font-family="Times,serif" font-size="14.00">Project</text>
</g>
<!-- Role -->
<g id="node13" class="node"><title>Role</title>
<ellipse fill="none" stroke="black" cx="694" cy="-450" rx="28.9157" ry="18"/>
<text text-anchor="middle" x="694" y="-444.4" font-family="Times,serif" font-size="14.00">Role</text>
</g>
<!-- Project&#45;&gt;Role -->
<g id="edge10" class="edge"><title>Project&#45;&gt;Role</title>
<path fill="none" stroke="#6f66dd" d="M778.837,-503.093C761.665,-492.549 740.026,-479.261 722.9,-468.746"/>
<ellipse fill="none" stroke="#6f66dd" cx="782.34" cy="-505.244" rx="4.00002" ry="4.00002"/>
<polygon fill="#6f66dd" stroke="#6f66dd" points="722.429,-468.456 716.262,-459.389 718.168,-465.84 713.907,-463.224 713.907,-463.224 713.907,-463.224 718.168,-465.84 711.552,-467.058 722.429,-468.456 722.429,-468.456"/>
</g>
<!-- Project&#45;&gt;ProductBreakdownStructure -->
<g id="edge11" class="edge"><title>Project&#45;&gt;ProductBreakdownStructure</title>
<path fill="none" stroke="#3dbc64" d="M825.638,-498.519C840.511,-480.022 862.718,-453.456 884,-432 921.506,-394.189 968.74,-354.536 998.664,-330.289"/>
<ellipse fill="none" stroke="#3dbc64" cx="823.002" cy="-501.818" rx="4.00002" ry="4.00002"/>
<polygon fill="#3dbc64" stroke="#3dbc64" points="998.838,-330.149 1009.45,-327.376 1002.73,-327.011 1006.62,-323.873 1006.62,-323.873 1006.62,-323.873 1002.73,-327.011 1003.8,-320.369 998.838,-330.149 998.838,-330.149"/>
</g>
<!-- WorkBreakdownStructure -->
<g id="node15" class="node"><title>WorkBreakdownStructure</title>
<ellipse fill="none" stroke="black" cx="701" cy="-306" rx="112.256" ry="18"/>
<text text-anchor="middle" x="701" y="-300.4" font-family="Times,serif" font-size="14.00">WorkBreakdownStructure</text>
</g>
<!-- Project&#45;&gt;WorkBreakdownStructure -->
<g id="edge12" class="edge"><title>Project&#45;&gt;WorkBreakdownStructure</title>
<path fill="none" stroke="#f2cd1f" d="M803.541,-495.646C796.878,-462.512 782.105,-403.584 755,-360 748.279,-349.194 738.912,-338.977 729.864,-330.45"/>
<ellipse fill="none" stroke="#f2cd1f" cx="804.375" cy="-499.954" rx="4.00001" ry="4.00001"/>
<polygon fill="#f2cd1f" stroke="#f2cd1f" points="729.824,-330.413 725.421,-320.37 726.114,-327.061 722.404,-323.709 722.404,-323.709 722.404,-323.709 726.114,-327.061 719.387,-327.048 729.824,-330.413 729.824,-330.413"/>
</g>
<!-- ResourceBreakdownStructure -->
<g id="node12" class="node"><title>ResourceBreakdownStructure</title>
<ellipse fill="none" stroke="black" cx="1138" cy="-450" rx="126.324" ry="18"/>
<text text-anchor="middle" x="1138" y="-444.4" font-family="Times,serif" font-size="14.00">ResourceBreakdownStructure</text>
</g>
<!-- Project&#45;&gt;ResourceBreakdownStructure -->
<g id="edge13" class="edge"><title>Project&#45;&gt;ResourceBreakdownStructure</title>
<path fill="none" stroke="#314cbe" d="M849.966,-512.098C902.935,-500.862 995.065,-481.32 1060.87,-467.361"/>
<ellipse fill="none" stroke="#314cbe" cx="845.986" cy="-512.942" rx="4.00001" ry="4.00001"/>
<polygon fill="#314cbe" stroke="#314cbe" points="1061,-467.333 1071.72,-469.66 1065.89,-466.295 1070.79,-465.258 1070.79,-465.258 1070.79,-465.258 1065.89,-466.295 1069.85,-460.855 1061,-467.333 1061,-467.333"/>
</g>
<!-- ResourceAllocationMatrix -->
<g id="node11" class="node"><title>ResourceAllocationMatrix</title>
<ellipse fill="none" stroke="black" cx="698" cy="-162" rx="114.021" ry="18"/>
<text text-anchor="middle" x="698" y="-156.4" font-family="Times,serif" font-size="14.00">ResourceAllocationMatrix</text>
</g>
<!-- Project&#45;&gt;ResourceAllocationMatrix -->
<g id="edge14" class="edge"><title>Project&#45;&gt;ResourceAllocationMatrix</title>
<path fill="none" stroke="#f502a1" d="M819.14,-496.668C837.389,-453.162 868.878,-359.869 840,-288 821.228,-241.281 774.017,-205.69 739.16,-184.654"/>
<ellipse fill="none" stroke="#f502a1" cx="817.484" cy="-500.521" rx="4.00002" ry="4.00002"/>
<polygon fill="#f502a1" stroke="#f502a1" points="738.767,-184.423 732.416,-175.484 734.453,-181.894 730.14,-179.365 730.14,-179.365 730.14,-179.365 734.453,-181.894 727.864,-183.247 738.767,-184.423 738.767,-184.423"/>
</g>
<!-- Project&#45;&gt;Milestone -->
<g id="edge15" class="edge"><title>Project&#45;&gt;Milestone</title>
<path fill="none" stroke="#3923b2" d="M839.943,-504.437C859.906,-494.086 885.677,-480.723 906.454,-469.95"/>
<ellipse fill="none" stroke="#3923b2" cx="836.312" cy="-506.32" rx="4.00002" ry="4.00002"/>
<polygon fill="#3923b2" stroke="#3923b2" points="906.732,-469.806 917.681,-469.197 911.171,-467.504 915.61,-465.202 915.61,-465.202 915.61,-465.202 911.171,-467.504 913.538,-461.208 906.732,-469.806 906.732,-469.806"/>
</g>
<!-- Qualification -->
<g id="node9" class="node"><title>Qualification</title>
<ellipse fill="none" stroke="black" cx="1375" cy="-522" rx="61.1861" ry="18"/>
<text text-anchor="middle" x="1375" y="-516.4" font-family="Times,serif" font-size="14.00">Qualification</text>
</g>
<!-- Resource -->
<g id="node10" class="node"><title>Resource</title>
<ellipse fill="none" stroke="black" cx="1375" cy="-378" rx="46.4511" ry="18"/>
<text text-anchor="middle" x="1375" y="-372.4" font-family="Times,serif" font-size="14.00">Resource</text>
</g>
<!-- Qualification&#45;&gt;Resource -->
<g id="edge17" class="edge"><title>Qualification&#45;&gt;Resource</title>
<path fill="none" stroke="#e21a4b" d="M1375,-495.558C1375,-470.444 1375,-432.164 1375,-406.393"/>
<ellipse fill="none" stroke="#e21a4b" cx="1375" cy="-499.871" rx="4" ry="4"/>
<polygon fill="#e21a4b" stroke="#e21a4b" points="1375,-406.189 1379.5,-396.189 1375,-401.189 1375,-396.189 1375,-396.189 1375,-396.189 1375,-401.189 1370.5,-396.189 1375,-406.189 1375,-406.189"/>
</g>
<!-- ResourceBreakdownStructure&#45;&gt;Resource -->
<g id="edge21" class="edge"><title>ResourceBreakdownStructure&#45;&gt;Resource</title>
<path fill="none" stroke="#ca5979" d="M1198.14,-431.236C1238.95,-419.184 1292.05,-403.5 1329.38,-392.474"/>
<ellipse fill="none" stroke="#ca5979" cx="1194.14" cy="-432.418" rx="4.00001" ry="4.00001"/>
<polygon fill="#ca5979" stroke="#ca5979" points="1329.4,-392.468 1340.26,-393.951 1334.19,-391.052 1338.99,-389.636 1338.99,-389.636 1338.99,-389.636 1334.19,-391.052 1337.72,-385.32 1329.4,-392.468 1329.4,-392.468"/>
</g>
<!-- User -->
<g id="node14" class="node"><title>User</title>
<ellipse fill="none" stroke="black" cx="717" cy="-378" rx="28.9087" ry="18"/>
<text text-anchor="middle" x="717" y="-372.4" font-family="Times,serif" font-size="14.00">User</text>
</g>
<!-- Role&#45;&gt;User -->
<g id="edge23" class="edge"><title>Role&#45;&gt;User</title>
<path fill="none" stroke="#67c207" d="M702.732,-422.426C704.568,-416.837 706.504,-410.944 708.338,-405.363"/>
<polygon fill="#67c207" stroke="#67c207" points="702.689,-422.555 695.293,-430.65 701.128,-427.305 699.568,-432.055 699.568,-432.055 699.568,-432.055 701.128,-427.305 703.843,-433.46 702.689,-422.555 702.689,-422.555"/>
<polygon fill="#67c207" stroke="#67c207" points="708.362,-405.289 715.759,-397.194 709.923,-400.539 711.484,-395.789 711.484,-395.789 711.484,-395.789 709.923,-400.539 707.208,-394.384 708.362,-405.289 708.362,-405.289"/>
</g>
<!-- User&#45;&gt;Project -->
<g id="edge25" class="edge"><title>User&#45;&gt;Project</title>
<path fill="none" stroke="#409762" d="M731.62,-401.814C748.057,-427.463 774.676,-468.999 791.752,-495.645"/>
<ellipse fill="none" stroke="#409762" cx="729.428" cy="-398.394" rx="4.00002" ry="4.00002"/>
<polygon fill="#409762" stroke="#409762" points="791.987,-496.013 793.594,-506.861 794.685,-500.223 797.383,-504.433 797.383,-504.433 797.383,-504.433 794.685,-500.223 801.172,-502.005 791.987,-496.013 791.987,-496.013"/>
</g>
<!-- User&#45;&gt;ProductBreakdownStructure -->
<g id="edge26" class="edge"><title>User&#45;&gt;ProductBreakdownStructure</title>
<path fill="none" stroke="#0d3df3" d="M751.899,-369.145C800.669,-358.168 890.401,-337.971 954.33,-323.582"/>
<ellipse fill="none" stroke="#0d3df3" cx="747.958" cy="-370.032" rx="4.00001" ry="4.00001"/>
<polygon fill="#0d3df3" stroke="#0d3df3" points="954.602,-323.52 965.346,-325.715 959.48,-322.423 964.358,-321.325 964.358,-321.325 964.358,-321.325 959.48,-322.423 963.37,-316.934 954.602,-323.52 954.602,-323.52"/>
</g>
<!-- User&#45;&gt;WorkBreakdownStructure -->
<g id="edge27" class="edge"><title>User&#45;&gt;WorkBreakdownStructure</title>
<path fill="none" stroke="#9f61a5" d="M711.283,-351.987C709.971,-346.249 708.571,-340.121 707.238,-334.293"/>
<ellipse fill="none" stroke="#9f61a5" cx="712.236" cy="-356.156" rx="4.00001" ry="4.00001"/>
<polygon fill="#9f61a5" stroke="#9f61a5" points="707.177,-334.024 709.336,-323.273 706.063,-329.15 704.949,-324.275 704.949,-324.275 704.949,-324.275 706.063,-329.15 700.562,-325.278 707.177,-334.024 707.177,-334.024"/>
</g>
<!-- WorkPackage -->
<g id="node16" class="node"><title>WorkPackage</title>
<ellipse fill="none" stroke="black" cx="698" cy="-234" rx="64.1422" ry="18"/>
<text text-anchor="middle" x="698" y="-228.4" font-family="Times,serif" font-size="14.00">WorkPackage</text>
</g>
<!-- User&#45;&gt;WorkPackage -->
<g id="edge28" class="edge"><title>User&#45;&gt;WorkPackage</title>
<path fill="none" stroke="#4f27fd" d="M752.366,-369.376C776.566,-362.119 806.904,-348.53 822,-324 830.386,-310.374 830.814,-301.353 822,-288 808.288,-267.228 784.58,-254.568 761.543,-246.865"/>
<ellipse fill="none" stroke="#4f27fd" cx="748.277" cy="-370.522" rx="4.00001" ry="4.00001"/>
<polygon fill="#4f27fd" stroke="#4f27fd" points="761.302,-246.791 753.062,-239.556 756.522,-245.324 751.742,-243.858 751.742,-243.858 751.742,-243.858 756.522,-245.324 750.422,-248.16 761.302,-246.791 761.302,-246.791"/>
</g>
<!-- WorkBreakdownStructure&#45;&gt;WorkPackage -->
<g id="edge30" class="edge"><title>WorkBreakdownStructure&#45;&gt;WorkPackage</title>
<path fill="none" stroke="#5586ec" d="M699.913,-279.64C699.674,-274.063 699.42,-268.132 699.178,-262.476"/>
<ellipse fill="none" stroke="#5586ec" cx="700.087" cy="-283.7" rx="4" ry="4"/>
<polygon fill="#5586ec" stroke="#5586ec" points="699.161,-262.095 703.229,-251.912 698.947,-257.1 698.733,-252.104 698.733,-252.104 698.733,-252.104 698.947,-257.1 694.237,-252.297 699.161,-262.095 699.161,-262.095"/>
</g>
<!-- WorkPackage&#45;&gt;ResourceAllocationMatrix -->
<g id="edge32" class="edge"><title>WorkPackage&#45;&gt;ResourceAllocationMatrix</title>
<path fill="none" stroke="#1b89a6" d="M698,-207.64C698,-201.348 698,-194.605 698,-188.316"/>
<ellipse fill="none" stroke="#1b89a6" cx="698" cy="-211.697" rx="4" ry="4"/>
<ellipse fill="#1b89a6" stroke="#1b89a6" cx="698" cy="-184.104" rx="4" ry="4"/>
</g>
<!-- WorkPackage&#45;&gt;Iteration -->
<g id="edge33" class="edge"><title>WorkPackage&#45;&gt;Iteration</title>
<path fill="none" stroke="#85178b" d="M654.604,-216.029C625.472,-204.637 587.376,-189.739 558.982,-178.636"/>
<ellipse fill="none" stroke="#85178b" cx="658.482" cy="-217.546" rx="4.00001" ry="4.00001"/>
<polygon fill="#85178b" stroke="#85178b" points="558.688,-178.52 551.013,-170.687 554.031,-176.699 549.374,-174.878 549.374,-174.878 549.374,-174.878 554.031,-176.699 547.735,-179.069 558.688,-178.52 558.688,-178.52"/>
</g>
<!-- Object -->
<g id="node17" class="node"><title>Object</title>
<ellipse fill="none" stroke="black" cx="261" cy="-619" rx="36.1697" ry="18"/>
<text text-anchor="middle" x="261" y="-613.4" font-family="Times,serif" font-size="14.00">Object</text>
</g>
<!-- Object&#45;&gt;Ability -->
<g id="edge1" class="edge"><title>Object&#45;&gt;Ability</title>
<path fill="none" stroke="black" d="M261,-600.576C261,-583.434 261,-557.417 261,-540.314"/>
</g>
<!-- ActiveRecord::Base -->
<g id="node18" class="node"><title>ActiveRecord::Base</title>
<ellipse fill="none" stroke="black" cx="657" cy="-619" rx="88.2033" ry="18"/>
<text text-anchor="middle" x="657" y="-613.4" font-family="Times,serif" font-size="14.00">ActiveRecord::Base</text>
</g>
<!-- ActiveRecord::Base&#45;&gt;Attachment -->
<g id="edge2" class="edge"><title>ActiveRecord::Base&#45;&gt;Attachment</title>
<path fill="none" stroke="black" d="M612.028,-603.468C554.28,-584.808 455.082,-552.754 400.953,-535.264"/>
</g>
<!-- ActiveRecord::Base&#45;&gt;Estimation -->
<g id="edge4" class="edge"><title>ActiveRecord::Base&#45;&gt;Estimation</title>
<path fill="none" stroke="black" d="M609.61,-603.753C547.673,-581.856 447,-533.565 447,-451 447,-451 447,-451 447,-233 447,-186.712 465.196,-134.469 475.715,-108.133"/>
</g>
<!-- ActiveRecord::Base&#45;&gt;Iteration -->
<g id="edge6" class="edge"><title>ActiveRecord::Base&#45;&gt;Iteration</title>
<path fill="none" stroke="black" d="M620.523,-602.392C570.034,-578.044 485,-525.917 485,-451 485,-451 485,-451 485,-305 485,-258.864 502.185,-206.556 512.12,-180.171"/>
</g>
<!-- ActiveRecord::Base&#45;&gt;Milestone -->
<g id="edge8" class="edge"><title>ActiveRecord::Base&#45;&gt;Milestone</title>
<path fill="none" stroke="black" d="M708.193,-604.271C749.912,-591.62 809.203,-570.212 855,-540 885.834,-519.659 914.523,-487.086 930.318,-467.497"/>
</g>
<!-- ActiveRecord::Base&#45;&gt;ProductBreakdownStructure -->
<g id="edge9" class="edge"><title>ActiveRecord::Base&#45;&gt;ProductBreakdownStructure</title>
<path fill="none" stroke="black" d="M735.703,-610.701C886.468,-594.917 1206.95,-552.061 1273,-468 1330.23,-395.162 1182.26,-344.516 1091.93,-321.322"/>
</g>
<!-- ActiveRecord::Base&#45;&gt;Project -->
<g id="edge16" class="edge"><title>ActiveRecord::Base&#45;&gt;Project</title>
<path fill="none" stroke="black" d="M682.958,-601.669C711.965,-583.42 758.44,-554.18 785.816,-536.957"/>
</g>
<!-- ActiveRecord::Base&#45;&gt;Qualification -->
<g id="edge18" class="edge"><title>ActiveRecord::Base&#45;&gt;Qualification</title>
<path fill="none" stroke="black" d="M736.323,-611.01C858.101,-599.686 1098.22,-575.014 1300,-540 1309.6,-538.334 1319.83,-536.235 1329.54,-534.087"/>
</g>
<!-- ActiveRecord::Base&#45;&gt;Resource -->
<g id="edge19" class="edge"><title>ActiveRecord::Base&#45;&gt;Resource</title>
<path fill="none" stroke="black" d="M744.066,-615.835C939.293,-610.083 1398.62,-591.197 1445,-540 1484.7,-496.178 1424.03,-426.315 1392.31,-395.045"/>
</g>
<!-- ActiveRecord::Base&#45;&gt;ResourceAllocationMatrix -->
<g id="edge20" class="edge"><title>ActiveRecord::Base&#45;&gt;ResourceAllocationMatrix</title>
<path fill="none" stroke="black" d="M651.933,-601C635.944,-547.034 587.194,-379.863 580,-324 577.956,-308.131 575.589,-303.38 580,-288 590.403,-251.726 599.258,-243.593 625,-216 638.141,-201.914 655.506,-189.129 670.003,-179.646"/>
</g>
<!-- ActiveRecord::Base&#45;&gt;ResourceBreakdownStructure -->
<g id="edge22" class="edge"><title>ActiveRecord::Base&#45;&gt;ResourceBreakdownStructure</title>
<path fill="none" stroke="black" d="M701.765,-603.332C748.746,-587.862 824.709,-562.641 890,-540 961.744,-515.121 1044.72,-485.085 1094.2,-467.041"/>
</g>
<!-- ActiveRecord::Base&#45;&gt;Role -->
<g id="edge24" class="edge"><title>ActiveRecord::Base&#45;&gt;Role</title>
<path fill="none" stroke="black" d="M660.82,-600.757C667.947,-568.589 683.187,-499.806 690.256,-467.9"/>
</g>
<!-- ActiveRecord::Base&#45;&gt;User -->
<g id="edge29" class="edge"><title>ActiveRecord::Base&#45;&gt;User</title>
<path fill="none" stroke="black" d="M652.344,-600.849C644.059,-566.826 629.947,-489.15 656,-432 664.205,-414.001 681.877,-399.751 696.098,-390.58"/>
</g>
<!-- ActiveRecord::Base&#45;&gt;WorkBreakdownStructure -->
<g id="edge31" class="edge"><title>ActiveRecord::Base&#45;&gt;WorkBreakdownStructure</title>
<path fill="none" stroke="black" d="M651.573,-600.869C646.914,-585.209 640.558,-561.311 638,-540 632.275,-492.309 630.198,-478.56 642,-432 652.377,-391.059 676.373,-347.33 690.356,-323.997"/>
</g>
<!-- ActiveRecord::Base&#45;&gt;WorkPackage -->
<g id="edge34" class="edge"><title>ActiveRecord::Base&#45;&gt;WorkPackage</title>
<path fill="none" stroke="black" d="M630.526,-601.601C591.474,-575.133 523,-519.026 523,-451 523,-451 523,-451 523,-377 523,-308.334 605.246,-267.079 656.97,-247.924"/>
</g>
</g>
</svg>
