<?xml version="1.0" encoding="UTF-8" standalone="no"?>
<!DOCTYPE svg PUBLIC "-//W3C//DTD SVG 1.1//EN"
 "http://www.w3.org/Graphics/SVG/1.1/DTD/svg11.dtd">
<!-- Generated by graphviz version 2.30.1 (20140121.0832)
 -->
<!-- Title: models_diagram Pages: 1 -->
<svg width="1666pt" height="1932pt"
 viewBox="0.00 0.00 1666.00 1932.00" xmlns="http://www.w3.org/2000/svg" xmlns:xlink="http://www.w3.org/1999/xlink">
<g id="graph0" class="graph" transform="scale(1 1) rotate(0) translate(4 1928)">
<title>models_diagram</title>
<polygon fill="white" stroke="white" points="-4,5 -4,-1928 1663,-1928 1663,5 -4,5"/>
<!-- _diagram_info -->
<g id="node1" class="node"><title>_diagram_info</title>
<text text-anchor="start" x="7.31226" y="-1907" font-family="Times,serif" font-size="13.00">Models diagram</text>
<text text-anchor="start" x="7.31226" y="-1891.4" font-family="Times,serif" font-size="13.00">Date: Jan 28 2014 &#45; 13:03</text>
<text text-anchor="start" x="7.31226" y="-1875.8" font-family="Times,serif" font-size="13.00">Migration version: 20140127082636</text>
<text text-anchor="start" x="7.31226" y="-1860.2" font-family="Times,serif" font-size="13.00">Generated by RailRoady 1.1.1</text>
<text text-anchor="start" x="7.31226" y="-1844.6" font-family="Times,serif" font-size="13.00">http://railroady.prestonlee.com</text>
</g>
<!-- Ability -->
<g id="node2" class="node"><title>Ability</title>
<polygon fill="none" stroke="black" points="233.166,-1701.2 233.166,-1750.8 288.834,-1750.8 288.834,-1701.2 233.166,-1701.2"/>
<text text-anchor="middle" x="261" y="-1732.8" font-family="Times,serif" font-size="14.00">Ability</text>
<polyline fill="none" stroke="black" points="233.166,-1726 288.834,-1726 "/>
<text text-anchor="middle" x="261" y="-1708" font-family="Times,serif" font-size="14.00"> </text>
</g>
<!-- Attachment -->
<g id="node3" class="node"><title>Attachment</title>
<path fill="none" stroke="black" d="M319.05,-1650.8C319.05,-1650.8 452.95,-1650.8 452.95,-1650.8 458.95,-1650.8 464.95,-1656.8 464.95,-1662.8 464.95,-1662.8 464.95,-1789.2 464.95,-1789.2 464.95,-1795.2 458.95,-1801.2 452.95,-1801.2 452.95,-1801.2 319.05,-1801.2 319.05,-1801.2 313.05,-1801.2 307.05,-1795.2 307.05,-1789.2 307.05,-1789.2 307.05,-1662.8 307.05,-1662.8 307.05,-1656.8 313.05,-1650.8 319.05,-1650.8"/>
<text text-anchor="middle" x="386" y="-1783.2" font-family="Times,serif" font-size="14.00">Attachment</text>
<polyline fill="none" stroke="black" points="307.05,-1776.4 464.95,-1776.4 "/>
<text text-anchor="start" x="315.05" y="-1758.4" font-family="Times,serif" font-size="14.00">id :integer</text>
<text text-anchor="start" x="315.05" y="-1741.6" font-family="Times,serif" font-size="14.00">created_at :datetime</text>
<text text-anchor="start" x="315.05" y="-1724.8" font-family="Times,serif" font-size="14.00">updated_at :datetime</text>
<text text-anchor="start" x="315.05" y="-1708" font-family="Times,serif" font-size="14.00">file_file_name :string</text>
<text text-anchor="start" x="315.05" y="-1691.2" font-family="Times,serif" font-size="14.00">file_content_type :string</text>
<text text-anchor="start" x="315.05" y="-1674.4" font-family="Times,serif" font-size="14.00">file_file_size :integer</text>
<text text-anchor="start" x="315.05" y="-1657.6" font-family="Times,serif" font-size="14.00">file_updated_at :datetime</text>
</g>
<!-- Estimation -->
<g id="node4" class="node"><title>Estimation</title>
<path fill="none" stroke="black" d="M492.495,-0.8C492.495,-0.8 601.505,-0.8 601.505,-0.8 607.505,-0.8 613.505,-6.8 613.505,-12.8 613.505,-12.8 613.505,-139.2 613.505,-139.2 613.505,-145.2 607.505,-151.2 601.505,-151.2 601.505,-151.2 492.495,-151.2 492.495,-151.2 486.495,-151.2 480.495,-145.2 480.495,-139.2 480.495,-139.2 480.495,-12.8 480.495,-12.8 480.495,-6.8 486.495,-0.8 492.495,-0.8"/>
<text text-anchor="middle" x="547" y="-133.2" font-family="Times,serif" font-size="14.00">Estimation</text>
<polyline fill="none" stroke="black" points="480.495,-126.4 613.505,-126.4 "/>
<text text-anchor="start" x="488.495" y="-108.4" font-family="Times,serif" font-size="14.00">id :integer</text>
<text text-anchor="start" x="488.495" y="-91.6" font-family="Times,serif" font-size="14.00">iteration_id :integer</text>
<text text-anchor="start" x="488.495" y="-74.8" font-family="Times,serif" font-size="14.00">user_id :integer</text>
<text text-anchor="start" x="488.495" y="-58" font-family="Times,serif" font-size="14.00">effort :integer</text>
<text text-anchor="start" x="488.495" y="-41.2" font-family="Times,serif" font-size="14.00">message :text</text>
<text text-anchor="start" x="488.495" y="-24.4" font-family="Times,serif" font-size="14.00">created_at :datetime</text>
<text text-anchor="start" x="488.495" y="-7.6" font-family="Times,serif" font-size="14.00">updated_at :datetime</text>
</g>
<!-- Iteration -->
<g id="node5" class="node"><title>Iteration</title>
<path fill="none" stroke="black" d="M533.112,-205.6C533.112,-205.6 670.888,-205.6 670.888,-205.6 676.888,-205.6 682.888,-211.6 682.888,-217.6 682.888,-217.6 682.888,-310.4 682.888,-310.4 682.888,-316.4 676.888,-322.4 670.888,-322.4 670.888,-322.4 533.112,-322.4 533.112,-322.4 527.112,-322.4 521.112,-316.4 521.112,-310.4 521.112,-310.4 521.112,-217.6 521.112,-217.6 521.112,-211.6 527.112,-205.6 533.112,-205.6"/>
<text text-anchor="middle" x="602" y="-304.4" font-family="Times,serif" font-size="14.00">Iteration</text>
<polyline fill="none" stroke="black" points="521.112,-297.6 682.888,-297.6 "/>
<text text-anchor="start" x="529.112" y="-279.6" font-family="Times,serif" font-size="14.00">id :integer</text>
<text text-anchor="start" x="529.112" y="-262.8" font-family="Times,serif" font-size="14.00">work_package_id :integer</text>
<text text-anchor="start" x="529.112" y="-246" font-family="Times,serif" font-size="14.00">open :boolean</text>
<text text-anchor="start" x="529.112" y="-229.2" font-family="Times,serif" font-size="14.00">created_at :datetime</text>
<text text-anchor="start" x="529.112" y="-212.4" font-family="Times,serif" font-size="14.00">updated_at :datetime</text>
</g>
<!-- Iteration&#45;&gt;Estimation -->
<g id="edge4" class="edge"><title>Iteration&#45;&gt;Estimation</title>
<path fill="none" stroke="#390452" d="M582.693,-197.706C579.203,-185.904 575.519,-173.447 571.897,-161.196"/>
<ellipse fill="none" stroke="#390452" cx="583.84" cy="-201.586" rx="4.00001" ry="4.00001"/>
<polygon fill="#390452" stroke="#390452" points="571.845,-161.021 573.324,-150.155 570.427,-156.226 569.009,-151.431 569.009,-151.431 569.009,-151.431 570.427,-156.226 564.694,-152.707 571.845,-161.021 571.845,-161.021"/>
</g>
<!-- Milestone -->
<g id="node6" class="node"><title>Milestone</title>
<path fill="none" stroke="black" d="M1027.49,-1412C1027.49,-1412 1136.51,-1412 1136.51,-1412 1142.51,-1412 1148.51,-1418 1148.51,-1424 1148.51,-1424 1148.51,-1584 1148.51,-1584 1148.51,-1590 1142.51,-1596 1136.51,-1596 1136.51,-1596 1027.49,-1596 1027.49,-1596 1021.49,-1596 1015.49,-1590 1015.49,-1584 1015.49,-1584 1015.49,-1424 1015.49,-1424 1015.49,-1418 1021.49,-1412 1027.49,-1412"/>
<text text-anchor="middle" x="1082" y="-1578" font-family="Times,serif" font-size="14.00">Milestone</text>
<polyline fill="none" stroke="black" points="1015.49,-1571.2 1148.51,-1571.2 "/>
<text text-anchor="start" x="1023.49" y="-1553.2" font-family="Times,serif" font-size="14.00">id :integer</text>
<text text-anchor="start" x="1023.49" y="-1536.4" font-family="Times,serif" font-size="14.00">name :string</text>
<text text-anchor="start" x="1023.49" y="-1519.6" font-family="Times,serif" font-size="14.00">description :text</text>
<text text-anchor="start" x="1023.49" y="-1502.8" font-family="Times,serif" font-size="14.00">start_date :date</text>
<text text-anchor="start" x="1023.49" y="-1486" font-family="Times,serif" font-size="14.00">end_date :date</text>
<text text-anchor="start" x="1023.49" y="-1469.2" font-family="Times,serif" font-size="14.00">project_id :integer</text>
<text text-anchor="start" x="1023.49" y="-1452.4" font-family="Times,serif" font-size="14.00">user_id :integer</text>
<text text-anchor="start" x="1023.49" y="-1435.6" font-family="Times,serif" font-size="14.00">created_at :datetime</text>
<text text-anchor="start" x="1023.49" y="-1418.8" font-family="Times,serif" font-size="14.00">updated_at :datetime</text>
</g>
<!-- ProductBreakdownStructure -->
<g id="node7" class="node"><title>ProductBreakdownStructure</title>
<path fill="none" stroke="black" d="M993.296,-741C993.296,-741 1144.7,-741 1144.7,-741 1150.7,-741 1156.7,-747 1156.7,-753 1156.7,-753 1156.7,-913 1156.7,-913 1156.7,-919 1150.7,-925 1144.7,-925 1144.7,-925 993.296,-925 993.296,-925 987.296,-925 981.296,-919 981.296,-913 981.296,-913 981.296,-753 981.296,-753 981.296,-747 987.296,-741 993.296,-741"/>
<text text-anchor="middle" x="1069" y="-907" font-family="Times,serif" font-size="14.00">ProductBreakdownStructure</text>
<polyline fill="none" stroke="black" points="981.296,-900.2 1156.7,-900.2 "/>
<text text-anchor="start" x="989.296" y="-882.2" font-family="Times,serif" font-size="14.00">id :integer</text>
<text text-anchor="start" x="989.296" y="-865.4" font-family="Times,serif" font-size="14.00">name :string</text>
<text text-anchor="start" x="989.296" y="-848.6" font-family="Times,serif" font-size="14.00">level :integer</text>
<text text-anchor="start" x="989.296" y="-831.8" font-family="Times,serif" font-size="14.00">parent :integer</text>
<text text-anchor="start" x="989.296" y="-815" font-family="Times,serif" font-size="14.00">order :integer</text>
<text text-anchor="start" x="989.296" y="-798.2" font-family="Times,serif" font-size="14.00">user_id :integer</text>
<text text-anchor="start" x="989.296" y="-781.4" font-family="Times,serif" font-size="14.00">created_at :datetime</text>
<text text-anchor="start" x="989.296" y="-764.6" font-family="Times,serif" font-size="14.00">updated_at :datetime</text>
<text text-anchor="start" x="989.296" y="-747.8" font-family="Times,serif" font-size="14.00">project_id :integer</text>
</g>
<!-- Milestone&#45;&gt;ProductBreakdownStructure -->
<g id="edge6" class="edge"><title>Milestone&#45;&gt;ProductBreakdownStructure</title>
<path fill="none" stroke="#ae8e38" d="M1080.03,-1401.41C1077.57,-1275.21 1073.42,-1061.2 1070.97,-935.193"/>
<polygon fill="#ae8e38" stroke="#ae8e38" points="1080.03,-1401.73 1075.73,-1411.82 1080.13,-1406.73 1080.23,-1411.73 1080.23,-1411.73 1080.23,-1411.73 1080.13,-1406.73 1084.73,-1411.64 1080.03,-1401.73 1080.03,-1401.73"/>
<polygon fill="#ae8e38" stroke="#ae8e38" points="1070.97,-935.151 1075.27,-925.065 1070.87,-930.152 1070.77,-925.153 1070.77,-925.153 1070.77,-925.153 1070.87,-930.152 1066.27,-925.24 1070.97,-935.151 1070.97,-935.151"/>
</g>
<!-- Project -->
<g id="node8" class="node"><title>Project</title>
<path fill="none" stroke="black" d="M875.495,-1650.8C875.495,-1650.8 984.505,-1650.8 984.505,-1650.8 990.505,-1650.8 996.505,-1656.8 996.505,-1662.8 996.505,-1662.8 996.505,-1789.2 996.505,-1789.2 996.505,-1795.2 990.505,-1801.2 984.505,-1801.2 984.505,-1801.2 875.495,-1801.2 875.495,-1801.2 869.495,-1801.2 863.495,-1795.2 863.495,-1789.2 863.495,-1789.2 863.495,-1662.8 863.495,-1662.8 863.495,-1656.8 869.495,-1650.8 875.495,-1650.8"/>
<text text-anchor="middle" x="930" y="-1783.2" font-family="Times,serif" font-size="14.00">Project</text>
<polyline fill="none" stroke="black" points="863.495,-1776.4 996.505,-1776.4 "/>
<text text-anchor="start" x="871.495" y="-1758.4" font-family="Times,serif" font-size="14.00">id :integer</text>
<text text-anchor="start" x="871.495" y="-1741.6" font-family="Times,serif" font-size="14.00">name :string</text>
<text text-anchor="start" x="871.495" y="-1724.8" font-family="Times,serif" font-size="14.00">description :text</text>
<text text-anchor="start" x="871.495" y="-1708" font-family="Times,serif" font-size="14.00">user_id :integer</text>
<text text-anchor="start" x="871.495" y="-1691.2" font-family="Times,serif" font-size="14.00">created_at :datetime</text>
<text text-anchor="start" x="871.495" y="-1674.4" font-family="Times,serif" font-size="14.00">updated_at :datetime</text>
<text text-anchor="start" x="871.495" y="-1657.6" font-family="Times,serif" font-size="14.00">due :datetime</text>
</g>
<!-- Role -->
<g id="node13" class="node"><title>Role</title>
<path fill="none" stroke="black" d="M723.102,-1437.2C723.102,-1437.2 832.898,-1437.2 832.898,-1437.2 838.898,-1437.2 844.898,-1443.2 844.898,-1449.2 844.898,-1449.2 844.898,-1558.8 844.898,-1558.8 844.898,-1564.8 838.898,-1570.8 832.898,-1570.8 832.898,-1570.8 723.102,-1570.8 723.102,-1570.8 717.102,-1570.8 711.102,-1564.8 711.102,-1558.8 711.102,-1558.8 711.102,-1449.2 711.102,-1449.2 711.102,-1443.2 717.102,-1437.2 723.102,-1437.2"/>
<text text-anchor="middle" x="778" y="-1552.8" font-family="Times,serif" font-size="14.00">Role</text>
<polyline fill="none" stroke="black" points="711.102,-1546 844.898,-1546 "/>
<text text-anchor="start" x="719.102" y="-1528" font-family="Times,serif" font-size="14.00">id :integer</text>
<text text-anchor="start" x="719.102" y="-1511.2" font-family="Times,serif" font-size="14.00">name :string</text>
<text text-anchor="start" x="719.102" y="-1494.4" font-family="Times,serif" font-size="14.00">resource_id :integer</text>
<text text-anchor="start" x="719.102" y="-1477.6" font-family="Times,serif" font-size="14.00">resource_type :string</text>
<text text-anchor="start" x="719.102" y="-1460.8" font-family="Times,serif" font-size="14.00">created_at :datetime</text>
<text text-anchor="start" x="719.102" y="-1444" font-family="Times,serif" font-size="14.00">updated_at :datetime</text>
</g>
<!-- Project&#45;&gt;Role -->
<g id="edge9" class="edge"><title>Project&#45;&gt;Role</title>
<path fill="none" stroke="#425a6b" d="M873.902,-1643.8C859.327,-1622.71 843.703,-1600.1 829.385,-1579.37"/>
<ellipse fill="none" stroke="#425a6b" cx="876.266" cy="-1647.23" rx="4.00002" ry="4.00002"/>
<polygon fill="#425a6b" stroke="#425a6b" points="829.231,-1579.15 827.249,-1568.37 826.389,-1575.04 823.547,-1570.92 823.547,-1570.92 823.547,-1570.92 826.389,-1575.04 819.845,-1573.48 829.231,-1579.15 829.231,-1579.15"/>
</g>
<!-- Project&#45;&gt;ProductBreakdownStructure -->
<g id="edge10" class="edge"><title>Project&#45;&gt;ProductBreakdownStructure</title>
<path fill="none" stroke="#6929a6" d="M955.911,-1643.01C958.526,-1633.29 960.964,-1623.46 963,-1614 1014.83,-1373.21 1046.22,-1084.85 1060.26,-935.251"/>
<ellipse fill="none" stroke="#6929a6" cx="954.839" cy="-1646.92" rx="4.00001" ry="4.00001"/>
<polygon fill="#6929a6" stroke="#6929a6" points="1060.27,-935.118 1065.68,-925.579 1060.74,-930.139 1061.2,-925.161 1061.2,-925.161 1061.2,-925.161 1060.74,-930.139 1056.72,-924.743 1060.27,-935.118 1060.27,-935.118"/>
</g>
<!-- WorkBreakdownStructure -->
<g id="node15" class="node"><title>WorkBreakdownStructure</title>
<path fill="none" stroke="black" d="M701.691,-732.6C701.691,-732.6 840.309,-732.6 840.309,-732.6 846.309,-732.6 852.309,-738.6 852.309,-744.6 852.309,-744.6 852.309,-921.4 852.309,-921.4 852.309,-927.4 846.309,-933.4 840.309,-933.4 840.309,-933.4 701.691,-933.4 701.691,-933.4 695.691,-933.4 689.691,-927.4 689.691,-921.4 689.691,-921.4 689.691,-744.6 689.691,-744.6 689.691,-738.6 695.691,-732.6 701.691,-732.6"/>
<text text-anchor="middle" x="771" y="-915.4" font-family="Times,serif" font-size="14.00">WorkBreakdownStructure</text>
<polyline fill="none" stroke="black" points="689.691,-908.6 852.309,-908.6 "/>
<text text-anchor="start" x="697.691" y="-890.6" font-family="Times,serif" font-size="14.00">id :integer</text>
<text text-anchor="start" x="697.691" y="-873.8" font-family="Times,serif" font-size="14.00">name :string</text>
<text text-anchor="start" x="697.691" y="-857" font-family="Times,serif" font-size="14.00">level :integer</text>
<text text-anchor="start" x="697.691" y="-840.2" font-family="Times,serif" font-size="14.00">parent :integer</text>
<text text-anchor="start" x="697.691" y="-823.4" font-family="Times,serif" font-size="14.00">order :integer</text>
<text text-anchor="start" x="697.691" y="-806.6" font-family="Times,serif" font-size="14.00">type :integer</text>
<text text-anchor="start" x="697.691" y="-789.8" font-family="Times,serif" font-size="14.00">project_id :integer</text>
<text text-anchor="start" x="697.691" y="-773" font-family="Times,serif" font-size="14.00">created_at :datetime</text>
<text text-anchor="start" x="697.691" y="-756.2" font-family="Times,serif" font-size="14.00">updated_at :datetime</text>
<text text-anchor="start" x="697.691" y="-739.4" font-family="Times,serif" font-size="14.00">user_id :integer</text>
</g>
<!-- Project&#45;&gt;WorkBreakdownStructure -->
<g id="edge11" class="edge"><title>Project&#45;&gt;WorkBreakdownStructure</title>
<path fill="none" stroke="#06199e" d="M928.928,-1642.29C926.112,-1459.18 916.921,-1030.85 892,-970 884.126,-950.773 872.316,-932.452 859.112,-915.84"/>
<ellipse fill="none" stroke="#06199e" cx="928.993" cy="-1646.56" rx="4" ry="4"/>
<polygon fill="#06199e" stroke="#06199e" points="858.876,-915.553 856.006,-904.969 855.702,-911.689 852.529,-907.826 852.529,-907.826 852.529,-907.826 855.702,-911.689 849.051,-910.682 858.876,-915.553 858.876,-915.553"/>
</g>
<!-- ResourceBreakdownStructure -->
<g id="node12" class="node"><title>ResourceBreakdownStructure</title>
<path fill="none" stroke="black" d="M1178.03,-1395.2C1178.03,-1395.2 1337.97,-1395.2 1337.97,-1395.2 1343.97,-1395.2 1349.97,-1401.2 1349.97,-1407.2 1349.97,-1407.2 1349.97,-1600.8 1349.97,-1600.8 1349.97,-1606.8 1343.97,-1612.8 1337.97,-1612.8 1337.97,-1612.8 1178.03,-1612.8 1178.03,-1612.8 1172.03,-1612.8 1166.03,-1606.8 1166.03,-1600.8 1166.03,-1600.8 1166.03,-1407.2 1166.03,-1407.2 1166.03,-1401.2 1172.03,-1395.2 1178.03,-1395.2"/>
<text text-anchor="middle" x="1258" y="-1594.8" font-family="Times,serif" font-size="14.00">ResourceBreakdownStructure</text>
<polyline fill="none" stroke="black" points="1166.03,-1588 1349.97,-1588 "/>
<text text-anchor="start" x="1174.03" y="-1570" font-family="Times,serif" font-size="14.00">id :integer</text>
<text text-anchor="start" x="1174.03" y="-1553.2" font-family="Times,serif" font-size="14.00">name :string</text>
<text text-anchor="start" x="1174.03" y="-1536.4" font-family="Times,serif" font-size="14.00">level :integer</text>
<text text-anchor="start" x="1174.03" y="-1519.6" font-family="Times,serif" font-size="14.00">parent :integer</text>
<text text-anchor="start" x="1174.03" y="-1502.8" font-family="Times,serif" font-size="14.00">order :integer</text>
<text text-anchor="start" x="1174.03" y="-1486" font-family="Times,serif" font-size="14.00">user_id :integer</text>
<text text-anchor="start" x="1174.03" y="-1469.2" font-family="Times,serif" font-size="14.00">resource :integer</text>
<text text-anchor="start" x="1174.03" y="-1452.4" font-family="Times,serif" font-size="14.00">resource_type :integer</text>
<text text-anchor="start" x="1174.03" y="-1435.6" font-family="Times,serif" font-size="14.00">project_id :integer</text>
<text text-anchor="start" x="1174.03" y="-1418.8" font-family="Times,serif" font-size="14.00">created_at :datetime</text>
<text text-anchor="start" x="1174.03" y="-1402" font-family="Times,serif" font-size="14.00">updated_at :datetime</text>
</g>
<!-- Project&#45;&gt;ResourceBreakdownStructure -->
<g id="edge12" class="edge"><title>Project&#45;&gt;ResourceBreakdownStructure</title>
<path fill="none" stroke="#8d15f6" d="M1004.33,-1696.89C1050.65,-1677.44 1110.14,-1648.83 1157,-1614 1157.28,-1613.79 1157.56,-1613.58 1157.84,-1613.37"/>
<ellipse fill="none" stroke="#8d15f6" cx="1000.41" cy="-1698.52" rx="4.00001" ry="4.00001"/>
<polygon fill="#8d15f6" stroke="#8d15f6" points="1158.07,-1613.19 1168.72,-1610.58 1162.01,-1610.11 1165.95,-1607.03 1165.95,-1607.03 1165.95,-1607.03 1162.01,-1610.11 1163.18,-1603.49 1158.07,-1613.19 1158.07,-1613.19"/>
</g>
<!-- ResourceAllocationMatrix -->
<g id="node11" class="node"><title>ResourceAllocationMatrix</title>
<path fill="none" stroke="black" d="M712.629,-188.8C712.629,-188.8 941.371,-188.8 941.371,-188.8 947.371,-188.8 953.371,-194.8 953.371,-200.8 953.371,-200.8 953.371,-327.2 953.371,-327.2 953.371,-333.2 947.371,-339.2 941.371,-339.2 941.371,-339.2 712.629,-339.2 712.629,-339.2 706.629,-339.2 700.629,-333.2 700.629,-327.2 700.629,-327.2 700.629,-200.8 700.629,-200.8 700.629,-194.8 706.629,-188.8 712.629,-188.8"/>
<text text-anchor="middle" x="827" y="-321.2" font-family="Times,serif" font-size="14.00">ResourceAllocationMatrix</text>
<polyline fill="none" stroke="black" points="700.629,-314.4 953.371,-314.4 "/>
<text text-anchor="start" x="708.629" y="-296.4" font-family="Times,serif" font-size="14.00">id :integer</text>
<text text-anchor="start" x="708.629" y="-279.6" font-family="Times,serif" font-size="14.00">work_package_id :integer</text>
<text text-anchor="start" x="708.629" y="-262.8" font-family="Times,serif" font-size="14.00">resource_breakdown_structure_id :integer</text>
<text text-anchor="start" x="708.629" y="-246" font-family="Times,serif" font-size="14.00">product_breakdown_structure_id :integer</text>
<text text-anchor="start" x="708.629" y="-229.2" font-family="Times,serif" font-size="14.00">project_id :integer</text>
<text text-anchor="start" x="708.629" y="-212.4" font-family="Times,serif" font-size="14.00">created_at :datetime</text>
<text text-anchor="start" x="708.629" y="-195.6" font-family="Times,serif" font-size="14.00">updated_at :datetime</text>
</g>
<!-- Project&#45;&gt;ResourceAllocationMatrix -->
<g id="edge13" class="edge"><title>Project&#45;&gt;ResourceAllocationMatrix</title>
<path fill="none" stroke="#35f35d" d="M934.538,-1642.72C940.159,-1533.57 949,-1334.88 949,-1165 949,-1165 949,-1165 949,-832 949,-628.978 997.967,-564.273 922,-376 918.08,-366.285 912.952,-356.816 907.109,-347.765"/>
<ellipse fill="none" stroke="#35f35d" cx="934.33" cy="-1646.75" rx="4" ry="4"/>
<polygon fill="#35f35d" stroke="#35f35d" points="906.924,-347.493 905.024,-336.693 904.113,-343.358 901.302,-339.223 901.302,-339.223 901.302,-339.223 904.113,-343.358 897.581,-341.752 906.924,-347.493 906.924,-347.493"/>
</g>
<!-- Project&#45;&gt;Milestone -->
<g id="edge14" class="edge"><title>Project&#45;&gt;Milestone</title>
<path fill="none" stroke="#d17ca0" d="M986.022,-1643.91C994.827,-1631.17 1004.02,-1617.87 1013.07,-1604.77"/>
<ellipse fill="none" stroke="#d17ca0" cx="983.734" cy="-1647.23" rx="4.00002" ry="4.00002"/>
<polygon fill="#d17ca0" stroke="#d17ca0" points="1013.31,-1604.42 1022.7,-1598.75 1016.15,-1600.3 1019,-1596.19 1019,-1596.19 1019,-1596.19 1016.15,-1600.3 1015.29,-1593.63 1013.31,-1604.42 1013.31,-1604.42"/>
</g>
<!-- Qualification -->
<g id="node9" class="node"><title>Qualification</title>
<path fill="none" stroke="black" d="M1418.49,-1650.8C1418.49,-1650.8 1527.51,-1650.8 1527.51,-1650.8 1533.51,-1650.8 1539.51,-1656.8 1539.51,-1662.8 1539.51,-1662.8 1539.51,-1789.2 1539.51,-1789.2 1539.51,-1795.2 1533.51,-1801.2 1527.51,-1801.2 1527.51,-1801.2 1418.49,-1801.2 1418.49,-1801.2 1412.49,-1801.2 1406.49,-1795.2 1406.49,-1789.2 1406.49,-1789.2 1406.49,-1662.8 1406.49,-1662.8 1406.49,-1656.8 1412.49,-1650.8 1418.49,-1650.8"/>
<text text-anchor="middle" x="1473" y="-1783.2" font-family="Times,serif" font-size="14.00">Qualification</text>
<polyline fill="none" stroke="black" points="1406.49,-1776.4 1539.51,-1776.4 "/>
<text text-anchor="start" x="1414.49" y="-1758.4" font-family="Times,serif" font-size="14.00">id :integer</text>
<text text-anchor="start" x="1414.49" y="-1741.6" font-family="Times,serif" font-size="14.00">name :string</text>
<text text-anchor="start" x="1414.49" y="-1724.8" font-family="Times,serif" font-size="14.00">experience :string</text>
<text text-anchor="start" x="1414.49" y="-1708" font-family="Times,serif" font-size="14.00">project_id :integer</text>
<text text-anchor="start" x="1414.49" y="-1691.2" font-family="Times,serif" font-size="14.00">user_id :integer</text>
<text text-anchor="start" x="1414.49" y="-1674.4" font-family="Times,serif" font-size="14.00">created_at :datetime</text>
<text text-anchor="start" x="1414.49" y="-1657.6" font-family="Times,serif" font-size="14.00">updated_at :datetime</text>
</g>
<!-- Resource -->
<g id="node10" class="node"><title>Resource</title>
<path fill="none" stroke="black" d="M1417.63,-1072C1417.63,-1072 1646.37,-1072 1646.37,-1072 1652.37,-1072 1658.37,-1078 1658.37,-1084 1658.37,-1084 1658.37,-1244 1658.37,-1244 1658.37,-1250 1652.37,-1256 1646.37,-1256 1646.37,-1256 1417.63,-1256 1417.63,-1256 1411.63,-1256 1405.63,-1250 1405.63,-1244 1405.63,-1244 1405.63,-1084 1405.63,-1084 1405.63,-1078 1411.63,-1072 1417.63,-1072"/>
<text text-anchor="middle" x="1532" y="-1238" font-family="Times,serif" font-size="14.00">Resource</text>
<polyline fill="none" stroke="black" points="1405.63,-1231.2 1658.37,-1231.2 "/>
<text text-anchor="start" x="1413.63" y="-1213.2" font-family="Times,serif" font-size="14.00">id :integer</text>
<text text-anchor="start" x="1413.63" y="-1196.4" font-family="Times,serif" font-size="14.00">qualification_id :integer</text>
<text text-anchor="start" x="1413.63" y="-1179.6" font-family="Times,serif" font-size="14.00">resource_breakdown_structure_id :integer</text>
<text text-anchor="start" x="1413.63" y="-1162.8" font-family="Times,serif" font-size="14.00">count :integer</text>
<text text-anchor="start" x="1413.63" y="-1146" font-family="Times,serif" font-size="14.00">amount :float</text>
<text text-anchor="start" x="1413.63" y="-1129.2" font-family="Times,serif" font-size="14.00">user_id :integer</text>
<text text-anchor="start" x="1413.63" y="-1112.4" font-family="Times,serif" font-size="14.00">project_id :integer</text>
<text text-anchor="start" x="1413.63" y="-1095.6" font-family="Times,serif" font-size="14.00">created_at :datetime</text>
<text text-anchor="start" x="1413.63" y="-1078.8" font-family="Times,serif" font-size="14.00">updated_at :datetime</text>
</g>
<!-- Qualification&#45;&gt;Resource -->
<g id="edge16" class="edge"><title>Qualification&#45;&gt;Resource</title>
<path fill="none" stroke="#1d2661" d="M1481.7,-1642.42C1492.22,-1542.53 1509.94,-1374.4 1521.29,-1266.65"/>
<ellipse fill="none" stroke="#1d2661" cx="1481.25" cy="-1646.66" rx="4" ry="4"/>
<polygon fill="#1d2661" stroke="#1d2661" points="1521.32,-1266.36 1526.84,-1256.88 1521.85,-1261.38 1522.37,-1256.41 1522.37,-1256.41 1522.37,-1256.41 1521.85,-1261.38 1517.89,-1255.94 1521.32,-1266.36 1521.32,-1266.36"/>
</g>
<!-- ResourceBreakdownStructure&#45;&gt;Resource -->
<g id="edge20" class="edge"><title>ResourceBreakdownStructure&#45;&gt;Resource</title>
<path fill="none" stroke="#599688" d="M1350.58,-1388.79C1383.27,-1348.47 1419.73,-1303.49 1451.35,-1264.49"/>
<ellipse fill="none" stroke="#599688" cx="1347.97" cy="-1392.02" rx="4.00002" ry="4.00002"/>
<polygon fill="#599688" stroke="#599688" points="1451.72,-1264.03 1461.52,-1259.09 1454.87,-1260.14 1458.02,-1256.26 1458.02,-1256.26 1458.02,-1256.26 1454.87,-1260.14 1454.53,-1253.42 1451.72,-1264.03 1451.72,-1264.03"/>
</g>
<!-- User -->
<g id="node14" class="node"><title>User</title>
<path fill="none" stroke="black" d="M690.722,-971.2C690.722,-971.2 871.278,-971.2 871.278,-971.2 877.278,-971.2 883.278,-977.2 883.278,-983.2 883.278,-983.2 883.278,-1344.8 883.278,-1344.8 883.278,-1350.8 877.278,-1356.8 871.278,-1356.8 871.278,-1356.8 690.722,-1356.8 690.722,-1356.8 684.722,-1356.8 678.722,-1350.8 678.722,-1344.8 678.722,-1344.8 678.722,-983.2 678.722,-983.2 678.722,-977.2 684.722,-971.2 690.722,-971.2"/>
<text text-anchor="middle" x="781" y="-1338.8" font-family="Times,serif" font-size="14.00">User</text>
<polyline fill="none" stroke="black" points="678.722,-1332 883.278,-1332 "/>
<text text-anchor="start" x="686.722" y="-1314" font-family="Times,serif" font-size="14.00">id :integer</text>
<text text-anchor="start" x="686.722" y="-1297.2" font-family="Times,serif" font-size="14.00">email :string</text>
<text text-anchor="start" x="686.722" y="-1280.4" font-family="Times,serif" font-size="14.00">encrypted_password :string</text>
<text text-anchor="start" x="686.722" y="-1263.6" font-family="Times,serif" font-size="14.00">reset_password_token :string</text>
<text text-anchor="start" x="686.722" y="-1246.8" font-family="Times,serif" font-size="14.00">reset_password_sent_at :datetime</text>
<text text-anchor="start" x="686.722" y="-1230" font-family="Times,serif" font-size="14.00">remember_created_at :datetime</text>
<text text-anchor="start" x="686.722" y="-1213.2" font-family="Times,serif" font-size="14.00">sign_in_count :integer</text>
<text text-anchor="start" x="686.722" y="-1196.4" font-family="Times,serif" font-size="14.00">current_sign_in_at :datetime</text>
<text text-anchor="start" x="686.722" y="-1179.6" font-family="Times,serif" font-size="14.00">last_sign_in_at :datetime</text>
<text text-anchor="start" x="686.722" y="-1162.8" font-family="Times,serif" font-size="14.00">current_sign_in_ip :string</text>
<text text-anchor="start" x="686.722" y="-1146" font-family="Times,serif" font-size="14.00">last_sign_in_ip :string</text>
<text text-anchor="start" x="686.722" y="-1129.2" font-family="Times,serif" font-size="14.00">created_at :datetime</text>
<text text-anchor="start" x="686.722" y="-1112.4" font-family="Times,serif" font-size="14.00">updated_at :datetime</text>
<text text-anchor="start" x="686.722" y="-1095.6" font-family="Times,serif" font-size="14.00">firstname :string</text>
<text text-anchor="start" x="686.722" y="-1078.8" font-family="Times,serif" font-size="14.00">lastname :string</text>
<text text-anchor="start" x="686.722" y="-1062" font-family="Times,serif" font-size="14.00">title :string</text>
<text text-anchor="start" x="686.722" y="-1045.2" font-family="Times,serif" font-size="14.00">phone :string</text>
<text text-anchor="start" x="686.722" y="-1028.4" font-family="Times,serif" font-size="14.00">mobile :string</text>
<text text-anchor="start" x="686.722" y="-1011.6" font-family="Times,serif" font-size="14.00">department :string</text>
<text text-anchor="start" x="686.722" y="-994.8" font-family="Times,serif" font-size="14.00">position :string</text>
<text text-anchor="start" x="686.722" y="-978" font-family="Times,serif" font-size="14.00">location :string</text>
</g>
<!-- Role&#45;&gt;User -->
<g id="edge22" class="edge"><title>Role&#45;&gt;User</title>
<path fill="none" stroke="#7ddb2e" d="M778.676,-1426.85C778.838,-1408.54 779.02,-1388.13 779.207,-1366.99"/>
<polygon fill="#7ddb2e" stroke="#7ddb2e" points="778.674,-1427.03 774.086,-1436.99 778.63,-1432.03 778.586,-1437.03 778.586,-1437.03 778.586,-1437.03 778.63,-1432.03 783.085,-1437.07 778.674,-1427.03 778.674,-1427.03"/>
<polygon fill="#7ddb2e" stroke="#7ddb2e" points="779.208,-1366.9 783.797,-1356.94 779.252,-1361.9 779.297,-1356.9 779.297,-1356.9 779.297,-1356.9 779.252,-1361.9 774.797,-1356.86 779.208,-1366.9 779.208,-1366.9"/>
</g>
<!-- User&#45;&gt;Project -->
<g id="edge24" class="edge"><title>User&#45;&gt;Project</title>
<path fill="none" stroke="#46522a" d="M845.212,-1364.88C847.937,-1374.7 850.55,-1384.44 853,-1394 877.767,-1490.59 872.989,-1517.22 897,-1614 899.169,-1622.74 901.589,-1631.82 904.106,-1640.86"/>
<ellipse fill="none" stroke="#46522a" cx="844.083" cy="-1360.84" rx="4.00001" ry="4.00001"/>
<polygon fill="#46522a" stroke="#46522a" points="904.147,-1641 902.538,-1651.85 905.507,-1645.81 906.868,-1650.62 906.868,-1650.62 906.868,-1650.62 905.507,-1645.81 911.198,-1649.4 904.147,-1641 904.147,-1641"/>
</g>
<!-- User&#45;&gt;ProductBreakdownStructure -->
<g id="edge25" class="edge"><title>User&#45;&gt;ProductBreakdownStructure</title>
<path fill="none" stroke="#25d32f" d="M888.671,-1040C919.643,-1004.62 953.015,-966.497 982.528,-932.782"/>
<ellipse fill="none" stroke="#25d32f" cx="885.984" cy="-1043.07" rx="4.00002" ry="4.00002"/>
<polygon fill="#25d32f" stroke="#25d32f" points="982.569,-932.736 992.541,-928.175 985.862,-928.974 989.155,-925.211 989.155,-925.211 989.155,-925.211 985.862,-928.974 985.769,-922.247 982.569,-932.736 982.569,-932.736"/>
</g>
<!-- User&#45;&gt;WorkBreakdownStructure -->
<g id="edge26" class="edge"><title>User&#45;&gt;WorkBreakdownStructure</title>
<path fill="none" stroke="#69654c" d="M774.923,-963.058C774.727,-956.628 774.534,-950.274 774.345,-944.038"/>
<ellipse fill="none" stroke="#69654c" cx="775.047" cy="-967.145" rx="4" ry="4"/>
<polygon fill="#69654c" stroke="#69654c" points="774.333,-943.658 778.527,-933.525 774.181,-938.66 774.029,-933.662 774.029,-933.662 774.029,-933.662 774.181,-938.66 769.531,-933.799 774.333,-943.658 774.333,-943.658"/>
</g>
<!-- WorkPackage -->
<g id="node16" class="node"><title>WorkPackage</title>
<path fill="none" stroke="black" d="M690.95,-376.8C690.95,-376.8 901.05,-376.8 901.05,-376.8 907.05,-376.8 913.05,-382.8 913.05,-388.8 913.05,-388.8 913.05,-683.2 913.05,-683.2 913.05,-689.2 907.05,-695.2 901.05,-695.2 901.05,-695.2 690.95,-695.2 690.95,-695.2 684.95,-695.2 678.95,-689.2 678.95,-683.2 678.95,-683.2 678.95,-388.8 678.95,-388.8 678.95,-382.8 684.95,-376.8 690.95,-376.8"/>
<text text-anchor="middle" x="796" y="-677.2" font-family="Times,serif" font-size="14.00">WorkPackage</text>
<polyline fill="none" stroke="black" points="678.95,-670.4 913.05,-670.4 "/>
<text text-anchor="start" x="686.95" y="-652.4" font-family="Times,serif" font-size="14.00">id :integer</text>
<text text-anchor="start" x="686.95" y="-635.6" font-family="Times,serif" font-size="14.00">name :string</text>
<text text-anchor="start" x="686.95" y="-618.8" font-family="Times,serif" font-size="14.00">user_id :integer</text>
<text text-anchor="start" x="686.95" y="-602" font-family="Times,serif" font-size="14.00">released_by_id :integer</text>
<text text-anchor="start" x="686.95" y="-585.2" font-family="Times,serif" font-size="14.00">released_on :datetime</text>
<text text-anchor="start" x="686.95" y="-568.4" font-family="Times,serif" font-size="14.00">description :text</text>
<text text-anchor="start" x="686.95" y="-551.6" font-family="Times,serif" font-size="14.00">target :text</text>
<text text-anchor="start" x="686.95" y="-534.8" font-family="Times,serif" font-size="14.00">resources :text</text>
<text text-anchor="start" x="686.95" y="-518" font-family="Times,serif" font-size="14.00">risk :integer</text>
<text text-anchor="start" x="686.95" y="-501.2" font-family="Times,serif" font-size="14.00">work_breakdown_structure_id :integer</text>
<text text-anchor="start" x="686.95" y="-484.4" font-family="Times,serif" font-size="14.00">start :date</text>
<text text-anchor="start" x="686.95" y="-467.6" font-family="Times,serif" font-size="14.00">end :date</text>
<text text-anchor="start" x="686.95" y="-450.8" font-family="Times,serif" font-size="14.00">cost :integer</text>
<text text-anchor="start" x="686.95" y="-434" font-family="Times,serif" font-size="14.00">parent :integer</text>
<text text-anchor="start" x="686.95" y="-417.2" font-family="Times,serif" font-size="14.00">project_id :integer</text>
<text text-anchor="start" x="686.95" y="-400.4" font-family="Times,serif" font-size="14.00">created_at :datetime</text>
<text text-anchor="start" x="686.95" y="-383.6" font-family="Times,serif" font-size="14.00">updated_at :datetime</text>
</g>
<!-- User&#45;&gt;WorkPackage -->
<g id="edge27" class="edge"><title>User&#45;&gt;WorkPackage</title>
<path fill="none" stroke="#6b12b0" d="M855.071,-963.297C857.358,-953.465 859.36,-943.665 861,-934 876.016,-845.487 875.381,-820.619 861,-732 859.562,-723.14 857.78,-714.139 855.734,-705.11"/>
<ellipse fill="none" stroke="#6b12b0" cx="854.111" cy="-967.297" rx="4.00001" ry="4.00001"/>
<polygon fill="#6b12b0" stroke="#6b12b0" points="855.717,-705.037 857.793,-694.27 854.565,-700.172 853.414,-695.306 853.414,-695.306 853.414,-695.306 854.565,-700.172 849.035,-696.342 855.717,-705.037 855.717,-705.037"/>
</g>
<!-- WorkBreakdownStructure&#45;&gt;WorkPackage -->
<g id="edge29" class="edge"><title>WorkBreakdownStructure&#45;&gt;WorkPackage</title>
<path fill="none" stroke="#70bfe1" d="M780.129,-724.282C780.655,-718.069 781.19,-711.754 781.73,-705.386"/>
<ellipse fill="none" stroke="#70bfe1" cx="779.767" cy="-728.552" rx="4" ry="4"/>
<polygon fill="#70bfe1" stroke="#70bfe1" points="781.737,-705.306 787.065,-695.722 782.159,-700.324 782.581,-695.342 782.581,-695.342 782.581,-695.342 782.159,-700.324 778.097,-694.962 781.737,-705.306 781.737,-705.306"/>
</g>
<!-- WorkPackage&#45;&gt;ResourceAllocationMatrix -->
<g id="edge31" class="edge"><title>WorkPackage&#45;&gt;ResourceAllocationMatrix</title>
<path fill="none" stroke="#f17d80" d="M815.099,-368.654C815.929,-361.426 816.744,-354.324 817.535,-347.438"/>
<ellipse fill="none" stroke="#f17d80" cx="814.624" cy="-372.794" rx="4.00001" ry="4.00001"/>
<ellipse fill="#f17d80" stroke="#f17d80" cx="817.995" cy="-343.434" rx="4.00001" ry="4.00001"/>
</g>
<!-- WorkPackage&#45;&gt;Iteration -->
<g id="edge32" class="edge"><title>WorkPackage&#45;&gt;Iteration</title>
<path fill="none" stroke="#3dd197" d="M677.473,-370.04C667.657,-356.378 658.15,-343.147 649.384,-330.946"/>
<ellipse fill="none" stroke="#3dd197" cx="679.974" cy="-373.52" rx="4.00002" ry="4.00002"/>
<polygon fill="#3dd197" stroke="#3dd197" points="649.273,-330.792 647.092,-320.046 646.356,-326.732 643.438,-322.671 643.438,-322.671 643.438,-322.671 646.356,-326.732 639.783,-325.297 649.273,-330.792 649.273,-330.792"/>
</g>
<!-- Object -->
<g id="node17" class="node"><title>Object</title>
<ellipse fill="none" stroke="black" cx="261" cy="-1881" rx="36.1697" ry="18"/>
<text text-anchor="middle" x="261" y="-1875.4" font-family="Times,serif" font-size="14.00">Object</text>
</g>
<!-- Object&#45;&gt;Ability -->
<g id="edge1" class="edge"><title>Object&#45;&gt;Ability</title>
<path fill="none" stroke="black" d="M261,-1862.75C261,-1835.39 261,-1782 261,-1750.95"/>
</g>
<!-- ActiveRecord::Base -->
<g id="node18" class="node"><title>ActiveRecord::Base</title>
<ellipse fill="none" stroke="black" cx="707" cy="-1881" rx="88.2033" ry="18"/>
<text text-anchor="middle" x="707" y="-1875.4" font-family="Times,serif" font-size="14.00">ActiveRecord::Base</text>
</g>
<!-- ActiveRecord::Base&#45;&gt;Attachment -->
<g id="edge2" class="edge"><title>ActiveRecord::Base&#45;&gt;Attachment</title>
<path fill="none" stroke="black" d="M651.783,-1866.92C604.158,-1854.31 534.496,-1832.62 479,-1802 474.369,-1799.45 469.738,-1796.65 465.152,-1793.7"/>
</g>
<!-- ActiveRecord::Base&#45;&gt;Estimation -->
<g id="edge3" class="edge"><title>ActiveRecord::Base&#45;&gt;Estimation</title>
<path fill="none" stroke="black" d="M641.447,-1868.85C601.595,-1858.49 553.282,-1838.85 526,-1802 446.975,-1695.26 493,-1637.81 493,-1505 493,-1505 493,-1505 493,-535 493,-380.547 484.337,-339.956 512,-188 514.189,-175.973 517.299,-163.431 520.771,-151.29"/>
</g>
<!-- ActiveRecord::Base&#45;&gt;Iteration -->
<g id="edge5" class="edge"><title>ActiveRecord::Base&#45;&gt;Iteration</title>
<path fill="none" stroke="black" d="M667.856,-1864.78C640.586,-1852.11 605.695,-1831.37 586,-1802 511.238,-1690.5 531,-1639.24 531,-1505 531,-1505 531,-1505 531,-832 531,-644.5 569.699,-424.807 589.956,-322.654"/>
</g>
<!-- ActiveRecord::Base&#45;&gt;Milestone -->
<g id="edge7" class="edge"><title>ActiveRecord::Base&#45;&gt;Milestone</title>
<path fill="none" stroke="black" d="M777.183,-1869.96C854.849,-1857.46 973.272,-1833.8 1005,-1802 1058.71,-1748.17 1076.46,-1662.02 1081.66,-1596.34"/>
</g>
<!-- ActiveRecord::Base&#45;&gt;ProductBreakdownStructure -->
<g id="edge8" class="edge"><title>ActiveRecord::Base&#45;&gt;ProductBreakdownStructure</title>
<path fill="none" stroke="black" d="M794.392,-1878.06C948.158,-1869.1 1260.08,-1824.63 1358,-1614 1470.55,-1371.9 1269.82,-1072.68 1149.59,-925.107"/>
</g>
<!-- ActiveRecord::Base&#45;&gt;Project -->
<g id="edge15" class="edge"><title>ActiveRecord::Base&#45;&gt;Project</title>
<path fill="none" stroke="black" d="M730.865,-1863.63C762.213,-1842.12 818.528,-1803.48 863.291,-1772.77"/>
</g>
<!-- ActiveRecord::Base&#45;&gt;Qualification -->
<g id="edge17" class="edge"><title>ActiveRecord::Base&#45;&gt;Qualification</title>
<path fill="none" stroke="black" d="M793.203,-1876.85C952.733,-1869.94 1287.29,-1850.04 1392,-1802 1396.88,-1799.76 1401.66,-1797.12 1406.3,-1794.18"/>
</g>
<!-- ActiveRecord::Base&#45;&gt;Resource -->
<g id="edge18" class="edge"><title>ActiveRecord::Base&#45;&gt;Resource</title>
<path fill="none" stroke="black" d="M794.526,-1878.41C999.651,-1873.78 1497.93,-1856.93 1548,-1802 1683.82,-1653 1618.15,-1393.3 1569.04,-1256.04"/>
</g>
<!-- ActiveRecord::Base&#45;&gt;ResourceAllocationMatrix -->
<g id="edge19" class="edge"><title>ActiveRecord::Base&#45;&gt;ResourceAllocationMatrix</title>
<path fill="none" stroke="black" d="M705.346,-1862.9C699.112,-1797.49 677.038,-1556.84 670,-1358 654.561,-921.829 469.353,-763.588 670,-376 677.673,-361.178 688.338,-347.911 700.533,-336.158"/>
</g>
<!-- ActiveRecord::Base&#45;&gt;ResourceBreakdownStructure -->
<g id="edge21" class="edge"><title>ActiveRecord::Base&#45;&gt;ResourceBreakdownStructure</title>
<path fill="none" stroke="black" d="M794.161,-1877.86C868.872,-1872.18 976.404,-1854.52 1054,-1802 1122.77,-1755.45 1175.07,-1677.32 1209.49,-1612.87"/>
</g>
<!-- ActiveRecord::Base&#45;&gt;Role -->
<g id="edge23" class="edge"><title>ActiveRecord::Base&#45;&gt;Role</title>
<path fill="none" stroke="black" d="M710.235,-1862.91C719.866,-1812.05 748.719,-1659.65 765.509,-1570.97"/>
</g>
<!-- ActiveRecord::Base&#45;&gt;User -->
<g id="edge28" class="edge"><title>ActiveRecord::Base&#45;&gt;User</title>
<path fill="none" stroke="black" d="M704.636,-1862.61C696.483,-1799.25 671.657,-1575 702,-1394 704.051,-1381.76 706.679,-1369.31 709.723,-1356.84"/>
</g>
<!-- ActiveRecord::Base&#45;&gt;WorkBreakdownStructure -->
<g id="edge30" class="edge"><title>ActiveRecord::Base&#45;&gt;WorkBreakdownStructure</title>
<path fill="none" stroke="black" d="M700.892,-1862.92C695.616,-1847.29 688.331,-1823.41 685,-1802 628.145,-1436.56 553.876,-1321.13 670,-970 674.71,-955.759 681.551,-941.795 689.488,-928.563"/>
</g>
<!-- ActiveRecord::Base&#45;&gt;WorkPackage -->
<g id="edge33" class="edge"><title>ActiveRecord::Base&#45;&gt;WorkPackage</title>
<path fill="none" stroke="black" d="M693.909,-1863.2C682.557,-1847.95 666.365,-1824.48 656,-1802 598.409,-1677.09 569,-1642.55 569,-1505 569,-1505 569,-1505 569,-1163 569,-965.082 600.122,-912.638 681,-732 686.421,-719.893 692.411,-707.59 698.726,-695.351"/>
</g>
</g>
</svg>
