<?xml version="1.0" encoding="UTF-8" standalone="no"?>
<!DOCTYPE svg PUBLIC "-//W3C//DTD SVG 1.1//EN"
 "http://www.w3.org/Graphics/SVG/1.1/DTD/svg11.dtd">
<!-- Generated by graphviz version 2.30.1 (20140121.0832)
 -->
<!-- Title: models_diagram Pages: 1 -->
<svg width="1504pt" height="454pt"
 viewBox="0.00 0.00 1504.00 454.00" xmlns="http://www.w3.org/2000/svg" xmlns:xlink="http://www.w3.org/1999/xlink">
<g id="graph0" class="graph" transform="scale(1 1) rotate(0) translate(4 450)">
<title>models_diagram</title>
<polygon fill="white" stroke="white" points="-4,5 -4,-450 1501,-450 1501,5 -4,5"/>
<!-- _diagram_info -->
<g id="node1" class="node"><title>_diagram_info</title>
<text text-anchor="start" x="7.31226" y="-429" font-family="Times,serif" font-size="13.00">Models diagram</text>
<text text-anchor="start" x="7.31226" y="-413.4" font-family="Times,serif" font-size="13.00">Date: Jan 21 2014 &#45; 09:43</text>
<text text-anchor="start" x="7.31226" y="-397.8" font-family="Times,serif" font-size="13.00">Migration version: 20140120142538</text>
<text text-anchor="start" x="7.31226" y="-382.2" font-family="Times,serif" font-size="13.00">Generated by RailRoady 1.1.1</text>
<text text-anchor="start" x="7.31226" y="-366.6" font-family="Times,serif" font-size="13.00">http://railroady.prestonlee.com</text>
</g>
<!-- Ability -->
<g id="node2" class="node"><title>Ability</title>
<polygon fill="none" stroke="black" points="288.255,-324 233.745,-324 233.745,-288 288.255,-288 288.255,-324"/>
<text text-anchor="middle" x="261" y="-300.4" font-family="Times,serif" font-size="14.00">Ability</text>
</g>
<!-- Attachment -->
<g id="node3" class="node"><title>Attachment</title>
<ellipse fill="none" stroke="black" cx="363" cy="-306" rx="56.1299" ry="18"/>
<text text-anchor="middle" x="363" y="-300.4" font-family="Times,serif" font-size="14.00">Attachment</text>
</g>
<!-- Milestone -->
<g id="node4" class="node"><title>Milestone</title>
<ellipse fill="none" stroke="black" cx="357" cy="-234" rx="49.4888" ry="18"/>
<text text-anchor="middle" x="357" y="-228.4" font-family="Times,serif" font-size="14.00">Milestone</text>
</g>
<!-- ProductBreakdownStructure -->
<g id="node5" class="node"><title>ProductBreakdownStructure</title>
<ellipse fill="none" stroke="black" cx="258" cy="-162" rx="120.489" ry="18"/>
<text text-anchor="middle" x="258" y="-156.4" font-family="Times,serif" font-size="14.00">ProductBreakdownStructure</text>
</g>
<!-- Milestone&#45;&gt;ProductBreakdownStructure -->
<g id="edge3" class="edge"><title>Milestone&#45;&gt;ProductBreakdownStructure</title>
<path fill="none" stroke="#ccb173" d="M326.836,-211.672C315.16,-203.416 301.781,-193.956 289.941,-185.584"/>
<polygon fill="#ccb173" stroke="#ccb173" points="326.864,-211.691 332.431,-221.139 330.946,-214.578 335.029,-217.465 335.029,-217.465 335.029,-217.465 330.946,-214.578 337.627,-213.79 326.864,-211.691 326.864,-211.691"/>
<polygon fill="#ccb173" stroke="#ccb173" points="289.803,-185.487 284.236,-176.04 285.721,-182.601 281.638,-179.714 281.638,-179.714 281.638,-179.714 285.721,-182.601 279.04,-183.388 289.803,-185.487 289.803,-185.487"/>
</g>
<!-- Project -->
<g id="node6" class="node"><title>Project</title>
<ellipse fill="none" stroke="black" cx="703" cy="-162" rx="38.0859" ry="18"/>
<text text-anchor="middle" x="703" y="-156.4" font-family="Times,serif" font-size="14.00">Project</text>
</g>
<!-- ProjectBreakdownStructure -->
<g id="node17" class="node"><title>ProjectBreakdownStructure</title>
<ellipse fill="none" stroke="black" cx="746" cy="-90" rx="117.958" ry="18"/>
<text text-anchor="middle" x="746" y="-84.4" font-family="Times,serif" font-size="14.00">ProjectBreakdownStructure</text>
</g>
<!-- Project&#45;&gt;ProjectBreakdownStructure -->
<g id="edge6" class="edge"><title>Project&#45;&gt;ProjectBreakdownStructure</title>
<path fill="none" stroke="#3d77c1" d="M717.53,-137.346C721.601,-130.719 726.046,-123.483 730.188,-116.74"/>
<ellipse fill="none" stroke="#3d77c1" cx="715.284" cy="-141.003" rx="4.00002" ry="4.00002"/>
<polygon fill="#3d77c1" stroke="#3d77c1" points="730.35,-116.477 739.418,-110.312 732.967,-112.217 735.584,-107.956 735.584,-107.956 735.584,-107.956 732.967,-112.217 731.75,-105.601 730.35,-116.477 730.35,-116.477"/>
</g>
<!-- WorkBreakdownStructure -->
<g id="node13" class="node"><title>WorkBreakdownStructure</title>
<ellipse fill="none" stroke="black" cx="498" cy="-90" rx="112.256" ry="18"/>
<text text-anchor="middle" x="498" y="-84.4" font-family="Times,serif" font-size="14.00">WorkBreakdownStructure</text>
</g>
<!-- Project&#45;&gt;WorkBreakdownStructure -->
<g id="edge7" class="edge"><title>Project&#45;&gt;WorkBreakdownStructure</title>
<path fill="none" stroke="#712e5c" d="M664.82,-147.963C633.434,-137.246 588.546,-121.918 553.237,-109.862"/>
<ellipse fill="none" stroke="#712e5c" cx="668.966" cy="-149.379" rx="4.00001" ry="4.00001"/>
<polygon fill="#712e5c" stroke="#712e5c" points="553.015,-109.786 545.006,-102.296 548.284,-108.17 543.552,-106.554 543.552,-106.554 543.552,-106.554 548.284,-108.17 542.098,-110.813 553.015,-109.786 553.015,-109.786"/>
</g>
<!-- ResourceBreakdownStructure -->
<g id="node10" class="node"><title>ResourceBreakdownStructure</title>
<ellipse fill="none" stroke="black" cx="1047" cy="-90" rx="126.324" ry="18"/>
<text text-anchor="middle" x="1047" y="-84.4" font-family="Times,serif" font-size="14.00">ResourceBreakdownStructure</text>
</g>
<!-- Project&#45;&gt;ResourceBreakdownStructure -->
<g id="edge8" class="edge"><title>Project&#45;&gt;ResourceBreakdownStructure</title>
<path fill="none" stroke="#7ab41c" d="M745.43,-152.366C800.75,-141.109 898.601,-121.198 967.82,-107.112"/>
<ellipse fill="none" stroke="#7ab41c" cx="741.479" cy="-153.17" rx="4.00001" ry="4.00001"/>
<polygon fill="#7ab41c" stroke="#7ab41c" points="968.017,-107.072 978.713,-109.488 972.916,-106.075 977.816,-105.078 977.816,-105.078 977.816,-105.078 972.916,-106.075 976.919,-100.669 968.017,-107.072 968.017,-107.072"/>
</g>
<!-- Qualification -->
<g id="node7" class="node"><title>Qualification</title>
<ellipse fill="none" stroke="black" cx="1115" cy="-234" rx="61.1861" ry="18"/>
<text text-anchor="middle" x="1115" y="-228.4" font-family="Times,serif" font-size="14.00">Qualification</text>
</g>
<!-- Resource -->
<g id="node8" class="node"><title>Resource</title>
<ellipse fill="none" stroke="black" cx="1202" cy="-18" rx="46.4511" ry="18"/>
<text text-anchor="middle" x="1202" y="-12.4" font-family="Times,serif" font-size="14.00">Resource</text>
</g>
<!-- Qualification&#45;&gt;Resource -->
<g id="edge10" class="edge"><title>Qualification&#45;&gt;Resource</title>
<path fill="none" stroke="#806a6d" d="M1130.35,-209.11C1145.46,-184.609 1168.23,-144.961 1182,-108 1189.5,-87.8728 1194.66,-64.0928 1197.86,-46.1791"/>
<ellipse fill="none" stroke="#806a6d" cx="1128.22" cy="-212.511" rx="4.00002" ry="4.00002"/>
<polygon fill="#806a6d" stroke="#806a6d" points="1197.9,-45.9852 1204,-36.8765 1198.73,-41.0553 1199.57,-36.1255 1199.57,-36.1255 1199.57,-36.1255 1198.73,-41.0553 1195.13,-35.3744 1197.9,-45.9852 1197.9,-45.9852"/>
</g>
<!-- ResourceAllocationMatrix -->
<g id="node9" class="node"><title>ResourceAllocationMatrix</title>
<ellipse fill="none" stroke="black" cx="1382" cy="-306" rx="114.021" ry="18"/>
<text text-anchor="middle" x="1382" y="-300.4" font-family="Times,serif" font-size="14.00">ResourceAllocationMatrix</text>
</g>
<!-- ResourceBreakdownStructure&#45;&gt;Resource -->
<g id="edge14" class="edge"><title>ResourceBreakdownStructure&#45;&gt;Resource</title>
<path fill="none" stroke="#366459" d="M1090.89,-69.1796C1113.68,-58.8873 1141.28,-46.4228 1163.27,-36.4915"/>
<ellipse fill="none" stroke="#366459" cx="1086.99" cy="-70.9417" rx="4.00002" ry="4.00002"/>
<polygon fill="#366459" stroke="#366459" points="1163.52,-36.3801 1174.48,-36.3654 1168.07,-34.3222 1172.63,-32.2642 1172.63,-32.2642 1172.63,-32.2642 1168.07,-34.3222 1170.78,-28.163 1163.52,-36.3801 1163.52,-36.3801"/>
</g>
<!-- Role -->
<g id="node11" class="node"><title>Role</title>
<ellipse fill="none" stroke="black" cx="542" cy="-306" rx="28.9157" ry="18"/>
<text text-anchor="middle" x="542" y="-300.4" font-family="Times,serif" font-size="14.00">Role</text>
</g>
<!-- User -->
<g id="node12" class="node"><title>User</title>
<ellipse fill="none" stroke="black" cx="542" cy="-234" rx="28.9087" ry="18"/>
<text text-anchor="middle" x="542" y="-228.4" font-family="Times,serif" font-size="14.00">User</text>
</g>
<!-- Role&#45;&gt;User -->
<g id="edge16" class="edge"><title>Role&#45;&gt;User</title>
<path fill="none" stroke="#1486af" d="M542,-277.665C542,-272.687 542,-267.491 542,-262.507"/>
<polygon fill="#1486af" stroke="#1486af" points="542,-277.697 537.5,-287.697 542,-282.697 542,-287.697 542,-287.697 542,-287.697 542,-282.697 546.5,-287.697 542,-277.697 542,-277.697"/>
<polygon fill="#1486af" stroke="#1486af" points="542,-262.104 546.5,-252.104 542,-257.104 542,-252.104 542,-252.104 542,-252.104 542,-257.104 537.5,-252.104 542,-262.104 542,-262.104"/>
</g>
<!-- User&#45;&gt;Project -->
<g id="edge18" class="edge"><title>User&#45;&gt;Project</title>
<path fill="none" stroke="#c7adf6" d="M572.684,-219.659C599.375,-208.055 638.105,-191.215 666.405,-178.911"/>
<ellipse fill="none" stroke="#c7adf6" cx="568.736" cy="-221.376" rx="4.00002" ry="4.00002"/>
<polygon fill="#c7adf6" stroke="#c7adf6" points="666.772,-178.751 677.737,-178.891 671.358,-176.758 675.943,-174.764 675.943,-174.764 675.943,-174.764 671.358,-176.758 674.149,-170.637 666.772,-178.751 666.772,-178.751"/>
</g>
<!-- User&#45;&gt;ProductBreakdownStructure -->
<g id="edge19" class="edge"><title>User&#45;&gt;ProductBreakdownStructure</title>
<path fill="none" stroke="#7e6573" d="M511.016,-220.072C507.007,-218.601 502.93,-217.2 499,-216 447.852,-200.375 389.277,-187.385 342.683,-178.177"/>
<ellipse fill="none" stroke="#7e6573" cx="514.847" cy="-221.533" rx="4.00001" ry="4.00001"/>
<polygon fill="#7e6573" stroke="#7e6573" points="342.442,-178.13 333.491,-171.795 337.535,-177.17 332.627,-176.211 332.627,-176.211 332.627,-176.211 337.535,-177.17 331.764,-180.628 342.442,-178.13 342.442,-178.13"/>
</g>
<!-- User&#45;&gt;WorkBreakdownStructure -->
<g id="edge20" class="edge"><title>User&#45;&gt;WorkBreakdownStructure</title>
<path fill="none" stroke="#10dfe3" d="M534.326,-208.233C526.496,-182.964 514.383,-143.872 506.325,-117.869"/>
<ellipse fill="none" stroke="#10dfe3" cx="535.596" cy="-212.332" rx="4.00001" ry="4.00001"/>
<polygon fill="#10dfe3" stroke="#10dfe3" points="506.31,-117.82 507.649,-106.936 504.831,-113.044 503.351,-108.268 503.351,-108.268 503.351,-108.268 504.831,-113.044 499.052,-109.6 506.31,-117.82 506.31,-117.82"/>
</g>
<!-- WorkPackage -->
<g id="node14" class="node"><title>WorkPackage</title>
<ellipse fill="none" stroke="black" cx="498" cy="-18" rx="64.1422" ry="18"/>
<text text-anchor="middle" x="498" y="-12.4" font-family="Times,serif" font-size="14.00">WorkPackage</text>
</g>
<!-- User&#45;&gt;WorkPackage -->
<g id="edge21" class="edge"><title>User&#45;&gt;WorkPackage</title>
<path fill="none" stroke="#b3844b" d="M510.56,-219.947C470.983,-201.58 404.815,-163.968 377,-108 369.879,-93.6719 368.245,-85.3924 377,-72 390.286,-51.6761 413.279,-39.0978 435.677,-31.3346"/>
<ellipse fill="none" stroke="#b3844b" cx="514.458" cy="-221.713" rx="4.00002" ry="4.00002"/>
<polygon fill="#b3844b" stroke="#b3844b" points="435.682,-31.3328 446.577,-32.5809 440.446,-29.8133 445.21,-28.2937 445.21,-28.2937 445.21,-28.2937 440.446,-29.8133 443.842,-24.0066 435.682,-31.3328 435.682,-31.3328"/>
</g>
<!-- WorkBreakdownStructure&#45;&gt;WorkPackage -->
<g id="edge23" class="edge"><title>WorkBreakdownStructure&#45;&gt;WorkPackage</title>
<path fill="none" stroke="#085143" d="M498,-63.6398C498,-58.0629 498,-52.1319 498,-46.4761"/>
<ellipse fill="none" stroke="#085143" cx="498" cy="-67.6966" rx="4" ry="4"/>
<polygon fill="#085143" stroke="#085143" points="498,-46.1043 502.5,-36.1043 498,-41.1043 498,-36.1043 498,-36.1043 498,-36.1043 498,-41.1043 493.5,-36.1044 498,-46.1043 498,-46.1043"/>
</g>
<!-- Object -->
<g id="node15" class="node"><title>Object</title>
<ellipse fill="none" stroke="black" cx="261" cy="-403" rx="36.1697" ry="18"/>
<text text-anchor="middle" x="261" y="-397.4" font-family="Times,serif" font-size="14.00">Object</text>
</g>
<!-- Object&#45;&gt;Ability -->
<g id="edge1" class="edge"><title>Object&#45;&gt;Ability</title>
<path fill="none" stroke="black" d="M261,-384.576C261,-367.434 261,-341.417 261,-324.314"/>
</g>
<!-- ActiveRecord::Base -->
<g id="node16" class="node"><title>ActiveRecord::Base</title>
<ellipse fill="none" stroke="black" cx="656" cy="-403" rx="88.2033" ry="18"/>
<text text-anchor="middle" x="656" y="-397.4" font-family="Times,serif" font-size="14.00">ActiveRecord::Base</text>
</g>
<!-- ActiveRecord::Base&#45;&gt;Attachment -->
<g id="edge2" class="edge"><title>ActiveRecord::Base&#45;&gt;Attachment</title>
<path fill="none" stroke="black" d="M611.181,-387.468C553.79,-368.86 455.319,-336.933 401.275,-319.41"/>
</g>
<!-- ActiveRecord::Base&#45;&gt;Milestone -->
<g id="edge4" class="edge"><title>ActiveRecord::Base&#45;&gt;Milestone</title>
<path fill="none" stroke="black" d="M611.219,-387.373C572.59,-373.778 516.074,-351.512 471,-324 449.725,-311.014 447.55,-303.461 428,-288 411.592,-275.024 392.579,-260.877 378.36,-250.465"/>
</g>
<!-- ActiveRecord::Base&#45;&gt;ProductBreakdownStructure -->
<g id="edge5" class="edge"><title>ActiveRecord::Base&#45;&gt;ProductBreakdownStructure</title>
<path fill="none" stroke="black" d="M616.251,-386.901C583.961,-373.444 538.309,-351.622 504,-324 455.552,-284.995 466.209,-251.302 415,-216 388.354,-197.631 354.808,-185.171 325.571,-176.975"/>
</g>
<!-- ActiveRecord::Base&#45;&gt;Project -->
<g id="edge9" class="edge"><title>ActiveRecord::Base&#45;&gt;Project</title>
<path fill="none" stroke="black" d="M659.38,-384.812C668.052,-340.714 691.012,-223.958 699.651,-180.033"/>
</g>
<!-- ActiveRecord::Base&#45;&gt;Qualification -->
<g id="edge11" class="edge"><title>ActiveRecord::Base&#45;&gt;Qualification</title>
<path fill="none" stroke="black" d="M734.402,-394.536C806.967,-385.318 916.389,-365.442 1003,-324 1041.53,-305.562 1078.85,-271.724 1099.18,-251.503"/>
</g>
<!-- ActiveRecord::Base&#45;&gt;Resource -->
<g id="edge12" class="edge"><title>ActiveRecord::Base&#45;&gt;Resource</title>
<path fill="none" stroke="black" d="M737.203,-395.81C897.67,-381.335 1240,-338.344 1240,-235 1240,-235 1240,-235 1240,-161 1240,-114.553 1220.79,-62.3766 1209.69,-36.0929"/>
</g>
<!-- ActiveRecord::Base&#45;&gt;ResourceAllocationMatrix -->
<g id="edge13" class="edge"><title>ActiveRecord::Base&#45;&gt;ResourceAllocationMatrix</title>
<path fill="none" stroke="black" d="M728.267,-392.629C840.696,-378.038 1064.3,-348.969 1254,-324 1268.22,-322.128 1283.34,-320.129 1298,-318.184"/>
</g>
<!-- ActiveRecord::Base&#45;&gt;ResourceBreakdownStructure -->
<g id="edge15" class="edge"><title>ActiveRecord::Base&#45;&gt;ResourceBreakdownStructure</title>
<path fill="none" stroke="black" d="M730.056,-393.109C783.564,-383.527 855.086,-363.884 906,-324 982.117,-264.373 1026.6,-151.326 1041.42,-108.255"/>
</g>
<!-- ActiveRecord::Base&#45;&gt;Role -->
<g id="edge17" class="edge"><title>ActiveRecord::Base&#45;&gt;Role</title>
<path fill="none" stroke="black" d="M636.143,-385.452C614.198,-367.165 579.244,-338.037 558.668,-320.89"/>
</g>
<!-- ActiveRecord::Base&#45;&gt;User -->
<g id="edge22" class="edge"><title>ActiveRecord::Base&#45;&gt;User</title>
<path fill="none" stroke="black" d="M644.848,-384.882C630.191,-362.473 603.541,-322.042 580,-288 571.242,-275.335 561.065,-261.169 553.448,-250.671"/>
</g>
<!-- ActiveRecord::Base&#45;&gt;WorkBreakdownStructure -->
<g id="edge24" class="edge"><title>ActiveRecord::Base&#45;&gt;WorkBreakdownStructure</title>
<path fill="none" stroke="black" d="M650.176,-384.87C638.588,-351.527 611.063,-275.927 580,-216 562.525,-182.287 554.893,-175.709 534,-144 526.044,-131.925 516.885,-118.446 509.796,-108.104"/>
</g>
<!-- ActiveRecord::Base&#45;&gt;WorkPackage -->
<g id="edge25" class="edge"><title>ActiveRecord::Base&#45;&gt;WorkPackage</title>
<path fill="none" stroke="black" d="M711.63,-388.891C781.402,-368.755 892,-322.963 892,-235 892,-235 892,-235 892,-161 892,-120.553 902.582,-99.5831 873,-72 829.118,-31.0839 657.222,-21.5699 562.134,-19.4796"/>
</g>
</g>
</svg>
