<?xml version="1.0" encoding="UTF-8" standalone="no"?>
<!DOCTYPE svg PUBLIC "-//W3C//DTD SVG 1.1//EN"
 "http://www.w3.org/Graphics/SVG/1.1/DTD/svg11.dtd">
<!-- Generated by graphviz version 2.30.1 (20140121.0832)
 -->
<!-- Title: models_diagram Pages: 1 -->
<svg width="1666pt" height="2004pt"
 viewBox="0.00 0.00 1666.00 2004.00" xmlns="http://www.w3.org/2000/svg" xmlns:xlink="http://www.w3.org/1999/xlink">
<g id="graph0" class="graph" transform="scale(1 1) rotate(0) translate(4 2000)">
<title>models_diagram</title>
<polygon fill="white" stroke="white" points="-4,5 -4,-2000 1663,-2000 1663,5 -4,5"/>
<!-- _diagram_info -->
<g id="node1" class="node"><title>_diagram_info</title>
<text text-anchor="start" x="7.31226" y="-1979" font-family="Times,serif" font-size="13.00">Models diagram</text>
<text text-anchor="start" x="7.31226" y="-1963.4" font-family="Times,serif" font-size="13.00">Date: Jan 28 2014 &#45; 12:55</text>
<text text-anchor="start" x="7.31226" y="-1947.8" font-family="Times,serif" font-size="13.00">Migration version: 20140127082636</text>
<text text-anchor="start" x="7.31226" y="-1932.2" font-family="Times,serif" font-size="13.00">Generated by RailRoady 1.1.1</text>
<text text-anchor="start" x="7.31226" y="-1916.6" font-family="Times,serif" font-size="13.00">http://railroady.prestonlee.com</text>
</g>
<!-- Ability -->
<g id="node2" class="node"><title>Ability</title>
<polygon fill="none" stroke="black" points="233.166,-1773.2 233.166,-1822.8 288.834,-1822.8 288.834,-1773.2 233.166,-1773.2"/>
<text text-anchor="middle" x="261" y="-1804.8" font-family="Times,serif" font-size="14.00">Ability</text>
<polyline fill="none" stroke="black" points="233.166,-1798 288.834,-1798 "/>
<text text-anchor="middle" x="261" y="-1780" font-family="Times,serif" font-size="14.00"> </text>
</g>
<!-- Attachment -->
<g id="node3" class="node"><title>Attachment</title>
<path fill="none" stroke="black" d="M319.05,-1722.8C319.05,-1722.8 452.95,-1722.8 452.95,-1722.8 458.95,-1722.8 464.95,-1728.8 464.95,-1734.8 464.95,-1734.8 464.95,-1861.2 464.95,-1861.2 464.95,-1867.2 458.95,-1873.2 452.95,-1873.2 452.95,-1873.2 319.05,-1873.2 319.05,-1873.2 313.05,-1873.2 307.05,-1867.2 307.05,-1861.2 307.05,-1861.2 307.05,-1734.8 307.05,-1734.8 307.05,-1728.8 313.05,-1722.8 319.05,-1722.8"/>
<text text-anchor="middle" x="386" y="-1855.2" font-family="Times,serif" font-size="14.00">Attachment</text>
<polyline fill="none" stroke="black" points="307.05,-1848.4 464.95,-1848.4 "/>
<text text-anchor="start" x="315.05" y="-1830.4" font-family="Times,serif" font-size="14.00">id :integer</text>
<text text-anchor="start" x="315.05" y="-1813.6" font-family="Times,serif" font-size="14.00">created_at :datetime</text>
<text text-anchor="start" x="315.05" y="-1796.8" font-family="Times,serif" font-size="14.00">updated_at :datetime</text>
<text text-anchor="start" x="315.05" y="-1780" font-family="Times,serif" font-size="14.00">file_file_name :string</text>
<text text-anchor="start" x="315.05" y="-1763.2" font-family="Times,serif" font-size="14.00">file_content_type :string</text>
<text text-anchor="start" x="315.05" y="-1746.4" font-family="Times,serif" font-size="14.00">file_file_size :integer</text>
<text text-anchor="start" x="315.05" y="-1729.6" font-family="Times,serif" font-size="14.00">file_updated_at :datetime</text>
</g>
<!-- Estimation -->
<g id="node4" class="node"><title>Estimation</title>
<path fill="none" stroke="black" d="M492.495,-72.8C492.495,-72.8 601.505,-72.8 601.505,-72.8 607.505,-72.8 613.505,-78.8 613.505,-84.8 613.505,-84.8 613.505,-211.2 613.505,-211.2 613.505,-217.2 607.505,-223.2 601.505,-223.2 601.505,-223.2 492.495,-223.2 492.495,-223.2 486.495,-223.2 480.495,-217.2 480.495,-211.2 480.495,-211.2 480.495,-84.8 480.495,-84.8 480.495,-78.8 486.495,-72.8 492.495,-72.8"/>
<text text-anchor="middle" x="547" y="-205.2" font-family="Times,serif" font-size="14.00">Estimation</text>
<polyline fill="none" stroke="black" points="480.495,-198.4 613.505,-198.4 "/>
<text text-anchor="start" x="488.495" y="-180.4" font-family="Times,serif" font-size="14.00">id :integer</text>
<text text-anchor="start" x="488.495" y="-163.6" font-family="Times,serif" font-size="14.00">iteration_id :integer</text>
<text text-anchor="start" x="488.495" y="-146.8" font-family="Times,serif" font-size="14.00">user_id :integer</text>
<text text-anchor="start" x="488.495" y="-130" font-family="Times,serif" font-size="14.00">effort :integer</text>
<text text-anchor="start" x="488.495" y="-113.2" font-family="Times,serif" font-size="14.00">message :text</text>
<text text-anchor="start" x="488.495" y="-96.4" font-family="Times,serif" font-size="14.00">created_at :datetime</text>
<text text-anchor="start" x="488.495" y="-79.6" font-family="Times,serif" font-size="14.00">updated_at :datetime</text>
</g>
<!-- Comment -->
<g id="node19" class="node"><title>Comment</title>
<ellipse fill="none" stroke="black" cx="547" cy="-18" rx="49.1903" ry="18"/>
<text text-anchor="middle" x="547" y="-12.4" font-family="Times,serif" font-size="14.00">Comment</text>
</g>
<!-- Estimation&#45;&gt;Comment -->
<g id="edge3" class="edge"><title>Estimation&#45;&gt;Comment</title>
<path fill="none" stroke="#7cb9a0" d="M547,-64.3324C547,-58.0543 547,-52.0388 547,-46.5581"/>
<ellipse fill="none" stroke="#7cb9a0" cx="547" cy="-68.5419" rx="4" ry="4"/>
<polygon fill="#7cb9a0" stroke="#7cb9a0" points="547,-46.1464 551.5,-36.1464 547,-41.1464 547,-36.1464 547,-36.1464 547,-36.1464 547,-41.1464 542.5,-36.1465 547,-46.1464 547,-46.1464"/>
</g>
<!-- Iteration -->
<g id="node5" class="node"><title>Iteration</title>
<path fill="none" stroke="black" d="M533.112,-277.6C533.112,-277.6 670.888,-277.6 670.888,-277.6 676.888,-277.6 682.888,-283.6 682.888,-289.6 682.888,-289.6 682.888,-382.4 682.888,-382.4 682.888,-388.4 676.888,-394.4 670.888,-394.4 670.888,-394.4 533.112,-394.4 533.112,-394.4 527.112,-394.4 521.112,-388.4 521.112,-382.4 521.112,-382.4 521.112,-289.6 521.112,-289.6 521.112,-283.6 527.112,-277.6 533.112,-277.6"/>
<text text-anchor="middle" x="602" y="-376.4" font-family="Times,serif" font-size="14.00">Iteration</text>
<polyline fill="none" stroke="black" points="521.112,-369.6 682.888,-369.6 "/>
<text text-anchor="start" x="529.112" y="-351.6" font-family="Times,serif" font-size="14.00">id :integer</text>
<text text-anchor="start" x="529.112" y="-334.8" font-family="Times,serif" font-size="14.00">work_package_id :integer</text>
<text text-anchor="start" x="529.112" y="-318" font-family="Times,serif" font-size="14.00">open :boolean</text>
<text text-anchor="start" x="529.112" y="-301.2" font-family="Times,serif" font-size="14.00">created_at :datetime</text>
<text text-anchor="start" x="529.112" y="-284.4" font-family="Times,serif" font-size="14.00">updated_at :datetime</text>
</g>
<!-- Iteration&#45;&gt;Estimation -->
<g id="edge5" class="edge"><title>Iteration&#45;&gt;Estimation</title>
<path fill="none" stroke="#3e3d82" d="M582.693,-269.706C579.203,-257.904 575.519,-245.447 571.897,-233.196"/>
<ellipse fill="none" stroke="#3e3d82" cx="583.84" cy="-273.586" rx="4.00001" ry="4.00001"/>
<polygon fill="#3e3d82" stroke="#3e3d82" points="571.845,-233.021 573.324,-222.155 570.427,-228.226 569.009,-223.431 569.009,-223.431 569.009,-223.431 570.427,-228.226 564.694,-224.707 571.845,-233.021 571.845,-233.021"/>
</g>
<!-- Milestone -->
<g id="node6" class="node"><title>Milestone</title>
<path fill="none" stroke="black" d="M1027.49,-1484C1027.49,-1484 1136.51,-1484 1136.51,-1484 1142.51,-1484 1148.51,-1490 1148.51,-1496 1148.51,-1496 1148.51,-1656 1148.51,-1656 1148.51,-1662 1142.51,-1668 1136.51,-1668 1136.51,-1668 1027.49,-1668 1027.49,-1668 1021.49,-1668 1015.49,-1662 1015.49,-1656 1015.49,-1656 1015.49,-1496 1015.49,-1496 1015.49,-1490 1021.49,-1484 1027.49,-1484"/>
<text text-anchor="middle" x="1082" y="-1650" font-family="Times,serif" font-size="14.00">Milestone</text>
<polyline fill="none" stroke="black" points="1015.49,-1643.2 1148.51,-1643.2 "/>
<text text-anchor="start" x="1023.49" y="-1625.2" font-family="Times,serif" font-size="14.00">id :integer</text>
<text text-anchor="start" x="1023.49" y="-1608.4" font-family="Times,serif" font-size="14.00">name :string</text>
<text text-anchor="start" x="1023.49" y="-1591.6" font-family="Times,serif" font-size="14.00">description :text</text>
<text text-anchor="start" x="1023.49" y="-1574.8" font-family="Times,serif" font-size="14.00">start_date :date</text>
<text text-anchor="start" x="1023.49" y="-1558" font-family="Times,serif" font-size="14.00">end_date :date</text>
<text text-anchor="start" x="1023.49" y="-1541.2" font-family="Times,serif" font-size="14.00">project_id :integer</text>
<text text-anchor="start" x="1023.49" y="-1524.4" font-family="Times,serif" font-size="14.00">user_id :integer</text>
<text text-anchor="start" x="1023.49" y="-1507.6" font-family="Times,serif" font-size="14.00">created_at :datetime</text>
<text text-anchor="start" x="1023.49" y="-1490.8" font-family="Times,serif" font-size="14.00">updated_at :datetime</text>
</g>
<!-- ProductBreakdownStructure -->
<g id="node7" class="node"><title>ProductBreakdownStructure</title>
<path fill="none" stroke="black" d="M993.296,-813C993.296,-813 1144.7,-813 1144.7,-813 1150.7,-813 1156.7,-819 1156.7,-825 1156.7,-825 1156.7,-985 1156.7,-985 1156.7,-991 1150.7,-997 1144.7,-997 1144.7,-997 993.296,-997 993.296,-997 987.296,-997 981.296,-991 981.296,-985 981.296,-985 981.296,-825 981.296,-825 981.296,-819 987.296,-813 993.296,-813"/>
<text text-anchor="middle" x="1069" y="-979" font-family="Times,serif" font-size="14.00">ProductBreakdownStructure</text>
<polyline fill="none" stroke="black" points="981.296,-972.2 1156.7,-972.2 "/>
<text text-anchor="start" x="989.296" y="-954.2" font-family="Times,serif" font-size="14.00">id :integer</text>
<text text-anchor="start" x="989.296" y="-937.4" font-family="Times,serif" font-size="14.00">name :string</text>
<text text-anchor="start" x="989.296" y="-920.6" font-family="Times,serif" font-size="14.00">level :integer</text>
<text text-anchor="start" x="989.296" y="-903.8" font-family="Times,serif" font-size="14.00">parent :integer</text>
<text text-anchor="start" x="989.296" y="-887" font-family="Times,serif" font-size="14.00">order :integer</text>
<text text-anchor="start" x="989.296" y="-870.2" font-family="Times,serif" font-size="14.00">user_id :integer</text>
<text text-anchor="start" x="989.296" y="-853.4" font-family="Times,serif" font-size="14.00">created_at :datetime</text>
<text text-anchor="start" x="989.296" y="-836.6" font-family="Times,serif" font-size="14.00">updated_at :datetime</text>
<text text-anchor="start" x="989.296" y="-819.8" font-family="Times,serif" font-size="14.00">project_id :integer</text>
</g>
<!-- Milestone&#45;&gt;ProductBreakdownStructure -->
<g id="edge7" class="edge"><title>Milestone&#45;&gt;ProductBreakdownStructure</title>
<path fill="none" stroke="#4f99a4" d="M1080.03,-1473.41C1077.57,-1347.21 1073.42,-1133.2 1070.97,-1007.19"/>
<polygon fill="#4f99a4" stroke="#4f99a4" points="1080.03,-1473.73 1075.73,-1483.82 1080.13,-1478.73 1080.23,-1483.73 1080.23,-1483.73 1080.23,-1483.73 1080.13,-1478.73 1084.73,-1483.64 1080.03,-1473.73 1080.03,-1473.73"/>
<polygon fill="#4f99a4" stroke="#4f99a4" points="1070.97,-1007.15 1075.27,-997.065 1070.87,-1002.15 1070.77,-997.153 1070.77,-997.153 1070.77,-997.153 1070.87,-1002.15 1066.27,-997.24 1070.97,-1007.15 1070.97,-1007.15"/>
</g>
<!-- Project -->
<g id="node8" class="node"><title>Project</title>
<path fill="none" stroke="black" d="M875.495,-1722.8C875.495,-1722.8 984.505,-1722.8 984.505,-1722.8 990.505,-1722.8 996.505,-1728.8 996.505,-1734.8 996.505,-1734.8 996.505,-1861.2 996.505,-1861.2 996.505,-1867.2 990.505,-1873.2 984.505,-1873.2 984.505,-1873.2 875.495,-1873.2 875.495,-1873.2 869.495,-1873.2 863.495,-1867.2 863.495,-1861.2 863.495,-1861.2 863.495,-1734.8 863.495,-1734.8 863.495,-1728.8 869.495,-1722.8 875.495,-1722.8"/>
<text text-anchor="middle" x="930" y="-1855.2" font-family="Times,serif" font-size="14.00">Project</text>
<polyline fill="none" stroke="black" points="863.495,-1848.4 996.505,-1848.4 "/>
<text text-anchor="start" x="871.495" y="-1830.4" font-family="Times,serif" font-size="14.00">id :integer</text>
<text text-anchor="start" x="871.495" y="-1813.6" font-family="Times,serif" font-size="14.00">name :string</text>
<text text-anchor="start" x="871.495" y="-1796.8" font-family="Times,serif" font-size="14.00">description :text</text>
<text text-anchor="start" x="871.495" y="-1780" font-family="Times,serif" font-size="14.00">user_id :integer</text>
<text text-anchor="start" x="871.495" y="-1763.2" font-family="Times,serif" font-size="14.00">created_at :datetime</text>
<text text-anchor="start" x="871.495" y="-1746.4" font-family="Times,serif" font-size="14.00">updated_at :datetime</text>
<text text-anchor="start" x="871.495" y="-1729.6" font-family="Times,serif" font-size="14.00">due :datetime</text>
</g>
<!-- Role -->
<g id="node13" class="node"><title>Role</title>
<path fill="none" stroke="black" d="M723.102,-1509.2C723.102,-1509.2 832.898,-1509.2 832.898,-1509.2 838.898,-1509.2 844.898,-1515.2 844.898,-1521.2 844.898,-1521.2 844.898,-1630.8 844.898,-1630.8 844.898,-1636.8 838.898,-1642.8 832.898,-1642.8 832.898,-1642.8 723.102,-1642.8 723.102,-1642.8 717.102,-1642.8 711.102,-1636.8 711.102,-1630.8 711.102,-1630.8 711.102,-1521.2 711.102,-1521.2 711.102,-1515.2 717.102,-1509.2 723.102,-1509.2"/>
<text text-anchor="middle" x="778" y="-1624.8" font-family="Times,serif" font-size="14.00">Role</text>
<polyline fill="none" stroke="black" points="711.102,-1618 844.898,-1618 "/>
<text text-anchor="start" x="719.102" y="-1600" font-family="Times,serif" font-size="14.00">id :integer</text>
<text text-anchor="start" x="719.102" y="-1583.2" font-family="Times,serif" font-size="14.00">name :string</text>
<text text-anchor="start" x="719.102" y="-1566.4" font-family="Times,serif" font-size="14.00">resource_id :integer</text>
<text text-anchor="start" x="719.102" y="-1549.6" font-family="Times,serif" font-size="14.00">resource_type :string</text>
<text text-anchor="start" x="719.102" y="-1532.8" font-family="Times,serif" font-size="14.00">created_at :datetime</text>
<text text-anchor="start" x="719.102" y="-1516" font-family="Times,serif" font-size="14.00">updated_at :datetime</text>
</g>
<!-- Project&#45;&gt;Role -->
<g id="edge10" class="edge"><title>Project&#45;&gt;Role</title>
<path fill="none" stroke="#4d4599" d="M873.902,-1715.8C859.327,-1694.71 843.703,-1672.1 829.385,-1651.37"/>
<ellipse fill="none" stroke="#4d4599" cx="876.266" cy="-1719.23" rx="4.00002" ry="4.00002"/>
<polygon fill="#4d4599" stroke="#4d4599" points="829.231,-1651.15 827.249,-1640.37 826.389,-1647.04 823.547,-1642.92 823.547,-1642.92 823.547,-1642.92 826.389,-1647.04 819.845,-1645.48 829.231,-1651.15 829.231,-1651.15"/>
</g>
<!-- Project&#45;&gt;ProductBreakdownStructure -->
<g id="edge11" class="edge"><title>Project&#45;&gt;ProductBreakdownStructure</title>
<path fill="none" stroke="#018954" d="M955.911,-1715.01C958.526,-1705.29 960.964,-1695.46 963,-1686 1014.83,-1445.21 1046.22,-1156.85 1060.26,-1007.25"/>
<ellipse fill="none" stroke="#018954" cx="954.839" cy="-1718.92" rx="4.00001" ry="4.00001"/>
<polygon fill="#018954" stroke="#018954" points="1060.27,-1007.12 1065.68,-997.579 1060.74,-1002.14 1061.2,-997.161 1061.2,-997.161 1061.2,-997.161 1060.74,-1002.14 1056.72,-996.743 1060.27,-1007.12 1060.27,-1007.12"/>
</g>
<!-- WorkBreakdownStructure -->
<g id="node15" class="node"><title>WorkBreakdownStructure</title>
<path fill="none" stroke="black" d="M701.691,-804.6C701.691,-804.6 840.309,-804.6 840.309,-804.6 846.309,-804.6 852.309,-810.6 852.309,-816.6 852.309,-816.6 852.309,-993.4 852.309,-993.4 852.309,-999.4 846.309,-1005.4 840.309,-1005.4 840.309,-1005.4 701.691,-1005.4 701.691,-1005.4 695.691,-1005.4 689.691,-999.4 689.691,-993.4 689.691,-993.4 689.691,-816.6 689.691,-816.6 689.691,-810.6 695.691,-804.6 701.691,-804.6"/>
<text text-anchor="middle" x="771" y="-987.4" font-family="Times,serif" font-size="14.00">WorkBreakdownStructure</text>
<polyline fill="none" stroke="black" points="689.691,-980.6 852.309,-980.6 "/>
<text text-anchor="start" x="697.691" y="-962.6" font-family="Times,serif" font-size="14.00">id :integer</text>
<text text-anchor="start" x="697.691" y="-945.8" font-family="Times,serif" font-size="14.00">name :string</text>
<text text-anchor="start" x="697.691" y="-929" font-family="Times,serif" font-size="14.00">level :integer</text>
<text text-anchor="start" x="697.691" y="-912.2" font-family="Times,serif" font-size="14.00">parent :integer</text>
<text text-anchor="start" x="697.691" y="-895.4" font-family="Times,serif" font-size="14.00">order :integer</text>
<text text-anchor="start" x="697.691" y="-878.6" font-family="Times,serif" font-size="14.00">type :integer</text>
<text text-anchor="start" x="697.691" y="-861.8" font-family="Times,serif" font-size="14.00">project_id :integer</text>
<text text-anchor="start" x="697.691" y="-845" font-family="Times,serif" font-size="14.00">created_at :datetime</text>
<text text-anchor="start" x="697.691" y="-828.2" font-family="Times,serif" font-size="14.00">updated_at :datetime</text>
<text text-anchor="start" x="697.691" y="-811.4" font-family="Times,serif" font-size="14.00">user_id :integer</text>
</g>
<!-- Project&#45;&gt;WorkBreakdownStructure -->
<g id="edge12" class="edge"><title>Project&#45;&gt;WorkBreakdownStructure</title>
<path fill="none" stroke="#fcafe3" d="M928.928,-1714.29C926.112,-1531.18 916.921,-1102.85 892,-1042 884.126,-1022.77 872.316,-1004.45 859.112,-987.84"/>
<ellipse fill="none" stroke="#fcafe3" cx="928.993" cy="-1718.56" rx="4" ry="4"/>
<polygon fill="#fcafe3" stroke="#fcafe3" points="858.876,-987.553 856.006,-976.969 855.702,-983.689 852.529,-979.826 852.529,-979.826 852.529,-979.826 855.702,-983.689 849.051,-982.682 858.876,-987.553 858.876,-987.553"/>
</g>
<!-- ResourceBreakdownStructure -->
<g id="node12" class="node"><title>ResourceBreakdownStructure</title>
<path fill="none" stroke="black" d="M1178.03,-1467.2C1178.03,-1467.2 1337.97,-1467.2 1337.97,-1467.2 1343.97,-1467.2 1349.97,-1473.2 1349.97,-1479.2 1349.97,-1479.2 1349.97,-1672.8 1349.97,-1672.8 1349.97,-1678.8 1343.97,-1684.8 1337.97,-1684.8 1337.97,-1684.8 1178.03,-1684.8 1178.03,-1684.8 1172.03,-1684.8 1166.03,-1678.8 1166.03,-1672.8 1166.03,-1672.8 1166.03,-1479.2 1166.03,-1479.2 1166.03,-1473.2 1172.03,-1467.2 1178.03,-1467.2"/>
<text text-anchor="middle" x="1258" y="-1666.8" font-family="Times,serif" font-size="14.00">ResourceBreakdownStructure</text>
<polyline fill="none" stroke="black" points="1166.03,-1660 1349.97,-1660 "/>
<text text-anchor="start" x="1174.03" y="-1642" font-family="Times,serif" font-size="14.00">id :integer</text>
<text text-anchor="start" x="1174.03" y="-1625.2" font-family="Times,serif" font-size="14.00">name :string</text>
<text text-anchor="start" x="1174.03" y="-1608.4" font-family="Times,serif" font-size="14.00">level :integer</text>
<text text-anchor="start" x="1174.03" y="-1591.6" font-family="Times,serif" font-size="14.00">parent :integer</text>
<text text-anchor="start" x="1174.03" y="-1574.8" font-family="Times,serif" font-size="14.00">order :integer</text>
<text text-anchor="start" x="1174.03" y="-1558" font-family="Times,serif" font-size="14.00">user_id :integer</text>
<text text-anchor="start" x="1174.03" y="-1541.2" font-family="Times,serif" font-size="14.00">resource :integer</text>
<text text-anchor="start" x="1174.03" y="-1524.4" font-family="Times,serif" font-size="14.00">resource_type :integer</text>
<text text-anchor="start" x="1174.03" y="-1507.6" font-family="Times,serif" font-size="14.00">project_id :integer</text>
<text text-anchor="start" x="1174.03" y="-1490.8" font-family="Times,serif" font-size="14.00">created_at :datetime</text>
<text text-anchor="start" x="1174.03" y="-1474" font-family="Times,serif" font-size="14.00">updated_at :datetime</text>
</g>
<!-- Project&#45;&gt;ResourceBreakdownStructure -->
<g id="edge13" class="edge"><title>Project&#45;&gt;ResourceBreakdownStructure</title>
<path fill="none" stroke="#0cf7a4" d="M1004.33,-1768.89C1050.65,-1749.44 1110.14,-1720.83 1157,-1686 1157.28,-1685.79 1157.56,-1685.58 1157.84,-1685.37"/>
<ellipse fill="none" stroke="#0cf7a4" cx="1000.41" cy="-1770.52" rx="4.00001" ry="4.00001"/>
<polygon fill="#0cf7a4" stroke="#0cf7a4" points="1158.07,-1685.19 1168.72,-1682.58 1162.01,-1682.11 1165.95,-1679.03 1165.95,-1679.03 1165.95,-1679.03 1162.01,-1682.11 1163.18,-1675.49 1158.07,-1685.19 1158.07,-1685.19"/>
</g>
<!-- ResourceAllocationMatrix -->
<g id="node11" class="node"><title>ResourceAllocationMatrix</title>
<path fill="none" stroke="black" d="M712.629,-260.8C712.629,-260.8 941.371,-260.8 941.371,-260.8 947.371,-260.8 953.371,-266.8 953.371,-272.8 953.371,-272.8 953.371,-399.2 953.371,-399.2 953.371,-405.2 947.371,-411.2 941.371,-411.2 941.371,-411.2 712.629,-411.2 712.629,-411.2 706.629,-411.2 700.629,-405.2 700.629,-399.2 700.629,-399.2 700.629,-272.8 700.629,-272.8 700.629,-266.8 706.629,-260.8 712.629,-260.8"/>
<text text-anchor="middle" x="827" y="-393.2" font-family="Times,serif" font-size="14.00">ResourceAllocationMatrix</text>
<polyline fill="none" stroke="black" points="700.629,-386.4 953.371,-386.4 "/>
<text text-anchor="start" x="708.629" y="-368.4" font-family="Times,serif" font-size="14.00">id :integer</text>
<text text-anchor="start" x="708.629" y="-351.6" font-family="Times,serif" font-size="14.00">work_package_id :integer</text>
<text text-anchor="start" x="708.629" y="-334.8" font-family="Times,serif" font-size="14.00">resource_breakdown_structure_id :integer</text>
<text text-anchor="start" x="708.629" y="-318" font-family="Times,serif" font-size="14.00">product_breakdown_structure_id :integer</text>
<text text-anchor="start" x="708.629" y="-301.2" font-family="Times,serif" font-size="14.00">project_id :integer</text>
<text text-anchor="start" x="708.629" y="-284.4" font-family="Times,serif" font-size="14.00">created_at :datetime</text>
<text text-anchor="start" x="708.629" y="-267.6" font-family="Times,serif" font-size="14.00">updated_at :datetime</text>
</g>
<!-- Project&#45;&gt;ResourceAllocationMatrix -->
<g id="edge14" class="edge"><title>Project&#45;&gt;ResourceAllocationMatrix</title>
<path fill="none" stroke="#10673c" d="M934.538,-1714.72C940.159,-1605.57 949,-1406.88 949,-1237 949,-1237 949,-1237 949,-904 949,-700.978 997.967,-636.273 922,-448 918.08,-438.285 912.952,-428.816 907.109,-419.765"/>
<ellipse fill="none" stroke="#10673c" cx="934.33" cy="-1718.75" rx="4" ry="4"/>
<polygon fill="#10673c" stroke="#10673c" points="906.924,-419.493 905.024,-408.693 904.113,-415.358 901.302,-411.223 901.302,-411.223 901.302,-411.223 904.113,-415.358 897.581,-413.752 906.924,-419.493 906.924,-419.493"/>
</g>
<!-- Project&#45;&gt;Milestone -->
<g id="edge15" class="edge"><title>Project&#45;&gt;Milestone</title>
<path fill="none" stroke="#2de10c" d="M986.022,-1715.91C994.827,-1703.17 1004.02,-1689.87 1013.07,-1676.77"/>
<ellipse fill="none" stroke="#2de10c" cx="983.734" cy="-1719.23" rx="4.00002" ry="4.00002"/>
<polygon fill="#2de10c" stroke="#2de10c" points="1013.31,-1676.42 1022.7,-1670.75 1016.15,-1672.3 1019,-1668.19 1019,-1668.19 1019,-1668.19 1016.15,-1672.3 1015.29,-1665.63 1013.31,-1676.42 1013.31,-1676.42"/>
</g>
<!-- Qualification -->
<g id="node9" class="node"><title>Qualification</title>
<path fill="none" stroke="black" d="M1418.49,-1722.8C1418.49,-1722.8 1527.51,-1722.8 1527.51,-1722.8 1533.51,-1722.8 1539.51,-1728.8 1539.51,-1734.8 1539.51,-1734.8 1539.51,-1861.2 1539.51,-1861.2 1539.51,-1867.2 1533.51,-1873.2 1527.51,-1873.2 1527.51,-1873.2 1418.49,-1873.2 1418.49,-1873.2 1412.49,-1873.2 1406.49,-1867.2 1406.49,-1861.2 1406.49,-1861.2 1406.49,-1734.8 1406.49,-1734.8 1406.49,-1728.8 1412.49,-1722.8 1418.49,-1722.8"/>
<text text-anchor="middle" x="1473" y="-1855.2" font-family="Times,serif" font-size="14.00">Qualification</text>
<polyline fill="none" stroke="black" points="1406.49,-1848.4 1539.51,-1848.4 "/>
<text text-anchor="start" x="1414.49" y="-1830.4" font-family="Times,serif" font-size="14.00">id :integer</text>
<text text-anchor="start" x="1414.49" y="-1813.6" font-family="Times,serif" font-size="14.00">name :string</text>
<text text-anchor="start" x="1414.49" y="-1796.8" font-family="Times,serif" font-size="14.00">experience :string</text>
<text text-anchor="start" x="1414.49" y="-1780" font-family="Times,serif" font-size="14.00">project_id :integer</text>
<text text-anchor="start" x="1414.49" y="-1763.2" font-family="Times,serif" font-size="14.00">user_id :integer</text>
<text text-anchor="start" x="1414.49" y="-1746.4" font-family="Times,serif" font-size="14.00">created_at :datetime</text>
<text text-anchor="start" x="1414.49" y="-1729.6" font-family="Times,serif" font-size="14.00">updated_at :datetime</text>
</g>
<!-- Resource -->
<g id="node10" class="node"><title>Resource</title>
<path fill="none" stroke="black" d="M1417.63,-1144C1417.63,-1144 1646.37,-1144 1646.37,-1144 1652.37,-1144 1658.37,-1150 1658.37,-1156 1658.37,-1156 1658.37,-1316 1658.37,-1316 1658.37,-1322 1652.37,-1328 1646.37,-1328 1646.37,-1328 1417.63,-1328 1417.63,-1328 1411.63,-1328 1405.63,-1322 1405.63,-1316 1405.63,-1316 1405.63,-1156 1405.63,-1156 1405.63,-1150 1411.63,-1144 1417.63,-1144"/>
<text text-anchor="middle" x="1532" y="-1310" font-family="Times,serif" font-size="14.00">Resource</text>
<polyline fill="none" stroke="black" points="1405.63,-1303.2 1658.37,-1303.2 "/>
<text text-anchor="start" x="1413.63" y="-1285.2" font-family="Times,serif" font-size="14.00">id :integer</text>
<text text-anchor="start" x="1413.63" y="-1268.4" font-family="Times,serif" font-size="14.00">qualification_id :integer</text>
<text text-anchor="start" x="1413.63" y="-1251.6" font-family="Times,serif" font-size="14.00">resource_breakdown_structure_id :integer</text>
<text text-anchor="start" x="1413.63" y="-1234.8" font-family="Times,serif" font-size="14.00">count :integer</text>
<text text-anchor="start" x="1413.63" y="-1218" font-family="Times,serif" font-size="14.00">amount :float</text>
<text text-anchor="start" x="1413.63" y="-1201.2" font-family="Times,serif" font-size="14.00">user_id :integer</text>
<text text-anchor="start" x="1413.63" y="-1184.4" font-family="Times,serif" font-size="14.00">project_id :integer</text>
<text text-anchor="start" x="1413.63" y="-1167.6" font-family="Times,serif" font-size="14.00">created_at :datetime</text>
<text text-anchor="start" x="1413.63" y="-1150.8" font-family="Times,serif" font-size="14.00">updated_at :datetime</text>
</g>
<!-- Qualification&#45;&gt;Resource -->
<g id="edge17" class="edge"><title>Qualification&#45;&gt;Resource</title>
<path fill="none" stroke="#816ec3" d="M1481.7,-1714.42C1492.22,-1614.53 1509.94,-1446.4 1521.29,-1338.65"/>
<ellipse fill="none" stroke="#816ec3" cx="1481.25" cy="-1718.66" rx="4" ry="4"/>
<polygon fill="#816ec3" stroke="#816ec3" points="1521.32,-1338.36 1526.84,-1328.88 1521.85,-1333.38 1522.37,-1328.41 1522.37,-1328.41 1522.37,-1328.41 1521.85,-1333.38 1517.89,-1327.94 1521.32,-1338.36 1521.32,-1338.36"/>
</g>
<!-- ResourceBreakdownStructure&#45;&gt;Resource -->
<g id="edge21" class="edge"><title>ResourceBreakdownStructure&#45;&gt;Resource</title>
<path fill="none" stroke="#1f7692" d="M1350.58,-1460.79C1383.27,-1420.47 1419.73,-1375.49 1451.35,-1336.49"/>
<ellipse fill="none" stroke="#1f7692" cx="1347.97" cy="-1464.02" rx="4.00002" ry="4.00002"/>
<polygon fill="#1f7692" stroke="#1f7692" points="1451.72,-1336.03 1461.52,-1331.09 1454.87,-1332.14 1458.02,-1328.26 1458.02,-1328.26 1458.02,-1328.26 1454.87,-1332.14 1454.53,-1325.42 1451.72,-1336.03 1451.72,-1336.03"/>
</g>
<!-- User -->
<g id="node14" class="node"><title>User</title>
<path fill="none" stroke="black" d="M690.722,-1043.2C690.722,-1043.2 871.278,-1043.2 871.278,-1043.2 877.278,-1043.2 883.278,-1049.2 883.278,-1055.2 883.278,-1055.2 883.278,-1416.8 883.278,-1416.8 883.278,-1422.8 877.278,-1428.8 871.278,-1428.8 871.278,-1428.8 690.722,-1428.8 690.722,-1428.8 684.722,-1428.8 678.722,-1422.8 678.722,-1416.8 678.722,-1416.8 678.722,-1055.2 678.722,-1055.2 678.722,-1049.2 684.722,-1043.2 690.722,-1043.2"/>
<text text-anchor="middle" x="781" y="-1410.8" font-family="Times,serif" font-size="14.00">User</text>
<polyline fill="none" stroke="black" points="678.722,-1404 883.278,-1404 "/>
<text text-anchor="start" x="686.722" y="-1386" font-family="Times,serif" font-size="14.00">id :integer</text>
<text text-anchor="start" x="686.722" y="-1369.2" font-family="Times,serif" font-size="14.00">email :string</text>
<text text-anchor="start" x="686.722" y="-1352.4" font-family="Times,serif" font-size="14.00">encrypted_password :string</text>
<text text-anchor="start" x="686.722" y="-1335.6" font-family="Times,serif" font-size="14.00">reset_password_token :string</text>
<text text-anchor="start" x="686.722" y="-1318.8" font-family="Times,serif" font-size="14.00">reset_password_sent_at :datetime</text>
<text text-anchor="start" x="686.722" y="-1302" font-family="Times,serif" font-size="14.00">remember_created_at :datetime</text>
<text text-anchor="start" x="686.722" y="-1285.2" font-family="Times,serif" font-size="14.00">sign_in_count :integer</text>
<text text-anchor="start" x="686.722" y="-1268.4" font-family="Times,serif" font-size="14.00">current_sign_in_at :datetime</text>
<text text-anchor="start" x="686.722" y="-1251.6" font-family="Times,serif" font-size="14.00">last_sign_in_at :datetime</text>
<text text-anchor="start" x="686.722" y="-1234.8" font-family="Times,serif" font-size="14.00">current_sign_in_ip :string</text>
<text text-anchor="start" x="686.722" y="-1218" font-family="Times,serif" font-size="14.00">last_sign_in_ip :string</text>
<text text-anchor="start" x="686.722" y="-1201.2" font-family="Times,serif" font-size="14.00">created_at :datetime</text>
<text text-anchor="start" x="686.722" y="-1184.4" font-family="Times,serif" font-size="14.00">updated_at :datetime</text>
<text text-anchor="start" x="686.722" y="-1167.6" font-family="Times,serif" font-size="14.00">firstname :string</text>
<text text-anchor="start" x="686.722" y="-1150.8" font-family="Times,serif" font-size="14.00">lastname :string</text>
<text text-anchor="start" x="686.722" y="-1134" font-family="Times,serif" font-size="14.00">title :string</text>
<text text-anchor="start" x="686.722" y="-1117.2" font-family="Times,serif" font-size="14.00">phone :string</text>
<text text-anchor="start" x="686.722" y="-1100.4" font-family="Times,serif" font-size="14.00">mobile :string</text>
<text text-anchor="start" x="686.722" y="-1083.6" font-family="Times,serif" font-size="14.00">department :string</text>
<text text-anchor="start" x="686.722" y="-1066.8" font-family="Times,serif" font-size="14.00">position :string</text>
<text text-anchor="start" x="686.722" y="-1050" font-family="Times,serif" font-size="14.00">location :string</text>
</g>
<!-- Role&#45;&gt;User -->
<g id="edge23" class="edge"><title>Role&#45;&gt;User</title>
<path fill="none" stroke="#463fef" d="M778.676,-1498.85C778.838,-1480.54 779.02,-1460.13 779.207,-1438.99"/>
<polygon fill="#463fef" stroke="#463fef" points="778.674,-1499.03 774.086,-1508.99 778.63,-1504.03 778.586,-1509.03 778.586,-1509.03 778.586,-1509.03 778.63,-1504.03 783.085,-1509.07 778.674,-1499.03 778.674,-1499.03"/>
<polygon fill="#463fef" stroke="#463fef" points="779.208,-1438.9 783.797,-1428.94 779.252,-1433.9 779.297,-1428.9 779.297,-1428.9 779.297,-1428.9 779.252,-1433.9 774.797,-1428.86 779.208,-1438.9 779.208,-1438.9"/>
</g>
<!-- User&#45;&gt;Project -->
<g id="edge25" class="edge"><title>User&#45;&gt;Project</title>
<path fill="none" stroke="#ecb618" d="M845.212,-1436.88C847.937,-1446.7 850.55,-1456.44 853,-1466 877.767,-1562.59 872.989,-1589.22 897,-1686 899.169,-1694.74 901.589,-1703.82 904.106,-1712.86"/>
<ellipse fill="none" stroke="#ecb618" cx="844.083" cy="-1432.84" rx="4.00001" ry="4.00001"/>
<polygon fill="#ecb618" stroke="#ecb618" points="904.147,-1713 902.538,-1723.85 905.507,-1717.81 906.868,-1722.62 906.868,-1722.62 906.868,-1722.62 905.507,-1717.81 911.198,-1721.4 904.147,-1713 904.147,-1713"/>
</g>
<!-- User&#45;&gt;ProductBreakdownStructure -->
<g id="edge26" class="edge"><title>User&#45;&gt;ProductBreakdownStructure</title>
<path fill="none" stroke="#971402" d="M888.671,-1112C919.643,-1076.62 953.015,-1038.5 982.528,-1004.78"/>
<ellipse fill="none" stroke="#971402" cx="885.984" cy="-1115.07" rx="4.00002" ry="4.00002"/>
<polygon fill="#971402" stroke="#971402" points="982.569,-1004.74 992.541,-1000.18 985.862,-1000.97 989.155,-997.211 989.155,-997.211 989.155,-997.211 985.862,-1000.97 985.769,-994.247 982.569,-1004.74 982.569,-1004.74"/>
</g>
<!-- User&#45;&gt;WorkBreakdownStructure -->
<g id="edge27" class="edge"><title>User&#45;&gt;WorkBreakdownStructure</title>
<path fill="none" stroke="#89292b" d="M774.923,-1035.06C774.727,-1028.63 774.534,-1022.27 774.345,-1016.04"/>
<ellipse fill="none" stroke="#89292b" cx="775.047" cy="-1039.15" rx="4" ry="4"/>
<polygon fill="#89292b" stroke="#89292b" points="774.333,-1015.66 778.527,-1005.53 774.181,-1010.66 774.029,-1005.66 774.029,-1005.66 774.029,-1005.66 774.181,-1010.66 769.531,-1005.8 774.333,-1015.66 774.333,-1015.66"/>
</g>
<!-- WorkPackage -->
<g id="node16" class="node"><title>WorkPackage</title>
<path fill="none" stroke="black" d="M690.95,-448.8C690.95,-448.8 901.05,-448.8 901.05,-448.8 907.05,-448.8 913.05,-454.8 913.05,-460.8 913.05,-460.8 913.05,-755.2 913.05,-755.2 913.05,-761.2 907.05,-767.2 901.05,-767.2 901.05,-767.2 690.95,-767.2 690.95,-767.2 684.95,-767.2 678.95,-761.2 678.95,-755.2 678.95,-755.2 678.95,-460.8 678.95,-460.8 678.95,-454.8 684.95,-448.8 690.95,-448.8"/>
<text text-anchor="middle" x="796" y="-749.2" font-family="Times,serif" font-size="14.00">WorkPackage</text>
<polyline fill="none" stroke="black" points="678.95,-742.4 913.05,-742.4 "/>
<text text-anchor="start" x="686.95" y="-724.4" font-family="Times,serif" font-size="14.00">id :integer</text>
<text text-anchor="start" x="686.95" y="-707.6" font-family="Times,serif" font-size="14.00">name :string</text>
<text text-anchor="start" x="686.95" y="-690.8" font-family="Times,serif" font-size="14.00">user_id :integer</text>
<text text-anchor="start" x="686.95" y="-674" font-family="Times,serif" font-size="14.00">released_by_id :integer</text>
<text text-anchor="start" x="686.95" y="-657.2" font-family="Times,serif" font-size="14.00">released_on :datetime</text>
<text text-anchor="start" x="686.95" y="-640.4" font-family="Times,serif" font-size="14.00">description :text</text>
<text text-anchor="start" x="686.95" y="-623.6" font-family="Times,serif" font-size="14.00">target :text</text>
<text text-anchor="start" x="686.95" y="-606.8" font-family="Times,serif" font-size="14.00">resources :text</text>
<text text-anchor="start" x="686.95" y="-590" font-family="Times,serif" font-size="14.00">risk :integer</text>
<text text-anchor="start" x="686.95" y="-573.2" font-family="Times,serif" font-size="14.00">work_breakdown_structure_id :integer</text>
<text text-anchor="start" x="686.95" y="-556.4" font-family="Times,serif" font-size="14.00">start :date</text>
<text text-anchor="start" x="686.95" y="-539.6" font-family="Times,serif" font-size="14.00">end :date</text>
<text text-anchor="start" x="686.95" y="-522.8" font-family="Times,serif" font-size="14.00">cost :integer</text>
<text text-anchor="start" x="686.95" y="-506" font-family="Times,serif" font-size="14.00">parent :integer</text>
<text text-anchor="start" x="686.95" y="-489.2" font-family="Times,serif" font-size="14.00">project_id :integer</text>
<text text-anchor="start" x="686.95" y="-472.4" font-family="Times,serif" font-size="14.00">created_at :datetime</text>
<text text-anchor="start" x="686.95" y="-455.6" font-family="Times,serif" font-size="14.00">updated_at :datetime</text>
</g>
<!-- User&#45;&gt;WorkPackage -->
<g id="edge28" class="edge"><title>User&#45;&gt;WorkPackage</title>
<path fill="none" stroke="#5a2d5a" d="M855.071,-1035.3C857.358,-1025.47 859.36,-1015.66 861,-1006 876.016,-917.487 875.381,-892.619 861,-804 859.562,-795.14 857.78,-786.139 855.734,-777.11"/>
<ellipse fill="none" stroke="#5a2d5a" cx="854.111" cy="-1039.3" rx="4.00001" ry="4.00001"/>
<polygon fill="#5a2d5a" stroke="#5a2d5a" points="855.717,-777.037 857.793,-766.27 854.565,-772.172 853.414,-767.306 853.414,-767.306 853.414,-767.306 854.565,-772.172 849.035,-768.342 855.717,-777.037 855.717,-777.037"/>
</g>
<!-- WorkBreakdownStructure&#45;&gt;WorkPackage -->
<g id="edge30" class="edge"><title>WorkBreakdownStructure&#45;&gt;WorkPackage</title>
<path fill="none" stroke="#e6626a" d="M780.129,-796.282C780.655,-790.069 781.19,-783.754 781.73,-777.386"/>
<ellipse fill="none" stroke="#e6626a" cx="779.767" cy="-800.552" rx="4" ry="4"/>
<polygon fill="#e6626a" stroke="#e6626a" points="781.737,-777.306 787.065,-767.722 782.159,-772.324 782.581,-767.342 782.581,-767.342 782.581,-767.342 782.159,-772.324 778.097,-766.962 781.737,-777.306 781.737,-777.306"/>
</g>
<!-- WorkPackage&#45;&gt;ResourceAllocationMatrix -->
<g id="edge32" class="edge"><title>WorkPackage&#45;&gt;ResourceAllocationMatrix</title>
<path fill="none" stroke="#555e0c" d="M815.099,-440.654C815.929,-433.426 816.744,-426.324 817.535,-419.438"/>
<ellipse fill="none" stroke="#555e0c" cx="814.624" cy="-444.794" rx="4.00001" ry="4.00001"/>
<ellipse fill="#555e0c" stroke="#555e0c" cx="817.995" cy="-415.434" rx="4.00001" ry="4.00001"/>
</g>
<!-- WorkPackage&#45;&gt;Iteration -->
<g id="edge33" class="edge"><title>WorkPackage&#45;&gt;Iteration</title>
<path fill="none" stroke="#665af5" d="M677.473,-442.04C667.657,-428.378 658.15,-415.147 649.384,-402.946"/>
<ellipse fill="none" stroke="#665af5" cx="679.974" cy="-445.52" rx="4.00002" ry="4.00002"/>
<polygon fill="#665af5" stroke="#665af5" points="649.273,-402.792 647.092,-392.046 646.356,-398.732 643.438,-394.671 643.438,-394.671 643.438,-394.671 646.356,-398.732 639.783,-397.297 649.273,-402.792 649.273,-402.792"/>
</g>
<!-- Object -->
<g id="node17" class="node"><title>Object</title>
<ellipse fill="none" stroke="black" cx="261" cy="-1953" rx="36.1697" ry="18"/>
<text text-anchor="middle" x="261" y="-1947.4" font-family="Times,serif" font-size="14.00">Object</text>
</g>
<!-- Object&#45;&gt;Ability -->
<g id="edge1" class="edge"><title>Object&#45;&gt;Ability</title>
<path fill="none" stroke="black" d="M261,-1934.75C261,-1907.39 261,-1854 261,-1822.95"/>
</g>
<!-- ActiveRecord::Base -->
<g id="node18" class="node"><title>ActiveRecord::Base</title>
<ellipse fill="none" stroke="black" cx="707" cy="-1953" rx="88.2033" ry="18"/>
<text text-anchor="middle" x="707" y="-1947.4" font-family="Times,serif" font-size="14.00">ActiveRecord::Base</text>
</g>
<!-- ActiveRecord::Base&#45;&gt;Attachment -->
<g id="edge2" class="edge"><title>ActiveRecord::Base&#45;&gt;Attachment</title>
<path fill="none" stroke="black" d="M651.783,-1938.92C604.158,-1926.31 534.496,-1904.62 479,-1874 474.369,-1871.45 469.738,-1868.65 465.152,-1865.7"/>
</g>
<!-- ActiveRecord::Base&#45;&gt;Estimation -->
<g id="edge4" class="edge"><title>ActiveRecord::Base&#45;&gt;Estimation</title>
<path fill="none" stroke="black" d="M641.447,-1940.85C601.595,-1930.49 553.282,-1910.85 526,-1874 446.975,-1767.26 493,-1709.81 493,-1577 493,-1577 493,-1577 493,-607 493,-452.547 484.337,-411.956 512,-260 514.189,-247.973 517.299,-235.431 520.771,-223.29"/>
</g>
<!-- ActiveRecord::Base&#45;&gt;Iteration -->
<g id="edge6" class="edge"><title>ActiveRecord::Base&#45;&gt;Iteration</title>
<path fill="none" stroke="black" d="M667.856,-1936.78C640.586,-1924.11 605.695,-1903.37 586,-1874 511.238,-1762.5 531,-1711.24 531,-1577 531,-1577 531,-1577 531,-904 531,-716.5 569.699,-496.807 589.956,-394.654"/>
</g>
<!-- ActiveRecord::Base&#45;&gt;Milestone -->
<g id="edge8" class="edge"><title>ActiveRecord::Base&#45;&gt;Milestone</title>
<path fill="none" stroke="black" d="M777.183,-1941.96C854.849,-1929.46 973.272,-1905.8 1005,-1874 1058.71,-1820.17 1076.46,-1734.02 1081.66,-1668.34"/>
</g>
<!-- ActiveRecord::Base&#45;&gt;ProductBreakdownStructure -->
<g id="edge9" class="edge"><title>ActiveRecord::Base&#45;&gt;ProductBreakdownStructure</title>
<path fill="none" stroke="black" d="M794.392,-1950.06C948.158,-1941.1 1260.08,-1896.63 1358,-1686 1470.55,-1443.9 1269.82,-1144.68 1149.59,-997.107"/>
</g>
<!-- ActiveRecord::Base&#45;&gt;Project -->
<g id="edge16" class="edge"><title>ActiveRecord::Base&#45;&gt;Project</title>
<path fill="none" stroke="black" d="M730.865,-1935.63C762.213,-1914.12 818.528,-1875.48 863.291,-1844.77"/>
</g>
<!-- ActiveRecord::Base&#45;&gt;Qualification -->
<g id="edge18" class="edge"><title>ActiveRecord::Base&#45;&gt;Qualification</title>
<path fill="none" stroke="black" d="M793.203,-1948.85C952.733,-1941.94 1287.29,-1922.04 1392,-1874 1396.88,-1871.76 1401.66,-1869.12 1406.3,-1866.18"/>
</g>
<!-- ActiveRecord::Base&#45;&gt;Resource -->
<g id="edge19" class="edge"><title>ActiveRecord::Base&#45;&gt;Resource</title>
<path fill="none" stroke="black" d="M794.526,-1950.41C999.651,-1945.78 1497.93,-1928.93 1548,-1874 1683.82,-1725 1618.15,-1465.3 1569.04,-1328.04"/>
</g>
<!-- ActiveRecord::Base&#45;&gt;ResourceAllocationMatrix -->
<g id="edge20" class="edge"><title>ActiveRecord::Base&#45;&gt;ResourceAllocationMatrix</title>
<path fill="none" stroke="black" d="M705.346,-1934.9C699.112,-1869.49 677.038,-1628.84 670,-1430 654.561,-993.829 469.353,-835.588 670,-448 677.673,-433.178 688.338,-419.911 700.533,-408.158"/>
</g>
<!-- ActiveRecord::Base&#45;&gt;ResourceBreakdownStructure -->
<g id="edge22" class="edge"><title>ActiveRecord::Base&#45;&gt;ResourceBreakdownStructure</title>
<path fill="none" stroke="black" d="M794.161,-1949.86C868.872,-1944.18 976.404,-1926.52 1054,-1874 1122.77,-1827.45 1175.07,-1749.32 1209.49,-1684.87"/>
</g>
<!-- ActiveRecord::Base&#45;&gt;Role -->
<g id="edge24" class="edge"><title>ActiveRecord::Base&#45;&gt;Role</title>
<path fill="none" stroke="black" d="M710.235,-1934.91C719.866,-1884.05 748.719,-1731.65 765.509,-1642.97"/>
</g>
<!-- ActiveRecord::Base&#45;&gt;User -->
<g id="edge29" class="edge"><title>ActiveRecord::Base&#45;&gt;User</title>
<path fill="none" stroke="black" d="M704.636,-1934.61C696.483,-1871.25 671.657,-1647 702,-1466 704.051,-1453.76 706.679,-1441.31 709.723,-1428.84"/>
</g>
<!-- ActiveRecord::Base&#45;&gt;WorkBreakdownStructure -->
<g id="edge31" class="edge"><title>ActiveRecord::Base&#45;&gt;WorkBreakdownStructure</title>
<path fill="none" stroke="black" d="M700.892,-1934.92C695.616,-1919.29 688.331,-1895.41 685,-1874 628.145,-1508.56 553.876,-1393.13 670,-1042 674.71,-1027.76 681.551,-1013.8 689.488,-1000.56"/>
</g>
<!-- ActiveRecord::Base&#45;&gt;WorkPackage -->
<g id="edge34" class="edge"><title>ActiveRecord::Base&#45;&gt;WorkPackage</title>
<path fill="none" stroke="black" d="M693.909,-1935.2C682.557,-1919.95 666.365,-1896.48 656,-1874 598.409,-1749.09 569,-1714.55 569,-1577 569,-1577 569,-1577 569,-1235 569,-1037.08 600.122,-984.638 681,-804 686.421,-791.893 692.411,-779.59 698.726,-767.351"/>
</g>
</g>
</svg>
