<?xml version="1.0" encoding="UTF-8" standalone="no"?>
<!DOCTYPE svg PUBLIC "-//W3C//DTD SVG 1.1//EN"
 "http://www.w3.org/Graphics/SVG/1.1/DTD/svg11.dtd">
<!-- Generated by graphviz version 2.30.1 (20140121.0832)
 -->
<!-- Title: models_diagram Pages: 1 -->
<svg width="1466pt" height="598pt"
 viewBox="0.00 0.00 1466.28 598.00" xmlns="http://www.w3.org/2000/svg" xmlns:xlink="http://www.w3.org/1999/xlink">
<g id="graph0" class="graph" transform="scale(1 1) rotate(0) translate(4 594)">
<title>models_diagram</title>
<polygon fill="white" stroke="white" points="-4,5 -4,-594 1463.28,-594 1463.28,5 -4,5"/>
<!-- _diagram_info -->
<g id="node1" class="node"><title>_diagram_info</title>
<text text-anchor="start" x="7.31226" y="-573" font-family="Times,serif" font-size="13.00">Models diagram</text>
<text text-anchor="start" x="7.31226" y="-557.4" font-family="Times,serif" font-size="13.00">Date: Jan 28 2014 &#45; 13:03</text>
<text text-anchor="start" x="7.31226" y="-541.8" font-family="Times,serif" font-size="13.00">Migration version: 20140127082636</text>
<text text-anchor="start" x="7.31226" y="-526.2" font-family="Times,serif" font-size="13.00">Generated by RailRoady 1.1.1</text>
<text text-anchor="start" x="7.31226" y="-510.6" font-family="Times,serif" font-size="13.00">http://railroady.prestonlee.com</text>
</g>
<!-- Ability -->
<g id="node2" class="node"><title>Ability</title>
<polygon fill="none" stroke="black" points="288.255,-468 233.745,-468 233.745,-432 288.255,-432 288.255,-468"/>
<text text-anchor="middle" x="261" y="-444.4" font-family="Times,serif" font-size="14.00">Ability</text>
</g>
<!-- Attachment -->
<g id="node3" class="node"><title>Attachment</title>
<ellipse fill="none" stroke="black" cx="363" cy="-450" rx="56.1299" ry="18"/>
<text text-anchor="middle" x="363" y="-444.4" font-family="Times,serif" font-size="14.00">Attachment</text>
</g>
<!-- Estimation -->
<g id="node4" class="node"><title>Estimation</title>
<ellipse fill="none" stroke="black" cx="483" cy="-18" rx="52.3215" ry="18"/>
<text text-anchor="middle" x="483" y="-12.4" font-family="Times,serif" font-size="14.00">Estimation</text>
</g>
<!-- Iteration -->
<g id="node5" class="node"><title>Iteration</title>
<ellipse fill="none" stroke="black" cx="519" cy="-90" rx="43.6191" ry="18"/>
<text text-anchor="middle" x="519" y="-84.4" font-family="Times,serif" font-size="14.00">Iteration</text>
</g>
<!-- Iteration&#45;&gt;Estimation -->
<g id="edge4" class="edge"><title>Iteration&#45;&gt;Estimation</title>
<path fill="none" stroke="#6a3275" d="M506.51,-64.7144C503.212,-58.3016 499.641,-51.3577 496.302,-44.8648"/>
<ellipse fill="none" stroke="#6a3275" cx="508.456" cy="-68.4978" rx="4.00002" ry="4.00002"/>
<polygon fill="#6a3275" stroke="#6a3275" points="496.208,-44.6819 495.636,-33.7309 493.921,-40.2354 491.634,-35.789 491.634,-35.789 491.634,-35.789 493.921,-40.2354 487.633,-37.8471 496.208,-44.6819 496.208,-44.6819"/>
</g>
<!-- Milestone -->
<g id="node6" class="node"><title>Milestone</title>
<ellipse fill="none" stroke="black" cx="943" cy="-378" rx="49.4888" ry="18"/>
<text text-anchor="middle" x="943" y="-372.4" font-family="Times,serif" font-size="14.00">Milestone</text>
</g>
<!-- ProductBreakdownStructure -->
<g id="node7" class="node"><title>ProductBreakdownStructure</title>
<ellipse fill="none" stroke="black" cx="1028" cy="-234" rx="120.489" ry="18"/>
<text text-anchor="middle" x="1028" y="-228.4" font-family="Times,serif" font-size="14.00">ProductBreakdownStructure</text>
</g>
<!-- Milestone&#45;&gt;ProductBreakdownStructure -->
<g id="edge6" class="edge"><title>Milestone&#45;&gt;ProductBreakdownStructure</title>
<path fill="none" stroke="#1c0a8a" d="M958.269,-351.492C973.557,-325.952 996.966,-286.846 1012.38,-261.099"/>
<polygon fill="#1c0a8a" stroke="#1c0a8a" points="958.221,-351.573 949.223,-357.842 955.652,-355.863 953.084,-360.153 953.084,-360.153 953.084,-360.153 955.652,-355.863 956.946,-362.464 958.221,-351.573 958.221,-351.573"/>
<polygon fill="#1c0a8a" stroke="#1c0a8a" points="1012.53,-260.848 1021.52,-254.579 1015.1,-256.558 1017.66,-252.268 1017.66,-252.268 1017.66,-252.268 1015.1,-256.558 1013.8,-249.957 1012.53,-260.848 1012.53,-260.848"/>
</g>
<!-- Project -->
<g id="node8" class="node"><title>Project</title>
<ellipse fill="none" stroke="black" cx="808" cy="-450" rx="38.0859" ry="18"/>
<text text-anchor="middle" x="808" y="-444.4" font-family="Times,serif" font-size="14.00">Project</text>
</g>
<!-- Role -->
<g id="node13" class="node"><title>Role</title>
<ellipse fill="none" stroke="black" cx="694" cy="-378" rx="28.9157" ry="18"/>
<text text-anchor="middle" x="694" y="-372.4" font-family="Times,serif" font-size="14.00">Role</text>
</g>
<!-- Project&#45;&gt;Role -->
<g id="edge9" class="edge"><title>Project&#45;&gt;Role</title>
<path fill="none" stroke="#c734ad" d="M778.837,-431.093C761.665,-420.549 740.026,-407.261 722.9,-396.746"/>
<ellipse fill="none" stroke="#c734ad" cx="782.34" cy="-433.244" rx="4.00002" ry="4.00002"/>
<polygon fill="#c734ad" stroke="#c734ad" points="722.429,-396.456 716.262,-387.389 718.168,-393.84 713.907,-391.224 713.907,-391.224 713.907,-391.224 718.168,-393.84 711.552,-395.058 722.429,-396.456 722.429,-396.456"/>
</g>
<!-- Project&#45;&gt;ProductBreakdownStructure -->
<g id="edge10" class="edge"><title>Project&#45;&gt;ProductBreakdownStructure</title>
<path fill="none" stroke="#c4ba3a" d="M825.638,-426.519C840.511,-408.022 862.718,-381.456 884,-360 921.506,-322.189 968.74,-282.536 998.664,-258.289"/>
<ellipse fill="none" stroke="#c4ba3a" cx="823.002" cy="-429.818" rx="4.00002" ry="4.00002"/>
<polygon fill="#c4ba3a" stroke="#c4ba3a" points="998.838,-258.149 1009.45,-255.376 1002.73,-255.011 1006.62,-251.873 1006.62,-251.873 1006.62,-251.873 1002.73,-255.011 1003.8,-248.369 998.838,-258.149 998.838,-258.149"/>
</g>
<!-- WorkBreakdownStructure -->
<g id="node15" class="node"><title>WorkBreakdownStructure</title>
<ellipse fill="none" stroke="black" cx="701" cy="-234" rx="112.256" ry="18"/>
<text text-anchor="middle" x="701" y="-228.4" font-family="Times,serif" font-size="14.00">WorkBreakdownStructure</text>
</g>
<!-- Project&#45;&gt;WorkBreakdownStructure -->
<g id="edge11" class="edge"><title>Project&#45;&gt;WorkBreakdownStructure</title>
<path fill="none" stroke="#f3ef41" d="M803.541,-423.646C796.878,-390.512 782.105,-331.584 755,-288 748.279,-277.194 738.912,-266.977 729.864,-258.45"/>
<ellipse fill="none" stroke="#f3ef41" cx="804.375" cy="-427.954" rx="4.00001" ry="4.00001"/>
<polygon fill="#f3ef41" stroke="#f3ef41" points="729.824,-258.413 725.421,-248.37 726.114,-255.061 722.404,-251.709 722.404,-251.709 722.404,-251.709 726.114,-255.061 719.387,-255.048 729.824,-258.413 729.824,-258.413"/>
</g>
<!-- ResourceBreakdownStructure -->
<g id="node12" class="node"><title>ResourceBreakdownStructure</title>
<ellipse fill="none" stroke="black" cx="1138" cy="-378" rx="126.324" ry="18"/>
<text text-anchor="middle" x="1138" y="-372.4" font-family="Times,serif" font-size="14.00">ResourceBreakdownStructure</text>
</g>
<!-- Project&#45;&gt;ResourceBreakdownStructure -->
<g id="edge12" class="edge"><title>Project&#45;&gt;ResourceBreakdownStructure</title>
<path fill="none" stroke="#cfbcb3" d="M849.966,-440.098C902.935,-428.862 995.065,-409.32 1060.87,-395.361"/>
<ellipse fill="none" stroke="#cfbcb3" cx="845.986" cy="-440.942" rx="4.00001" ry="4.00001"/>
<polygon fill="#cfbcb3" stroke="#cfbcb3" points="1061,-395.333 1071.72,-397.66 1065.89,-394.295 1070.79,-393.258 1070.79,-393.258 1070.79,-393.258 1065.89,-394.295 1069.85,-388.855 1061,-395.333 1061,-395.333"/>
</g>
<!-- ResourceAllocationMatrix -->
<g id="node11" class="node"><title>ResourceAllocationMatrix</title>
<ellipse fill="none" stroke="black" cx="698" cy="-90" rx="114.021" ry="18"/>
<text text-anchor="middle" x="698" y="-84.4" font-family="Times,serif" font-size="14.00">ResourceAllocationMatrix</text>
</g>
<!-- Project&#45;&gt;ResourceAllocationMatrix -->
<g id="edge13" class="edge"><title>Project&#45;&gt;ResourceAllocationMatrix</title>
<path fill="none" stroke="#9cf224" d="M819.14,-424.668C837.389,-381.162 868.878,-287.869 840,-216 821.228,-169.281 774.017,-133.69 739.16,-112.654"/>
<ellipse fill="none" stroke="#9cf224" cx="817.484" cy="-428.521" rx="4.00002" ry="4.00002"/>
<polygon fill="#9cf224" stroke="#9cf224" points="738.767,-112.423 732.416,-103.484 734.453,-109.894 730.14,-107.365 730.14,-107.365 730.14,-107.365 734.453,-109.894 727.864,-111.247 738.767,-112.423 738.767,-112.423"/>
</g>
<!-- Project&#45;&gt;Milestone -->
<g id="edge14" class="edge"><title>Project&#45;&gt;Milestone</title>
<path fill="none" stroke="#d9e2a1" d="M839.943,-432.437C859.906,-422.086 885.677,-408.723 906.454,-397.95"/>
<ellipse fill="none" stroke="#d9e2a1" cx="836.312" cy="-434.32" rx="4.00002" ry="4.00002"/>
<polygon fill="#d9e2a1" stroke="#d9e2a1" points="906.732,-397.806 917.681,-397.197 911.171,-395.504 915.61,-393.202 915.61,-393.202 915.61,-393.202 911.171,-395.504 913.538,-389.208 906.732,-397.806 906.732,-397.806"/>
</g>
<!-- Qualification -->
<g id="node9" class="node"><title>Qualification</title>
<ellipse fill="none" stroke="black" cx="1375" cy="-450" rx="61.1861" ry="18"/>
<text text-anchor="middle" x="1375" y="-444.4" font-family="Times,serif" font-size="14.00">Qualification</text>
</g>
<!-- Resource -->
<g id="node10" class="node"><title>Resource</title>
<ellipse fill="none" stroke="black" cx="1375" cy="-306" rx="46.4511" ry="18"/>
<text text-anchor="middle" x="1375" y="-300.4" font-family="Times,serif" font-size="14.00">Resource</text>
</g>
<!-- Qualification&#45;&gt;Resource -->
<g id="edge16" class="edge"><title>Qualification&#45;&gt;Resource</title>
<path fill="none" stroke="#b540ba" d="M1375,-423.558C1375,-398.444 1375,-360.164 1375,-334.393"/>
<ellipse fill="none" stroke="#b540ba" cx="1375" cy="-427.871" rx="4" ry="4"/>
<polygon fill="#b540ba" stroke="#b540ba" points="1375,-334.189 1379.5,-324.189 1375,-329.189 1375,-324.189 1375,-324.189 1375,-324.189 1375,-329.189 1370.5,-324.189 1375,-334.189 1375,-334.189"/>
</g>
<!-- ResourceBreakdownStructure&#45;&gt;Resource -->
<g id="edge20" class="edge"><title>ResourceBreakdownStructure&#45;&gt;Resource</title>
<path fill="none" stroke="#e2a128" d="M1198.14,-359.236C1238.95,-347.184 1292.05,-331.5 1329.38,-320.474"/>
<ellipse fill="none" stroke="#e2a128" cx="1194.14" cy="-360.418" rx="4.00001" ry="4.00001"/>
<polygon fill="#e2a128" stroke="#e2a128" points="1329.4,-320.468 1340.26,-321.951 1334.19,-319.052 1338.99,-317.636 1338.99,-317.636 1338.99,-317.636 1334.19,-319.052 1337.72,-313.32 1329.4,-320.468 1329.4,-320.468"/>
</g>
<!-- User -->
<g id="node14" class="node"><title>User</title>
<ellipse fill="none" stroke="black" cx="717" cy="-306" rx="28.9087" ry="18"/>
<text text-anchor="middle" x="717" y="-300.4" font-family="Times,serif" font-size="14.00">User</text>
</g>
<!-- Role&#45;&gt;User -->
<g id="edge22" class="edge"><title>Role&#45;&gt;User</title>
<path fill="none" stroke="#6d06ba" d="M702.732,-350.426C704.568,-344.837 706.504,-338.944 708.338,-333.363"/>
<polygon fill="#6d06ba" stroke="#6d06ba" points="702.689,-350.555 695.293,-358.65 701.128,-355.305 699.568,-360.055 699.568,-360.055 699.568,-360.055 701.128,-355.305 703.843,-361.46 702.689,-350.555 702.689,-350.555"/>
<polygon fill="#6d06ba" stroke="#6d06ba" points="708.362,-333.289 715.759,-325.194 709.923,-328.539 711.484,-323.789 711.484,-323.789 711.484,-323.789 709.923,-328.539 707.208,-322.384 708.362,-333.289 708.362,-333.289"/>
</g>
<!-- User&#45;&gt;Project -->
<g id="edge24" class="edge"><title>User&#45;&gt;Project</title>
<path fill="none" stroke="#d335c9" d="M731.62,-329.814C748.057,-355.463 774.676,-396.999 791.752,-423.645"/>
<ellipse fill="none" stroke="#d335c9" cx="729.428" cy="-326.394" rx="4.00002" ry="4.00002"/>
<polygon fill="#d335c9" stroke="#d335c9" points="791.987,-424.013 793.594,-434.861 794.685,-428.223 797.383,-432.433 797.383,-432.433 797.383,-432.433 794.685,-428.223 801.172,-430.005 791.987,-424.013 791.987,-424.013"/>
</g>
<!-- User&#45;&gt;ProductBreakdownStructure -->
<g id="edge25" class="edge"><title>User&#45;&gt;ProductBreakdownStructure</title>
<path fill="none" stroke="#3d8441" d="M751.899,-297.145C800.669,-286.168 890.401,-265.971 954.33,-251.582"/>
<ellipse fill="none" stroke="#3d8441" cx="747.958" cy="-298.032" rx="4.00001" ry="4.00001"/>
<polygon fill="#3d8441" stroke="#3d8441" points="954.602,-251.52 965.346,-253.715 959.48,-250.423 964.358,-249.325 964.358,-249.325 964.358,-249.325 959.48,-250.423 963.37,-244.934 954.602,-251.52 954.602,-251.52"/>
</g>
<!-- User&#45;&gt;WorkBreakdownStructure -->
<g id="edge26" class="edge"><title>User&#45;&gt;WorkBreakdownStructure</title>
<path fill="none" stroke="#16b7a5" d="M711.283,-279.987C709.971,-274.249 708.571,-268.121 707.238,-262.293"/>
<ellipse fill="none" stroke="#16b7a5" cx="712.236" cy="-284.156" rx="4.00001" ry="4.00001"/>
<polygon fill="#16b7a5" stroke="#16b7a5" points="707.177,-262.024 709.336,-251.273 706.063,-257.15 704.949,-252.275 704.949,-252.275 704.949,-252.275 706.063,-257.15 700.562,-253.278 707.177,-262.024 707.177,-262.024"/>
</g>
<!-- WorkPackage -->
<g id="node16" class="node"><title>WorkPackage</title>
<ellipse fill="none" stroke="black" cx="698" cy="-162" rx="64.1422" ry="18"/>
<text text-anchor="middle" x="698" y="-156.4" font-family="Times,serif" font-size="14.00">WorkPackage</text>
</g>
<!-- User&#45;&gt;WorkPackage -->
<g id="edge27" class="edge"><title>User&#45;&gt;WorkPackage</title>
<path fill="none" stroke="#8f6f2a" d="M752.366,-297.376C776.566,-290.119 806.904,-276.53 822,-252 830.386,-238.374 830.814,-229.353 822,-216 808.288,-195.228 784.58,-182.568 761.543,-174.865"/>
<ellipse fill="none" stroke="#8f6f2a" cx="748.277" cy="-298.522" rx="4.00001" ry="4.00001"/>
<polygon fill="#8f6f2a" stroke="#8f6f2a" points="761.302,-174.791 753.062,-167.556 756.522,-173.324 751.742,-171.858 751.742,-171.858 751.742,-171.858 756.522,-173.324 750.422,-176.16 761.302,-174.791 761.302,-174.791"/>
</g>
<!-- WorkBreakdownStructure&#45;&gt;WorkPackage -->
<g id="edge29" class="edge"><title>WorkBreakdownStructure&#45;&gt;WorkPackage</title>
<path fill="none" stroke="#3d6926" d="M699.913,-207.64C699.674,-202.063 699.42,-196.132 699.178,-190.476"/>
<ellipse fill="none" stroke="#3d6926" cx="700.087" cy="-211.7" rx="4" ry="4"/>
<polygon fill="#3d6926" stroke="#3d6926" points="699.161,-190.095 703.229,-179.912 698.947,-185.1 698.733,-180.104 698.733,-180.104 698.733,-180.104 698.947,-185.1 694.237,-180.297 699.161,-190.095 699.161,-190.095"/>
</g>
<!-- WorkPackage&#45;&gt;ResourceAllocationMatrix -->
<g id="edge31" class="edge"><title>WorkPackage&#45;&gt;ResourceAllocationMatrix</title>
<path fill="none" stroke="#b76c4c" d="M698,-135.64C698,-129.348 698,-122.605 698,-116.316"/>
<ellipse fill="none" stroke="#b76c4c" cx="698" cy="-139.697" rx="4" ry="4"/>
<ellipse fill="#b76c4c" stroke="#b76c4c" cx="698" cy="-112.104" rx="4" ry="4"/>
</g>
<!-- WorkPackage&#45;&gt;Iteration -->
<g id="edge32" class="edge"><title>WorkPackage&#45;&gt;Iteration</title>
<path fill="none" stroke="#c05f56" d="M654.604,-144.029C625.472,-132.637 587.376,-117.739 558.982,-106.636"/>
<ellipse fill="none" stroke="#c05f56" cx="658.482" cy="-145.546" rx="4.00001" ry="4.00001"/>
<polygon fill="#c05f56" stroke="#c05f56" points="558.688,-106.52 551.013,-98.6873 554.031,-104.699 549.374,-102.878 549.374,-102.878 549.374,-102.878 554.031,-104.699 547.735,-107.069 558.688,-106.52 558.688,-106.52"/>
</g>
<!-- Object -->
<g id="node17" class="node"><title>Object</title>
<ellipse fill="none" stroke="black" cx="261" cy="-547" rx="36.1697" ry="18"/>
<text text-anchor="middle" x="261" y="-541.4" font-family="Times,serif" font-size="14.00">Object</text>
</g>
<!-- Object&#45;&gt;Ability -->
<g id="edge1" class="edge"><title>Object&#45;&gt;Ability</title>
<path fill="none" stroke="black" d="M261,-528.576C261,-511.434 261,-485.417 261,-468.314"/>
</g>
<!-- ActiveRecord::Base -->
<g id="node18" class="node"><title>ActiveRecord::Base</title>
<ellipse fill="none" stroke="black" cx="657" cy="-547" rx="88.2033" ry="18"/>
<text text-anchor="middle" x="657" y="-541.4" font-family="Times,serif" font-size="14.00">ActiveRecord::Base</text>
</g>
<!-- ActiveRecord::Base&#45;&gt;Attachment -->
<g id="edge2" class="edge"><title>ActiveRecord::Base&#45;&gt;Attachment</title>
<path fill="none" stroke="black" d="M612.028,-531.468C554.28,-512.808 455.082,-480.754 400.953,-463.264"/>
</g>
<!-- ActiveRecord::Base&#45;&gt;Estimation -->
<g id="edge3" class="edge"><title>ActiveRecord::Base&#45;&gt;Estimation</title>
<path fill="none" stroke="black" d="M609.61,-531.753C547.673,-509.856 447,-461.565 447,-379 447,-379 447,-379 447,-161 447,-114.712 465.196,-62.4687 475.715,-36.1329"/>
</g>
<!-- ActiveRecord::Base&#45;&gt;Iteration -->
<g id="edge5" class="edge"><title>ActiveRecord::Base&#45;&gt;Iteration</title>
<path fill="none" stroke="black" d="M620.523,-530.392C570.034,-506.044 485,-453.917 485,-379 485,-379 485,-379 485,-233 485,-186.864 502.185,-134.556 512.12,-108.171"/>
</g>
<!-- ActiveRecord::Base&#45;&gt;Milestone -->
<g id="edge7" class="edge"><title>ActiveRecord::Base&#45;&gt;Milestone</title>
<path fill="none" stroke="black" d="M708.193,-532.271C749.912,-519.62 809.203,-498.212 855,-468 885.834,-447.659 914.523,-415.086 930.318,-395.497"/>
</g>
<!-- ActiveRecord::Base&#45;&gt;ProductBreakdownStructure -->
<g id="edge8" class="edge"><title>ActiveRecord::Base&#45;&gt;ProductBreakdownStructure</title>
<path fill="none" stroke="black" d="M735.703,-538.701C886.468,-522.917 1206.95,-480.061 1273,-396 1330.23,-323.162 1182.26,-272.516 1091.93,-249.322"/>
</g>
<!-- ActiveRecord::Base&#45;&gt;Project -->
<g id="edge15" class="edge"><title>ActiveRecord::Base&#45;&gt;Project</title>
<path fill="none" stroke="black" d="M682.958,-529.669C711.965,-511.42 758.44,-482.18 785.816,-464.957"/>
</g>
<!-- ActiveRecord::Base&#45;&gt;Qualification -->
<g id="edge17" class="edge"><title>ActiveRecord::Base&#45;&gt;Qualification</title>
<path fill="none" stroke="black" d="M736.323,-539.01C858.101,-527.686 1098.22,-503.014 1300,-468 1309.6,-466.334 1319.83,-464.235 1329.54,-462.087"/>
</g>
<!-- ActiveRecord::Base&#45;&gt;Resource -->
<g id="edge18" class="edge"><title>ActiveRecord::Base&#45;&gt;Resource</title>
<path fill="none" stroke="black" d="M744.066,-543.835C939.293,-538.083 1398.62,-519.197 1445,-468 1484.7,-424.178 1424.03,-354.315 1392.31,-323.045"/>
</g>
<!-- ActiveRecord::Base&#45;&gt;ResourceAllocationMatrix -->
<g id="edge19" class="edge"><title>ActiveRecord::Base&#45;&gt;ResourceAllocationMatrix</title>
<path fill="none" stroke="black" d="M651.933,-529C635.944,-475.034 587.194,-307.863 580,-252 577.956,-236.131 575.589,-231.38 580,-216 590.403,-179.726 599.258,-171.593 625,-144 638.141,-129.914 655.506,-117.129 670.003,-107.646"/>
</g>
<!-- ActiveRecord::Base&#45;&gt;ResourceBreakdownStructure -->
<g id="edge21" class="edge"><title>ActiveRecord::Base&#45;&gt;ResourceBreakdownStructure</title>
<path fill="none" stroke="black" d="M701.765,-531.332C748.746,-515.862 824.709,-490.641 890,-468 961.744,-443.121 1044.72,-413.085 1094.2,-395.041"/>
</g>
<!-- ActiveRecord::Base&#45;&gt;Role -->
<g id="edge23" class="edge"><title>ActiveRecord::Base&#45;&gt;Role</title>
<path fill="none" stroke="black" d="M660.82,-528.757C667.947,-496.589 683.187,-427.806 690.256,-395.9"/>
</g>
<!-- ActiveRecord::Base&#45;&gt;User -->
<g id="edge28" class="edge"><title>ActiveRecord::Base&#45;&gt;User</title>
<path fill="none" stroke="black" d="M652.344,-528.849C644.059,-494.826 629.947,-417.15 656,-360 664.205,-342.001 681.877,-327.751 696.098,-318.58"/>
</g>
<!-- ActiveRecord::Base&#45;&gt;WorkBreakdownStructure -->
<g id="edge30" class="edge"><title>ActiveRecord::Base&#45;&gt;WorkBreakdownStructure</title>
<path fill="none" stroke="black" d="M651.573,-528.869C646.914,-513.209 640.558,-489.311 638,-468 632.275,-420.309 630.198,-406.56 642,-360 652.377,-319.059 676.373,-275.33 690.356,-251.997"/>
</g>
<!-- ActiveRecord::Base&#45;&gt;WorkPackage -->
<g id="edge33" class="edge"><title>ActiveRecord::Base&#45;&gt;WorkPackage</title>
<path fill="none" stroke="black" d="M630.526,-529.601C591.474,-503.133 523,-447.026 523,-379 523,-379 523,-379 523,-305 523,-236.334 605.246,-195.079 656.97,-175.924"/>
</g>
</g>
</svg>
