<?xml version="1.0" encoding="UTF-8" standalone="no"?>
<!DOCTYPE svg PUBLIC "-//W3C//DTD SVG 1.1//EN"
 "http://www.w3.org/Graphics/SVG/1.1/DTD/svg11.dtd">
<!-- Generated by graphviz version 2.30.1 (20140121.0832)
 -->
<!-- Title: models_diagram Pages: 1 -->
<svg width="1591pt" height="1540pt"
 viewBox="0.00 0.00 1591.00 1540.00" xmlns="http://www.w3.org/2000/svg" xmlns:xlink="http://www.w3.org/1999/xlink">
<g id="graph0" class="graph" transform="scale(1 1) rotate(0) translate(4 1536)">
<title>models_diagram</title>
<polygon fill="white" stroke="white" points="-4,5 -4,-1536 1588,-1536 1588,5 -4,5"/>
<!-- _diagram_info -->
<g id="node1" class="node"><title>_diagram_info</title>
<text text-anchor="start" x="7.31226" y="-1515" font-family="Times,serif" font-size="13.00">Models diagram</text>
<text text-anchor="start" x="7.31226" y="-1499.4" font-family="Times,serif" font-size="13.00">Date: Jan 21 2014 &#45; 09:43</text>
<text text-anchor="start" x="7.31226" y="-1483.8" font-family="Times,serif" font-size="13.00">Migration version: 20140120142538</text>
<text text-anchor="start" x="7.31226" y="-1468.2" font-family="Times,serif" font-size="13.00">Generated by RailRoady 1.1.1</text>
<text text-anchor="start" x="7.31226" y="-1452.6" font-family="Times,serif" font-size="13.00">http://railroady.prestonlee.com</text>
</g>
<!-- Ability -->
<g id="node2" class="node"><title>Ability</title>
<polygon fill="none" stroke="black" points="233.166,-1309.2 233.166,-1358.8 288.834,-1358.8 288.834,-1309.2 233.166,-1309.2"/>
<text text-anchor="middle" x="261" y="-1340.8" font-family="Times,serif" font-size="14.00">Ability</text>
<polyline fill="none" stroke="black" points="233.166,-1334 288.834,-1334 "/>
<text text-anchor="middle" x="261" y="-1316" font-family="Times,serif" font-size="14.00"> </text>
</g>
<!-- Attachment -->
<g id="node3" class="node"><title>Attachment</title>
<path fill="none" stroke="black" d="M319.05,-1258.8C319.05,-1258.8 452.95,-1258.8 452.95,-1258.8 458.95,-1258.8 464.95,-1264.8 464.95,-1270.8 464.95,-1270.8 464.95,-1397.2 464.95,-1397.2 464.95,-1403.2 458.95,-1409.2 452.95,-1409.2 452.95,-1409.2 319.05,-1409.2 319.05,-1409.2 313.05,-1409.2 307.05,-1403.2 307.05,-1397.2 307.05,-1397.2 307.05,-1270.8 307.05,-1270.8 307.05,-1264.8 313.05,-1258.8 319.05,-1258.8"/>
<text text-anchor="middle" x="386" y="-1391.2" font-family="Times,serif" font-size="14.00">Attachment</text>
<polyline fill="none" stroke="black" points="307.05,-1384.4 464.95,-1384.4 "/>
<text text-anchor="start" x="315.05" y="-1366.4" font-family="Times,serif" font-size="14.00">id :integer</text>
<text text-anchor="start" x="315.05" y="-1349.6" font-family="Times,serif" font-size="14.00">created_at :datetime</text>
<text text-anchor="start" x="315.05" y="-1332.8" font-family="Times,serif" font-size="14.00">updated_at :datetime</text>
<text text-anchor="start" x="315.05" y="-1316" font-family="Times,serif" font-size="14.00">file_file_name :string</text>
<text text-anchor="start" x="315.05" y="-1299.2" font-family="Times,serif" font-size="14.00">file_content_type :string</text>
<text text-anchor="start" x="315.05" y="-1282.4" font-family="Times,serif" font-size="14.00">file_file_size :integer</text>
<text text-anchor="start" x="315.05" y="-1265.6" font-family="Times,serif" font-size="14.00">file_updated_at :datetime</text>
</g>
<!-- Milestone -->
<g id="node4" class="node"><title>Milestone</title>
<path fill="none" stroke="black" d="M381.495,-936C381.495,-936 490.505,-936 490.505,-936 496.505,-936 502.505,-942 502.505,-948 502.505,-948 502.505,-1108 502.505,-1108 502.505,-1114 496.505,-1120 490.505,-1120 490.505,-1120 381.495,-1120 381.495,-1120 375.495,-1120 369.495,-1114 369.495,-1108 369.495,-1108 369.495,-948 369.495,-948 369.495,-942 375.495,-936 381.495,-936"/>
<text text-anchor="middle" x="436" y="-1102" font-family="Times,serif" font-size="14.00">Milestone</text>
<polyline fill="none" stroke="black" points="369.495,-1095.2 502.505,-1095.2 "/>
<text text-anchor="start" x="377.495" y="-1077.2" font-family="Times,serif" font-size="14.00">id :integer</text>
<text text-anchor="start" x="377.495" y="-1060.4" font-family="Times,serif" font-size="14.00">name :string</text>
<text text-anchor="start" x="377.495" y="-1043.6" font-family="Times,serif" font-size="14.00">description :text</text>
<text text-anchor="start" x="377.495" y="-1026.8" font-family="Times,serif" font-size="14.00">start_date :date</text>
<text text-anchor="start" x="377.495" y="-1010" font-family="Times,serif" font-size="14.00">end_date :date</text>
<text text-anchor="start" x="377.495" y="-993.2" font-family="Times,serif" font-size="14.00">project_id :integer</text>
<text text-anchor="start" x="377.495" y="-976.4" font-family="Times,serif" font-size="14.00">user_id :integer</text>
<text text-anchor="start" x="377.495" y="-959.6" font-family="Times,serif" font-size="14.00">created_at :datetime</text>
<text text-anchor="start" x="377.495" y="-942.8" font-family="Times,serif" font-size="14.00">updated_at :datetime</text>
</g>
<!-- ProductBreakdownStructure -->
<g id="node5" class="node"><title>ProductBreakdownStructure</title>
<path fill="none" stroke="black" d="M360.296,-613C360.296,-613 511.704,-613 511.704,-613 517.704,-613 523.704,-619 523.704,-625 523.704,-625 523.704,-785 523.704,-785 523.704,-791 517.704,-797 511.704,-797 511.704,-797 360.296,-797 360.296,-797 354.296,-797 348.296,-791 348.296,-785 348.296,-785 348.296,-625 348.296,-625 348.296,-619 354.296,-613 360.296,-613"/>
<text text-anchor="middle" x="436" y="-779" font-family="Times,serif" font-size="14.00">ProductBreakdownStructure</text>
<polyline fill="none" stroke="black" points="348.296,-772.2 523.704,-772.2 "/>
<text text-anchor="start" x="356.296" y="-754.2" font-family="Times,serif" font-size="14.00">id :integer</text>
<text text-anchor="start" x="356.296" y="-737.4" font-family="Times,serif" font-size="14.00">name :string</text>
<text text-anchor="start" x="356.296" y="-720.6" font-family="Times,serif" font-size="14.00">level :integer</text>
<text text-anchor="start" x="356.296" y="-703.8" font-family="Times,serif" font-size="14.00">parent :integer</text>
<text text-anchor="start" x="356.296" y="-687" font-family="Times,serif" font-size="14.00">order :integer</text>
<text text-anchor="start" x="356.296" y="-670.2" font-family="Times,serif" font-size="14.00">user_id :integer</text>
<text text-anchor="start" x="356.296" y="-653.4" font-family="Times,serif" font-size="14.00">created_at :datetime</text>
<text text-anchor="start" x="356.296" y="-636.6" font-family="Times,serif" font-size="14.00">updated_at :datetime</text>
<text text-anchor="start" x="356.296" y="-619.8" font-family="Times,serif" font-size="14.00">project_id :integer</text>
</g>
<!-- Milestone&#45;&gt;ProductBreakdownStructure -->
<g id="edge3" class="edge"><title>Milestone&#45;&gt;ProductBreakdownStructure</title>
<path fill="none" stroke="#7f19e8" d="M436,-925.801C436,-887.937 436,-844.95 436,-807.095"/>
<polygon fill="#7f19e8" stroke="#7f19e8" points="436,-925.873 431.5,-935.873 436,-930.873 436,-935.873 436,-935.873 436,-935.873 436,-930.873 440.5,-935.873 436,-925.873 436,-925.873"/>
<polygon fill="#7f19e8" stroke="#7f19e8" points="436,-807.077 440.5,-797.077 436,-802.077 436,-797.077 436,-797.077 436,-797.077 436,-802.077 431.5,-797.077 436,-807.077 436,-807.077"/>
</g>
<!-- Project -->
<g id="node6" class="node"><title>Project</title>
<path fill="none" stroke="black" d="M828.495,-629.8C828.495,-629.8 937.505,-629.8 937.505,-629.8 943.505,-629.8 949.505,-635.8 949.505,-641.8 949.505,-641.8 949.505,-768.2 949.505,-768.2 949.505,-774.2 943.505,-780.2 937.505,-780.2 937.505,-780.2 828.495,-780.2 828.495,-780.2 822.495,-780.2 816.495,-774.2 816.495,-768.2 816.495,-768.2 816.495,-641.8 816.495,-641.8 816.495,-635.8 822.495,-629.8 828.495,-629.8"/>
<text text-anchor="middle" x="883" y="-762.2" font-family="Times,serif" font-size="14.00">Project</text>
<polyline fill="none" stroke="black" points="816.495,-755.4 949.505,-755.4 "/>
<text text-anchor="start" x="824.495" y="-737.4" font-family="Times,serif" font-size="14.00">id :integer</text>
<text text-anchor="start" x="824.495" y="-720.6" font-family="Times,serif" font-size="14.00">name :string</text>
<text text-anchor="start" x="824.495" y="-703.8" font-family="Times,serif" font-size="14.00">description :text</text>
<text text-anchor="start" x="824.495" y="-687" font-family="Times,serif" font-size="14.00">user_id :integer</text>
<text text-anchor="start" x="824.495" y="-670.2" font-family="Times,serif" font-size="14.00">created_at :datetime</text>
<text text-anchor="start" x="824.495" y="-653.4" font-family="Times,serif" font-size="14.00">updated_at :datetime</text>
<text text-anchor="start" x="824.495" y="-636.6" font-family="Times,serif" font-size="14.00">due :datetime</text>
</g>
<!-- ProjectBreakdownStructure -->
<g id="node17" class="node"><title>ProjectBreakdownStructure</title>
<ellipse fill="none" stroke="black" cx="879" cy="-466" rx="117.958" ry="18"/>
<text text-anchor="middle" x="879" y="-460.4" font-family="Times,serif" font-size="14.00">ProjectBreakdownStructure</text>
</g>
<!-- Project&#45;&gt;ProjectBreakdownStructure -->
<g id="edge6" class="edge"><title>Project&#45;&gt;ProjectBreakdownStructure</title>
<path fill="none" stroke="#15b8ca" d="M881.607,-621.443C880.858,-577.115 879.985,-525.375 879.463,-494.449"/>
<ellipse fill="none" stroke="#15b8ca" cx="881.678" cy="-625.663" rx="4" ry="4"/>
<polygon fill="#15b8ca" stroke="#15b8ca" points="879.457,-494.047 883.787,-483.973 879.372,-489.048 879.288,-484.049 879.288,-484.049 879.288,-484.049 879.372,-489.048 874.788,-484.125 879.457,-494.047 879.457,-494.047"/>
</g>
<!-- WorkBreakdownStructure -->
<g id="node13" class="node"><title>WorkBreakdownStructure</title>
<path fill="none" stroke="black" d="M591.691,-365.6C591.691,-365.6 730.309,-365.6 730.309,-365.6 736.309,-365.6 742.309,-371.6 742.309,-377.6 742.309,-377.6 742.309,-554.4 742.309,-554.4 742.309,-560.4 736.309,-566.4 730.309,-566.4 730.309,-566.4 591.691,-566.4 591.691,-566.4 585.691,-566.4 579.691,-560.4 579.691,-554.4 579.691,-554.4 579.691,-377.6 579.691,-377.6 579.691,-371.6 585.691,-365.6 591.691,-365.6"/>
<text text-anchor="middle" x="661" y="-548.4" font-family="Times,serif" font-size="14.00">WorkBreakdownStructure</text>
<polyline fill="none" stroke="black" points="579.691,-541.6 742.309,-541.6 "/>
<text text-anchor="start" x="587.691" y="-523.6" font-family="Times,serif" font-size="14.00">id :integer</text>
<text text-anchor="start" x="587.691" y="-506.8" font-family="Times,serif" font-size="14.00">name :string</text>
<text text-anchor="start" x="587.691" y="-490" font-family="Times,serif" font-size="14.00">level :integer</text>
<text text-anchor="start" x="587.691" y="-473.2" font-family="Times,serif" font-size="14.00">parent :integer</text>
<text text-anchor="start" x="587.691" y="-456.4" font-family="Times,serif" font-size="14.00">order :integer</text>
<text text-anchor="start" x="587.691" y="-439.6" font-family="Times,serif" font-size="14.00">type :integer</text>
<text text-anchor="start" x="587.691" y="-422.8" font-family="Times,serif" font-size="14.00">project_id :integer</text>
<text text-anchor="start" x="587.691" y="-406" font-family="Times,serif" font-size="14.00">created_at :datetime</text>
<text text-anchor="start" x="587.691" y="-389.2" font-family="Times,serif" font-size="14.00">updated_at :datetime</text>
<text text-anchor="start" x="587.691" y="-372.4" font-family="Times,serif" font-size="14.00">user_id :integer</text>
</g>
<!-- Project&#45;&gt;WorkBreakdownStructure -->
<g id="edge7" class="edge"><title>Project&#45;&gt;WorkBreakdownStructure</title>
<path fill="none" stroke="#3bb631" d="M814.644,-624.031C810.457,-619.871 806.227,-615.832 802,-612 781.713,-593.608 772.043,-594.657 752,-576 751.188,-575.244 750.376,-574.481 749.566,-573.712"/>
<ellipse fill="none" stroke="#3bb631" cx="817.508" cy="-626.927" rx="4.00002" ry="4.00002"/>
<polygon fill="#3bb631" stroke="#3bb631" points="749.452,-573.601 745.433,-563.398 745.872,-570.11 742.292,-566.62 742.292,-566.62 742.292,-566.62 745.872,-570.11 739.15,-569.842 749.452,-573.601 749.452,-573.601"/>
</g>
<!-- ResourceBreakdownStructure -->
<g id="node10" class="node"><title>ResourceBreakdownStructure</title>
<path fill="none" stroke="black" d="M1065.03,-357.2C1065.03,-357.2 1224.97,-357.2 1224.97,-357.2 1230.97,-357.2 1236.97,-363.2 1236.97,-369.2 1236.97,-369.2 1236.97,-562.8 1236.97,-562.8 1236.97,-568.8 1230.97,-574.8 1224.97,-574.8 1224.97,-574.8 1065.03,-574.8 1065.03,-574.8 1059.03,-574.8 1053.03,-568.8 1053.03,-562.8 1053.03,-562.8 1053.03,-369.2 1053.03,-369.2 1053.03,-363.2 1059.03,-357.2 1065.03,-357.2"/>
<text text-anchor="middle" x="1145" y="-556.8" font-family="Times,serif" font-size="14.00">ResourceBreakdownStructure</text>
<polyline fill="none" stroke="black" points="1053.03,-550 1236.97,-550 "/>
<text text-anchor="start" x="1061.03" y="-532" font-family="Times,serif" font-size="14.00">id :integer</text>
<text text-anchor="start" x="1061.03" y="-515.2" font-family="Times,serif" font-size="14.00">name :string</text>
<text text-anchor="start" x="1061.03" y="-498.4" font-family="Times,serif" font-size="14.00">level :integer</text>
<text text-anchor="start" x="1061.03" y="-481.6" font-family="Times,serif" font-size="14.00">parent :integer</text>
<text text-anchor="start" x="1061.03" y="-464.8" font-family="Times,serif" font-size="14.00">order :integer</text>
<text text-anchor="start" x="1061.03" y="-448" font-family="Times,serif" font-size="14.00">user_id :integer</text>
<text text-anchor="start" x="1061.03" y="-431.2" font-family="Times,serif" font-size="14.00">resource :integer</text>
<text text-anchor="start" x="1061.03" y="-414.4" font-family="Times,serif" font-size="14.00">resource_type :integer</text>
<text text-anchor="start" x="1061.03" y="-397.6" font-family="Times,serif" font-size="14.00">project_id :integer</text>
<text text-anchor="start" x="1061.03" y="-380.8" font-family="Times,serif" font-size="14.00">created_at :datetime</text>
<text text-anchor="start" x="1061.03" y="-364" font-family="Times,serif" font-size="14.00">updated_at :datetime</text>
</g>
<!-- Project&#45;&gt;ResourceBreakdownStructure -->
<g id="edge8" class="edge"><title>Project&#45;&gt;ResourceBreakdownStructure</title>
<path fill="none" stroke="#d0fecf" d="M956.096,-637.879C983.676,-612.93 1015.54,-584.104 1045.16,-557.317"/>
<ellipse fill="none" stroke="#d0fecf" cx="952.758" cy="-640.898" rx="4.00002" ry="4.00002"/>
<polygon fill="#d0fecf" stroke="#d0fecf" points="1045.22,-557.263 1055.65,-553.892 1048.92,-553.909 1052.63,-550.555 1052.63,-550.555 1052.63,-550.555 1048.92,-553.909 1049.61,-547.218 1045.22,-557.263 1045.22,-557.263"/>
</g>
<!-- Qualification -->
<g id="node7" class="node"><title>Qualification</title>
<path fill="none" stroke="black" d="M1141.49,-952.8C1141.49,-952.8 1250.51,-952.8 1250.51,-952.8 1256.51,-952.8 1262.51,-958.8 1262.51,-964.8 1262.51,-964.8 1262.51,-1091.2 1262.51,-1091.2 1262.51,-1097.2 1256.51,-1103.2 1250.51,-1103.2 1250.51,-1103.2 1141.49,-1103.2 1141.49,-1103.2 1135.49,-1103.2 1129.49,-1097.2 1129.49,-1091.2 1129.49,-1091.2 1129.49,-964.8 1129.49,-964.8 1129.49,-958.8 1135.49,-952.8 1141.49,-952.8"/>
<text text-anchor="middle" x="1196" y="-1085.2" font-family="Times,serif" font-size="14.00">Qualification</text>
<polyline fill="none" stroke="black" points="1129.49,-1078.4 1262.51,-1078.4 "/>
<text text-anchor="start" x="1137.49" y="-1060.4" font-family="Times,serif" font-size="14.00">id :integer</text>
<text text-anchor="start" x="1137.49" y="-1043.6" font-family="Times,serif" font-size="14.00">name :string</text>
<text text-anchor="start" x="1137.49" y="-1026.8" font-family="Times,serif" font-size="14.00">experience :string</text>
<text text-anchor="start" x="1137.49" y="-1010" font-family="Times,serif" font-size="14.00">project_id :integer</text>
<text text-anchor="start" x="1137.49" y="-993.2" font-family="Times,serif" font-size="14.00">user_id :integer</text>
<text text-anchor="start" x="1137.49" y="-976.4" font-family="Times,serif" font-size="14.00">created_at :datetime</text>
<text text-anchor="start" x="1137.49" y="-959.6" font-family="Times,serif" font-size="14.00">updated_at :datetime</text>
</g>
<!-- Resource -->
<g id="node8" class="node"><title>Resource</title>
<path fill="none" stroke="black" d="M1150.63,-68C1150.63,-68 1379.37,-68 1379.37,-68 1385.37,-68 1391.37,-74 1391.37,-80 1391.37,-80 1391.37,-240 1391.37,-240 1391.37,-246 1385.37,-252 1379.37,-252 1379.37,-252 1150.63,-252 1150.63,-252 1144.63,-252 1138.63,-246 1138.63,-240 1138.63,-240 1138.63,-80 1138.63,-80 1138.63,-74 1144.63,-68 1150.63,-68"/>
<text text-anchor="middle" x="1265" y="-234" font-family="Times,serif" font-size="14.00">Resource</text>
<polyline fill="none" stroke="black" points="1138.63,-227.2 1391.37,-227.2 "/>
<text text-anchor="start" x="1146.63" y="-209.2" font-family="Times,serif" font-size="14.00">id :integer</text>
<text text-anchor="start" x="1146.63" y="-192.4" font-family="Times,serif" font-size="14.00">qualification_id :integer</text>
<text text-anchor="start" x="1146.63" y="-175.6" font-family="Times,serif" font-size="14.00">resource_breakdown_structure_id :integer</text>
<text text-anchor="start" x="1146.63" y="-158.8" font-family="Times,serif" font-size="14.00">count :integer</text>
<text text-anchor="start" x="1146.63" y="-142" font-family="Times,serif" font-size="14.00">amount :float</text>
<text text-anchor="start" x="1146.63" y="-125.2" font-family="Times,serif" font-size="14.00">user_id :integer</text>
<text text-anchor="start" x="1146.63" y="-108.4" font-family="Times,serif" font-size="14.00">project_id :integer</text>
<text text-anchor="start" x="1146.63" y="-91.6" font-family="Times,serif" font-size="14.00">created_at :datetime</text>
<text text-anchor="start" x="1146.63" y="-74.8" font-family="Times,serif" font-size="14.00">updated_at :datetime</text>
</g>
<!-- Qualification&#45;&gt;Resource -->
<g id="edge10" class="edge"><title>Qualification&#45;&gt;Resource</title>
<path fill="none" stroke="#7fc255" d="M1206.47,-944.498C1217.58,-854.174 1234.89,-705 1245,-576 1253.38,-469.063 1258.77,-346.332 1261.82,-262.238"/>
<ellipse fill="none" stroke="#7fc255" cx="1205.97" cy="-948.543" rx="4.00001" ry="4.00001"/>
<polygon fill="#7fc255" stroke="#7fc255" points="1261.82,-262.171 1266.68,-252.339 1262,-257.174 1262.18,-252.177 1262.18,-252.177 1262.18,-252.177 1262,-257.174 1257.68,-252.016 1261.82,-262.171 1261.82,-262.171"/>
</g>
<!-- ResourceAllocationMatrix -->
<g id="node9" class="node"><title>ResourceAllocationMatrix</title>
<path fill="none" stroke="black" d="M1342.63,-1258.8C1342.63,-1258.8 1571.37,-1258.8 1571.37,-1258.8 1577.37,-1258.8 1583.37,-1264.8 1583.37,-1270.8 1583.37,-1270.8 1583.37,-1397.2 1583.37,-1397.2 1583.37,-1403.2 1577.37,-1409.2 1571.37,-1409.2 1571.37,-1409.2 1342.63,-1409.2 1342.63,-1409.2 1336.63,-1409.2 1330.63,-1403.2 1330.63,-1397.2 1330.63,-1397.2 1330.63,-1270.8 1330.63,-1270.8 1330.63,-1264.8 1336.63,-1258.8 1342.63,-1258.8"/>
<text text-anchor="middle" x="1457" y="-1391.2" font-family="Times,serif" font-size="14.00">ResourceAllocationMatrix</text>
<polyline fill="none" stroke="black" points="1330.63,-1384.4 1583.37,-1384.4 "/>
<text text-anchor="start" x="1338.63" y="-1366.4" font-family="Times,serif" font-size="14.00">id :integer</text>
<text text-anchor="start" x="1338.63" y="-1349.6" font-family="Times,serif" font-size="14.00">work_package_id :integer</text>
<text text-anchor="start" x="1338.63" y="-1332.8" font-family="Times,serif" font-size="14.00">resource_breakdown_structure_id :integer</text>
<text text-anchor="start" x="1338.63" y="-1316" font-family="Times,serif" font-size="14.00">product_breakdown_structure_id :integer</text>
<text text-anchor="start" x="1338.63" y="-1299.2" font-family="Times,serif" font-size="14.00">project_id :integer</text>
<text text-anchor="start" x="1338.63" y="-1282.4" font-family="Times,serif" font-size="14.00">created_at :datetime</text>
<text text-anchor="start" x="1338.63" y="-1265.6" font-family="Times,serif" font-size="14.00">updated_at :datetime</text>
</g>
<!-- ResourceBreakdownStructure&#45;&gt;Resource -->
<g id="edge14" class="edge"><title>ResourceBreakdownStructure&#45;&gt;Resource</title>
<path fill="none" stroke="#8e57cb" d="M1190.68,-349.276C1202.09,-320.377 1214.23,-289.62 1225.32,-261.524"/>
<ellipse fill="none" stroke="#8e57cb" cx="1189.11" cy="-353.244" rx="4.00001" ry="4.00001"/>
<polygon fill="#8e57cb" stroke="#8e57cb" points="1225.37,-261.405 1233.22,-253.756 1227.2,-256.755 1229.04,-252.104 1229.04,-252.104 1229.04,-252.104 1227.2,-256.755 1224.85,-250.452 1225.37,-261.405 1225.37,-261.405"/>
</g>
<!-- Role -->
<g id="node11" class="node"><title>Role</title>
<path fill="none" stroke="black" d="M603.102,-1267.2C603.102,-1267.2 712.898,-1267.2 712.898,-1267.2 718.898,-1267.2 724.898,-1273.2 724.898,-1279.2 724.898,-1279.2 724.898,-1388.8 724.898,-1388.8 724.898,-1394.8 718.898,-1400.8 712.898,-1400.8 712.898,-1400.8 603.102,-1400.8 603.102,-1400.8 597.102,-1400.8 591.102,-1394.8 591.102,-1388.8 591.102,-1388.8 591.102,-1279.2 591.102,-1279.2 591.102,-1273.2 597.102,-1267.2 603.102,-1267.2"/>
<text text-anchor="middle" x="658" y="-1382.8" font-family="Times,serif" font-size="14.00">Role</text>
<polyline fill="none" stroke="black" points="591.102,-1376 724.898,-1376 "/>
<text text-anchor="start" x="599.102" y="-1358" font-family="Times,serif" font-size="14.00">id :integer</text>
<text text-anchor="start" x="599.102" y="-1341.2" font-family="Times,serif" font-size="14.00">name :string</text>
<text text-anchor="start" x="599.102" y="-1324.4" font-family="Times,serif" font-size="14.00">resource_id :integer</text>
<text text-anchor="start" x="599.102" y="-1307.6" font-family="Times,serif" font-size="14.00">resource_type :string</text>
<text text-anchor="start" x="599.102" y="-1290.8" font-family="Times,serif" font-size="14.00">created_at :datetime</text>
<text text-anchor="start" x="599.102" y="-1274" font-family="Times,serif" font-size="14.00">updated_at :datetime</text>
</g>
<!-- User -->
<g id="node12" class="node"><title>User</title>
<path fill="none" stroke="black" d="M570.722,-835.2C570.722,-835.2 751.278,-835.2 751.278,-835.2 757.278,-835.2 763.278,-841.2 763.278,-847.2 763.278,-847.2 763.278,-1208.8 763.278,-1208.8 763.278,-1214.8 757.278,-1220.8 751.278,-1220.8 751.278,-1220.8 570.722,-1220.8 570.722,-1220.8 564.722,-1220.8 558.722,-1214.8 558.722,-1208.8 558.722,-1208.8 558.722,-847.2 558.722,-847.2 558.722,-841.2 564.722,-835.2 570.722,-835.2"/>
<text text-anchor="middle" x="661" y="-1202.8" font-family="Times,serif" font-size="14.00">User</text>
<polyline fill="none" stroke="black" points="558.722,-1196 763.278,-1196 "/>
<text text-anchor="start" x="566.722" y="-1178" font-family="Times,serif" font-size="14.00">id :integer</text>
<text text-anchor="start" x="566.722" y="-1161.2" font-family="Times,serif" font-size="14.00">email :string</text>
<text text-anchor="start" x="566.722" y="-1144.4" font-family="Times,serif" font-size="14.00">encrypted_password :string</text>
<text text-anchor="start" x="566.722" y="-1127.6" font-family="Times,serif" font-size="14.00">reset_password_token :string</text>
<text text-anchor="start" x="566.722" y="-1110.8" font-family="Times,serif" font-size="14.00">reset_password_sent_at :datetime</text>
<text text-anchor="start" x="566.722" y="-1094" font-family="Times,serif" font-size="14.00">remember_created_at :datetime</text>
<text text-anchor="start" x="566.722" y="-1077.2" font-family="Times,serif" font-size="14.00">sign_in_count :integer</text>
<text text-anchor="start" x="566.722" y="-1060.4" font-family="Times,serif" font-size="14.00">current_sign_in_at :datetime</text>
<text text-anchor="start" x="566.722" y="-1043.6" font-family="Times,serif" font-size="14.00">last_sign_in_at :datetime</text>
<text text-anchor="start" x="566.722" y="-1026.8" font-family="Times,serif" font-size="14.00">current_sign_in_ip :string</text>
<text text-anchor="start" x="566.722" y="-1010" font-family="Times,serif" font-size="14.00">last_sign_in_ip :string</text>
<text text-anchor="start" x="566.722" y="-993.2" font-family="Times,serif" font-size="14.00">created_at :datetime</text>
<text text-anchor="start" x="566.722" y="-976.4" font-family="Times,serif" font-size="14.00">updated_at :datetime</text>
<text text-anchor="start" x="566.722" y="-959.6" font-family="Times,serif" font-size="14.00">firstname :string</text>
<text text-anchor="start" x="566.722" y="-942.8" font-family="Times,serif" font-size="14.00">lastname :string</text>
<text text-anchor="start" x="566.722" y="-926" font-family="Times,serif" font-size="14.00">title :string</text>
<text text-anchor="start" x="566.722" y="-909.2" font-family="Times,serif" font-size="14.00">phone :string</text>
<text text-anchor="start" x="566.722" y="-892.4" font-family="Times,serif" font-size="14.00">mobile :string</text>
<text text-anchor="start" x="566.722" y="-875.6" font-family="Times,serif" font-size="14.00">department :string</text>
<text text-anchor="start" x="566.722" y="-858.8" font-family="Times,serif" font-size="14.00">position :string</text>
<text text-anchor="start" x="566.722" y="-842" font-family="Times,serif" font-size="14.00">location :string</text>
</g>
<!-- Role&#45;&gt;User -->
<g id="edge16" class="edge"><title>Role&#45;&gt;User</title>
<path fill="none" stroke="#f0c9c6" d="M658.751,-1256.86C658.833,-1248.63 658.918,-1240 659.005,-1231.11"/>
<polygon fill="#f0c9c6" stroke="#f0c9c6" points="658.75,-1257.04 654.151,-1266.99 658.7,-1262.04 658.651,-1267.04 658.651,-1267.04 658.651,-1267.04 658.7,-1262.04 663.151,-1267.08 658.75,-1257.04 658.75,-1257.04"/>
<polygon fill="#f0c9c6" stroke="#f0c9c6" points="659.007,-1230.98 663.605,-1221.02 659.056,-1225.98 659.105,-1220.98 659.105,-1220.98 659.105,-1220.98 659.056,-1225.98 654.606,-1220.93 659.007,-1230.98 659.007,-1230.98"/>
</g>
<!-- User&#45;&gt;Project -->
<g id="edge18" class="edge"><title>User&#45;&gt;Project</title>
<path fill="none" stroke="#7361bf" d="M768.265,-871.9C788.128,-843.18 808.149,-814.23 825.783,-788.733"/>
<ellipse fill="none" stroke="#7361bf" cx="765.827" cy="-875.425" rx="4.00002" ry="4.00002"/>
<polygon fill="#7361bf" stroke="#7361bf" points="825.98,-788.448 835.369,-782.783 828.824,-784.336 831.668,-780.223 831.668,-780.223 831.668,-780.223 828.824,-784.336 827.967,-777.664 825.98,-788.448 825.98,-788.448"/>
</g>
<!-- User&#45;&gt;ProductBreakdownStructure -->
<g id="edge19" class="edge"><title>User&#45;&gt;ProductBreakdownStructure</title>
<path fill="none" stroke="#fe3921" d="M553.971,-846.72C550.988,-842.412 547.995,-838.166 545,-834 538.145,-824.465 530.753,-814.765 523.161,-805.188"/>
<ellipse fill="none" stroke="#fe3921" cx="556.386" cy="-850.238" rx="4.00002" ry="4.00002"/>
<polygon fill="#fe3921" stroke="#fe3921" points="522.996,-804.983 520.256,-794.365 519.87,-801.081 516.744,-797.178 516.744,-797.178 516.744,-797.178 519.87,-801.081 513.232,-799.992 522.996,-804.983 522.996,-804.983"/>
</g>
<!-- User&#45;&gt;WorkBreakdownStructure -->
<g id="edge20" class="edge"><title>User&#45;&gt;WorkBreakdownStructure</title>
<path fill="none" stroke="#cc2da2" d="M661,-826.832C661,-742.705 661,-648.087 661,-576.996"/>
<ellipse fill="none" stroke="#cc2da2" cx="661" cy="-831.063" rx="4" ry="4"/>
<polygon fill="#cc2da2" stroke="#cc2da2" points="661,-576.682 665.5,-566.682 661,-571.682 661,-566.682 661,-566.682 661,-566.682 661,-571.682 656.5,-566.682 661,-576.682 661,-576.682"/>
</g>
<!-- WorkPackage -->
<g id="node14" class="node"><title>WorkPackage</title>
<path fill="none" stroke="black" d="M555.95,-0.8C555.95,-0.8 766.05,-0.8 766.05,-0.8 772.05,-0.8 778.05,-6.8 778.05,-12.8 778.05,-12.8 778.05,-307.2 778.05,-307.2 778.05,-313.2 772.05,-319.2 766.05,-319.2 766.05,-319.2 555.95,-319.2 555.95,-319.2 549.95,-319.2 543.95,-313.2 543.95,-307.2 543.95,-307.2 543.95,-12.8 543.95,-12.8 543.95,-6.8 549.95,-0.8 555.95,-0.8"/>
<text text-anchor="middle" x="661" y="-301.2" font-family="Times,serif" font-size="14.00">WorkPackage</text>
<polyline fill="none" stroke="black" points="543.95,-294.4 778.05,-294.4 "/>
<text text-anchor="start" x="551.95" y="-276.4" font-family="Times,serif" font-size="14.00">id :integer</text>
<text text-anchor="start" x="551.95" y="-259.6" font-family="Times,serif" font-size="14.00">name :string</text>
<text text-anchor="start" x="551.95" y="-242.8" font-family="Times,serif" font-size="14.00">owner_id :integer</text>
<text text-anchor="start" x="551.95" y="-226" font-family="Times,serif" font-size="14.00">released_by_id :integer</text>
<text text-anchor="start" x="551.95" y="-209.2" font-family="Times,serif" font-size="14.00">released_on :datetime</text>
<text text-anchor="start" x="551.95" y="-192.4" font-family="Times,serif" font-size="14.00">description :text</text>
<text text-anchor="start" x="551.95" y="-175.6" font-family="Times,serif" font-size="14.00">target :text</text>
<text text-anchor="start" x="551.95" y="-158.8" font-family="Times,serif" font-size="14.00">resources :text</text>
<text text-anchor="start" x="551.95" y="-142" font-family="Times,serif" font-size="14.00">risk :integer</text>
<text text-anchor="start" x="551.95" y="-125.2" font-family="Times,serif" font-size="14.00">work_breakdown_structure_id :integer</text>
<text text-anchor="start" x="551.95" y="-108.4" font-family="Times,serif" font-size="14.00">start :date</text>
<text text-anchor="start" x="551.95" y="-91.6" font-family="Times,serif" font-size="14.00">end :date</text>
<text text-anchor="start" x="551.95" y="-74.8" font-family="Times,serif" font-size="14.00">cost :integer</text>
<text text-anchor="start" x="551.95" y="-58" font-family="Times,serif" font-size="14.00">parent :integer</text>
<text text-anchor="start" x="551.95" y="-41.2" font-family="Times,serif" font-size="14.00">project_id :integer</text>
<text text-anchor="start" x="551.95" y="-24.4" font-family="Times,serif" font-size="14.00">created_at :datetime</text>
<text text-anchor="start" x="551.95" y="-7.6" font-family="Times,serif" font-size="14.00">updated_at :datetime</text>
</g>
<!-- User&#45;&gt;WorkPackage -->
<g id="edge21" class="edge"><title>User&#45;&gt;WorkPackage</title>
<path fill="none" stroke="#51153c" d="M597.909,-827.033C564.418,-692.821 536.606,-512.596 571,-356 572.968,-347.041 575.389,-338.002 578.157,-328.983"/>
<ellipse fill="none" stroke="#51153c" cx="598.939" cy="-831.12" rx="4.00001" ry="4.00001"/>
<polygon fill="#51153c" stroke="#51153c" points="578.238,-328.731 585.578,-320.583 579.765,-323.969 581.293,-319.208 581.293,-319.208 581.293,-319.208 579.765,-323.969 577.008,-317.834 578.238,-328.731 578.238,-328.731"/>
</g>
<!-- WorkBreakdownStructure&#45;&gt;WorkPackage -->
<g id="edge23" class="edge"><title>WorkBreakdownStructure&#45;&gt;WorkPackage</title>
<path fill="none" stroke="#0fb8a2" d="M661,-357.409C661,-348.339 661,-339.037 661,-329.651"/>
<ellipse fill="none" stroke="#0fb8a2" cx="661" cy="-361.459" rx="4" ry="4"/>
<polygon fill="#0fb8a2" stroke="#0fb8a2" points="661,-329.438 665.5,-319.438 661,-324.438 661,-319.438 661,-319.438 661,-319.438 661,-324.438 656.5,-319.438 661,-329.438 661,-329.438"/>
</g>
<!-- Object -->
<g id="node15" class="node"><title>Object</title>
<ellipse fill="none" stroke="black" cx="261" cy="-1489" rx="36.1697" ry="18"/>
<text text-anchor="middle" x="261" y="-1483.4" font-family="Times,serif" font-size="14.00">Object</text>
</g>
<!-- Object&#45;&gt;Ability -->
<g id="edge1" class="edge"><title>Object&#45;&gt;Ability</title>
<path fill="none" stroke="black" d="M261,-1470.75C261,-1443.39 261,-1390 261,-1358.95"/>
</g>
<!-- ActiveRecord::Base -->
<g id="node16" class="node"><title>ActiveRecord::Base</title>
<ellipse fill="none" stroke="black" cx="814" cy="-1489" rx="88.2033" ry="18"/>
<text text-anchor="middle" x="814" y="-1483.4" font-family="Times,serif" font-size="14.00">ActiveRecord::Base</text>
</g>
<!-- ActiveRecord::Base&#45;&gt;Attachment -->
<g id="edge2" class="edge"><title>ActiveRecord::Base&#45;&gt;Attachment</title>
<path fill="none" stroke="black" d="M737.221,-1480.06C667.115,-1470.54 562.06,-1450.5 479,-1410 474.339,-1407.73 469.702,-1405.18 465.128,-1402.44"/>
</g>
<!-- ActiveRecord::Base&#45;&gt;Milestone -->
<g id="edge4" class="edge"><title>ActiveRecord::Base&#45;&gt;Milestone</title>
<path fill="none" stroke="black" d="M743.453,-1478.12C665.804,-1465.8 547.861,-1442.36 517,-1410 497.048,-1389.08 467.61,-1226.11 450.261,-1120.2"/>
</g>
<!-- ActiveRecord::Base&#45;&gt;ProductBreakdownStructure -->
<g id="edge5" class="edge"><title>ActiveRecord::Base&#45;&gt;ProductBreakdownStructure</title>
<path fill="none" stroke="black" d="M733.34,-1481.56C682.459,-1473.12 619.493,-1453.84 582,-1410 526.911,-1345.59 561.356,-1305.99 550,-1222 526.779,-1050.25 564.711,-998.781 511,-834 506.969,-821.634 501.61,-809.165 495.604,-797.116"/>
</g>
<!-- ActiveRecord::Base&#45;&gt;Project -->
<g id="edge9" class="edge"><title>ActiveRecord::Base&#45;&gt;Project</title>
<path fill="none" stroke="black" d="M815.505,-1470.94C823.487,-1380.48 861.073,-954.503 876.435,-780.409"/>
</g>
<!-- ActiveRecord::Base&#45;&gt;Qualification -->
<g id="edge11" class="edge"><title>ActiveRecord::Base&#45;&gt;Qualification</title>
<path fill="none" stroke="black" d="M900.41,-1485.11C961.202,-1478.49 1040.28,-1459.92 1090,-1410 1171.64,-1328.03 1191.73,-1188.9 1195.93,-1103.38"/>
</g>
<!-- ActiveRecord::Base&#45;&gt;Resource -->
<g id="edge12" class="edge"><title>ActiveRecord::Base&#45;&gt;Resource</title>
<path fill="none" stroke="black" d="M900.218,-1484.7C971.202,-1478.21 1071.58,-1460.01 1144,-1410 1294.98,-1305.73 1303,-1212.49 1303,-1029 1303,-1029 1303,-1029 1303,-704 1303,-544.765 1286.54,-359.903 1275.28,-252.136"/>
</g>
<!-- ActiveRecord::Base&#45;&gt;ResourceAllocationMatrix -->
<g id="edge13" class="edge"><title>ActiveRecord::Base&#45;&gt;ResourceAllocationMatrix</title>
<path fill="none" stroke="black" d="M898.371,-1483.61C999.981,-1476.36 1174.74,-1457.59 1317,-1410 1321.45,-1408.51 1325.92,-1406.89 1330.39,-1405.16"/>
</g>
<!-- ActiveRecord::Base&#45;&gt;ResourceBreakdownStructure -->
<g id="edge15" class="edge"><title>ActiveRecord::Base&#45;&gt;ResourceBreakdownStructure</title>
<path fill="none" stroke="black" d="M894.195,-1481.36C943.704,-1472.83 1004.21,-1453.51 1039,-1410 1064.83,-1377.69 1115.39,-815.477 1135.97,-574.85"/>
</g>
<!-- ActiveRecord::Base&#45;&gt;Role -->
<g id="edge17" class="edge"><title>ActiveRecord::Base&#45;&gt;Role</title>
<path fill="none" stroke="black" d="M797.008,-1471.34C779.635,-1454.3 751.527,-1426.73 725.116,-1400.83"/>
</g>
<!-- ActiveRecord::Base&#45;&gt;User -->
<g id="edge22" class="edge"><title>ActiveRecord::Base&#45;&gt;User</title>
<path fill="none" stroke="black" d="M804.956,-1471C796.909,-1455.43 785.182,-1431.58 777,-1410 752.07,-1344.24 753.326,-1325.33 733,-1258 729.356,-1245.93 725.569,-1233.52 721.721,-1221.01"/>
</g>
<!-- ActiveRecord::Base&#45;&gt;WorkBreakdownStructure -->
<g id="edge24" class="edge"><title>ActiveRecord::Base&#45;&gt;WorkBreakdownStructure</title>
<path fill="none" stroke="black" d="M814.333,-1470.9C815.507,-1395.32 817.204,-1083.95 772,-834 755.297,-741.641 723.32,-639.688 697.962,-566.727"/>
</g>
<!-- ActiveRecord::Base&#45;&gt;WorkPackage -->
<g id="edge25" class="edge"><title>ActiveRecord::Base&#45;&gt;WorkPackage</title>
<path fill="none" stroke="black" d="M828.503,-1470.96C876.174,-1413.15 1025,-1217.56 1025,-1029 1025,-1029 1025,-1029 1025,-704 1025,-626.551 1046.84,-421.805 1006,-356 955.298,-274.305 857.141,-223.693 778.449,-194.574"/>
</g>
</g>
</svg>
